<?xml version="1.0" encoding="utf-8"?>
<!-- Generator: Adobe Illustrator 17.0.0, SVG Export Plug-In . SVG Version: 6.00 Build 0)  -->
<!DOCTYPE svg PUBLIC "-//W3C//DTD SVG 1.1//EN" "http://www.w3.org/Graphics/SVG/1.1/DTD/svg11.dtd">
<svg version="1.1" id="Layer_1" xmlns="http://www.w3.org/2000/svg" xmlns:xlink="http://www.w3.org/1999/xlink" x="0px" y="0px"
	 width="91.667px" height="96.667px" viewBox="0 0 91.667 96.667" enable-background="new 0 0 91.667 96.667" xml:space="preserve">
<g opacity="0.2">
	<path fill="none" d="M44.939,72.759c0.104,0.373,0.169,0.602,0.169,0.602h0.066l-0.02-0.141L44.939,72.759z"/>
	<path fill="none" d="M45.254,73.36h0.022c0,0,0.018-0.068,0.051-0.191l-0.078,0.164L45.254,73.36z"/>
	<g>
		<polygon fill="#FFFFFF" points="53.245,19.096 45.458,7.467 38.665,19.096 		"/>
	</g>
	<g>
		<path fill="#FFFFFF" d="M44.939,72.759l0.216,0.461l0.02,0.141h0.079l-0.005-0.027l0.078-0.164
			c0.232-0.883,1.244-4.658,2.192-7.283l16.188-44.338h-6.92l-11.36,50.706l8.826-50.708H38.098l6.861,50.235l-9.367-50.235h-8.914
			l16.189,44.338C43.645,68.214,44.569,71.44,44.939,72.759z"/>
	</g>
	<g>
		<polygon fill="#FFFFFF" points="42.952,6.892 30.637,6.892 36.583,17.83 		"/>
	</g>
	<g>
		<polygon fill="#FFFFFF" points="28.511,8.072 20.922,19.096 34.499,19.096 		"/>
	</g>
	<g>
		<polygon fill="#FFFFFF" points="60.297,6.892 48.022,6.892 55.52,18.121 		"/>
	</g>
	<g>
		<polygon fill="#FFFFFF" points="69.863,19.096 62.378,8.244 57.762,19.096 		"/>
	</g>
	<path fill="#AEBCC2" d="M63.708,21.547L47.52,65.885c-0.948,2.625-1.96,6.4-2.192,7.283c-0.033,0.123-0.051,0.191-0.051,0.191
		h-0.022h-0.079H45.11c0,0-0.064-0.229-0.169-0.602c-0.37-1.318-1.294-4.545-2.071-6.873L26.678,21.547l-0.002-0.007h-6.148
		L42.12,79.919h6.147L69.856,21.54H63.71L63.708,21.547z"/>
</g>
</svg>
