<?xml version="1.0" encoding="utf-8"?>
<!-- Generator: Adobe Illustrator 17.0.0, SVG Export Plug-In . SVG Version: 6.00 Build 0)  -->
<!DOCTYPE svg PUBLIC "-//W3C//DTD SVG 1.1//EN" "http://www.w3.org/Graphics/SVG/1.1/DTD/svg11.dtd">
<svg version="1.1" id="Layer_1" xmlns="http://www.w3.org/2000/svg" xmlns:xlink="http://www.w3.org/1999/xlink" x="0px" y="0px"
	 width="65px" height="130.75px" viewBox="0 0 65 130.75" enable-background="new 0 0 65 130.75" xml:space="preserve">
<g>
	<g>
		<path fill="#0170AC" d="M32.578,62.96c-16.499,0-29.922-13.423-29.922-29.923c0-16.498,13.423-29.92,29.922-29.92
			S62.5,16.539,62.5,33.037C62.5,49.537,49.077,62.96,32.578,62.96z M32.578,4.051C16.595,4.051,3.59,17.054,3.59,33.037
			c0,15.985,13.004,28.989,28.988,28.989c15.984,0,28.988-13.004,28.988-28.989C61.566,17.054,48.562,4.051,32.578,4.051z"/>
	</g>
	<g>
		<defs>
			<path id="SVGID_1_" d="M32.423,3.271C15.924,3.271,2.5,16.694,2.5,33.192c0,16.5,13.424,29.923,29.923,29.923
				s29.922-13.423,29.922-29.923C62.344,16.694,48.922,3.271,32.423,3.271z"/>
		</defs>
		<clipPath id="SVGID_2_">
			<use xlink:href="#SVGID_1_"  overflow="visible"/>
		</clipPath>
		<path opacity="0.2" clip-path="url(#SVGID_2_)" fill-rule="evenodd" clip-rule="evenodd" fill="#0170AC" d="M54.693,65.01
			c-0.146-1.548-0.297-3.095-0.464-4.64c-0.275-2.552-0.486-5.11-1.398-7.554c-0.78-2.093-2.018-3.786-3.895-5.002
			c-1.565-1.014-3.304-1.564-5.107-1.959c-0.987-0.217-1.752-0.723-2.107-1.741c-0.386-1.11-0.404-1.142-1.564-1.095
			c-0.542,0.022-0.695-0.218-0.752-0.664c-0.127-1.009-0.278-2.014-0.378-3.026c-0.026-0.265,0.039-0.582,0.171-0.813
			c0.806-1.409,1.361-2.885,1.284-4.537c-0.002-0.033,0-0.062,0.003-0.092c0.099-0.155,0.271-0.282,0.398-0.425
			c0.074-0.082,0.156-0.162,0.236-0.242c0.27-0.163,0.555-0.365,0.628-0.606c0.369-1.217,0.666-2.458,0.922-3.706
			c0.075-0.365,0.065-0.886-0.143-1.147c-0.7-0.877-0.641-1.867-0.566-2.854c0.057-0.748,0.084-1.581,0.432-2.203
			c0.407-0.727,0.363-1.381,0.157-2.052c-0.305-0.988-0.636-1.985-1.106-2.901c-1.183-2.302-3.055-3.829-5.59-4.395
			c-0.465-0.105-0.945-0.133-1.429-0.148c-0.58-0.132-1.206-0.162-1.878-0.1c-0.682-0.062-1.318-0.031-1.907,0.102
			c-0.461,0.015-0.918,0.045-1.361,0.146c-2.506,0.566-4.358,2.094-5.528,4.395c-0.465,0.916-0.792,1.913-1.093,2.901
			c-0.204,0.67-0.248,1.325,0.155,2.052c0.344,0.622,0.371,1.455,0.427,2.203c0.073,0.987,0.132,1.978-0.56,2.854
			c-0.204,0.261-0.214,0.782-0.14,1.147c0.14,0.698,0.297,1.394,0.469,2.085c0,0.125,0.002,0.251,0.004,0.376
			c0.01,0.41,0.226,0.825,0.429,1.221c0.003,0.008,0.005,0.016,0.007,0.024c0.019,0.062,0.052,0.119,0.095,0.176
			c0.006,0.011,0.011,0.022,0.016,0.034c0.12,0.244,0.365,0.428,0.554,0.638c0.155,0.174,0.377,0.322,0.456,0.524
			c0.042,0.108,0.082,0.214,0.123,0.321c0.006,1.52,0.533,2.894,1.276,4.209c0.13,0.231,0.195,0.547,0.17,0.813
			c-0.098,1.012-0.247,2.017-0.374,3.026c-0.056,0.446-0.207,0.686-0.743,0.664c-1.147-0.047-1.164-0.016-1.546,1.095
			c-0.35,1.018-1.107,1.524-2.083,1.741c-1.784,0.395-3.503,0.946-5.05,1.959c-1.857,1.216-3.08,2.909-3.853,5.002
			c-0.902,2.444-1.109,5.002-1.382,7.554c-0.165,1.545-0.314,3.092-0.459,4.64c-0.028,0.293-0.005,0.592-0.005,0.956
			c0.236,0.012,0.466,0.034,0.696,0.034C16.34,66,21.343,65.999,26.345,66c0.053,0,0.11,0,0.173,0c2.01,0,4.018,0,6.027,0
			c1.986,0,3.972,0,5.959,0c0.062,0,0.118,0,0.17,0c5.107-0.001,10.214,0,15.32-0.001c0.232,0,0.465-0.022,0.703-0.034
			C54.697,65.602,54.722,65.302,54.693,65.01z"/>
	</g>
</g>
<g>
	<g>
		<path fill="#0170AC" d="M32.629,127.935c-16.452,0-29.837-13.385-29.837-29.838c0-16.451,13.385-29.835,29.837-29.835
			s29.837,13.384,29.837,29.835C62.466,114.55,49.081,127.935,32.629,127.935z M32.629,69.193
			c-15.938,0-28.906,12.967-28.906,28.904c0,15.939,12.967,28.907,28.906,28.907c15.938,0,28.905-12.967,28.905-28.907
			C61.534,82.16,48.568,69.193,32.629,69.193z"/>
	</g>
	<g>
		<defs>
			<path id="SVGID_3_" d="M32.955,67.51c-16.452,0-29.837,13.384-29.837,29.835c0,16.453,13.385,29.838,29.837,29.838
				s29.837-13.385,29.837-29.838C62.792,80.894,49.407,67.51,32.955,67.51z"/>
		</defs>
		<clipPath id="SVGID_4_">
			<use xlink:href="#SVGID_3_"  overflow="visible"/>
		</clipPath>
		<path opacity="0.2" clip-path="url(#SVGID_4_)" fill-rule="evenodd" clip-rule="evenodd" fill="#0170AC" d="M27.133,103.084
			c-0.887-0.095-1.836-0.195-2.863-0.303c0.148-0.277,0.265-0.496,0.407-0.761c-1.302-0.469-2.575-0.929-3.905-1.408
			c0.121-0.148,0.185-0.246,0.268-0.321c1.148-1.043,1.38-2.149,0.927-3.648c-0.398-1.318-0.794-2.659-0.97-4.018
			c-0.332-2.57,0.262-5.037,1.263-7.391c0.668-1.567,1.374-3.135,2.255-4.586c0.94-1.547,2.367-2.538,4.257-2.697
			c0.873-0.073,1.685-0.278,2.375-0.891c0.619-0.549,1.421-0.52,2.183-0.449c2.345,0.221,4.599,0.783,6.255,2.576
			c0.844,0.914,1.499,2.028,2.107,3.126c1.113,2.007,2.063,4.111,2.361,6.403c0.159,1.213,0.051,2.482-0.092,3.709
			c-0.16,1.367-0.498,2.714-0.756,4.07c-0.275,1.452-0.356,2.856,1.136,3.936c-1.344,0.568-2.566,1.083-3.821,1.614
			c0.151,0.234,0.274,0.426,0.458,0.713c-1.137,0.075-2.186,0.142-3.316,0.216c-0.117,0.85,0.105,1.658,0.313,2.461
			c0.702,2.714,2.482,4.247,5.167,4.985c1.609,0.443,3.145,1.187,4.666,1.896c0.494,0.23,0.895,0.736,1.243,1.188
			c1.678,2.175,2.606,4.683,3.146,7.351c0.397,1.964,0.819,3.924,1.168,5.897c0.142,0.804,0.12,1.636,0.172,2.457
			c0.021,0.33-0.133,0.482-0.463,0.47c-0.16-0.005-0.321,0-0.481,0c-13.357,0.001-26.713,0.001-40.069,0.001
			c-0.255,0-0.51,0-0.845,0c0.049-0.688,0.08-1.283,0.134-1.874c0.287-3.095,0.457-6.213,1.393-9.204
			c0.406-1.297,0.914-2.568,1.465-3.812c0.78-1.762,2.194-2.874,4.015-3.382c2.242-0.626,4.325-1.586,6.362-2.683
			c1.267-0.683,1.907-1.726,1.971-3.145C27.056,104.76,27.094,103.942,27.133,103.084z"/>
	</g>
</g>
</svg>
