<?xml version="1.0" encoding="utf-8"?>
<!-- Generator: Adobe Illustrator 17.0.0, SVG Export Plug-In . SVG Version: 6.00 Build 0)  -->
<!DOCTYPE svg PUBLIC "-//W3C//DTD SVG 1.1//EN" "http://www.w3.org/Graphics/SVG/1.1/DTD/svg11.dtd">
<svg version="1.1" id="Layer_1" xmlns="http://www.w3.org/2000/svg" xmlns:xlink="http://www.w3.org/1999/xlink" x="0px" y="0px"
	 width="190px" height="90px" viewBox="0 -15 190 90" enable-background="new 0 -15 190 90" xml:space="preserve">
<g>
	<g>
		<path fill="#111213" d="M184.898-4.329c-0.873-0.336-1.865-0.393-2.748-0.035c-0.877,0.346-1.572,1.094-1.873,1.975
			c-0.313,0.867-0.234,1.908,0.348,2.652c0.555,0.752,1.529,1.158,2.441,1.006c0.922-0.141,1.664-0.978,1.705-1.896
			c0.092-0.922-0.717-1.807-1.637-1.768c0.924-0.014,1.684,0.873,1.574,1.764c-0.063,0.889-0.797,1.664-1.66,1.777
			c-0.867,0.123-1.775-0.283-2.27-0.992c-0.525-0.697-0.568-1.656-0.264-2.459c0.297-0.807,0.949-1.475,1.75-1.768
			c0.787-0.303,1.709-0.23,2.492,0.094c1.607,0.646,2.574,2.436,2.244,4.127c-0.23,1.691-1.486,3.172-3.084,3.697
			c-0.789,0.307-1.629,0.246-2.547,0.238l-13.426-0.156h-65.402l-6.537-6.539l-6.541,6.539H22.275L11.531,4.054L8.847,4.083
			c-0.92,0.008-1.76,0.068-2.549-0.238C4.702,3.32,3.445,1.839,3.214,0.148C2.89-1.543,3.851-3.332,5.462-3.979
			c0.78-0.325,1.708-0.397,2.493-0.094C8.756-3.78,9.41-3.112,9.703-2.306c0.307,0.803,0.262,1.762-0.262,2.459
			c-0.496,0.709-1.4,1.115-2.269,0.992c-0.867-0.113-1.6-0.889-1.66-1.777c-0.108-0.89,0.646-1.777,1.572-1.763
			C6.162-2.435,5.357-1.55,5.449-0.628C5.486,0.29,6.228,1.128,7.156,1.269c0.908,0.152,1.883-0.254,2.435-1.006
			c0.584-0.744,0.66-1.785,0.35-2.652c-0.3-0.881-0.992-1.63-1.871-1.975C7.184-4.722,6.195-4.665,5.318-4.329
			c-1.781,0.643-2.924,2.674-2.6,4.547c0.213,1.883,1.57,3.576,3.369,4.221c0.898,0.367,1.9,0.324,2.76,0.334l2.684,0.033
			l10.744,0.125H89.88l6.125-6.121l6.121,6.121h65.818l13.426-0.158c0.859-0.01,1.863,0.033,2.758-0.334
			c1.805-0.645,3.16-2.338,3.371-4.221C187.826-1.655,186.684-3.686,184.898-4.329z M96.006,2.103V2.101V2.103
			c0,0-0.004-0.002-0.008-0.002v0.002c-0.775,0.004-1.404,0.635-1.404,1.412c0,0.779,0.629,1.412,1.404,1.416l0,0
			c0.004,0,0.004,0,0.004,0h0.004l0,0c0.783-0.004,1.412-0.637,1.412-1.416C97.418,2.737,96.789,2.106,96.006,2.103z"/>
	</g>
</g>
<g opacity="0.3">
	<g>
		<path fill="#727A7D" d="M5.086,35.414c0.873,0.336,1.864,0.393,2.748,0.035c0.877-0.346,1.572-1.092,1.873-1.975
			c0.312-0.867,0.234-1.908-0.349-2.652c-0.554-0.752-1.528-1.158-2.44-1.004c-0.923,0.139-1.664,0.977-1.706,1.895
			c-0.091,0.922,0.717,1.807,1.637,1.768c-0.923,0.016-1.683-0.873-1.573-1.764c0.063-0.889,0.796-1.664,1.66-1.775
			c0.866-0.123,1.775,0.283,2.27,0.992c0.524,0.695,0.568,1.654,0.264,2.457c-0.297,0.807-0.95,1.475-1.75,1.769
			c-0.787,0.301-1.71,0.23-2.493-0.094c-1.607-0.648-2.573-2.437-2.244-4.129c0.232-1.691,1.486-3.172,3.084-3.695
			c0.789-0.309,1.629-0.248,2.547-0.24l13.427,0.156h65.402l6.537,6.541l6.54-6.541h67.19l10.743-0.125l2.685-0.031
			c0.92-0.008,1.759-0.068,2.548,0.24c1.596,0.523,2.854,2.004,3.084,3.695c0.325,1.691-0.637,3.48-2.247,4.129
			c-0.779,0.324-1.707,0.395-2.493,0.094c-0.801-0.295-1.455-0.963-1.747-1.769c-0.308-0.803-0.263-1.762,0.262-2.457
			c0.496-0.709,1.4-1.115,2.268-0.992c0.867,0.111,1.601,0.887,1.661,1.775c0.107,0.891-0.647,1.779-1.573,1.764
			c0.923,0.039,1.727-0.846,1.636-1.768c-0.038-0.918-0.779-1.756-1.707-1.895c-0.909-0.154-1.884,0.252-2.437,1.004
			c-0.583,0.744-0.659,1.785-0.349,2.652c0.3,0.883,0.992,1.629,1.87,1.975c0.888,0.357,1.876,0.301,2.752-0.035
			c1.782-0.643,2.925-2.672,2.601-4.547c-0.214-1.881-1.57-3.576-3.37-4.219c-0.898-0.367-1.899-0.324-2.759-0.336l-2.685-0.031
			l-10.743-0.125h-67.606l-6.125,6.119l-6.121-6.119H22.039L8.612,26.312c-0.859,0.012-1.862-0.031-2.758,0.336
			c-1.804,0.643-3.159,2.338-3.37,4.219C2.157,32.742,3.3,34.771,5.086,35.414z M93.978,28.982v0.004V28.982
			c0,0,0.003,0.004,0.008,0.004v-0.004c0.775-0.002,1.404-0.635,1.404-1.412c0-0.779-0.629-1.412-1.404-1.414l0,0
			c-0.005,0-0.005,0-0.005,0h-0.003l0,0c-0.783,0.002-1.412,0.635-1.412,1.414C92.566,28.348,93.195,28.98,93.978,28.982z"/>
	</g>
</g>
<g>
	<g>
		<path fill="#006FAB" d="M293.75-397.439c-0.703-0.271-1.502-0.316-2.213-0.029c-0.706,0.279-1.266,0.881-1.508,1.592
			c-0.251,0.697-0.189,1.535,0.281,2.135c0.446,0.605,1.231,0.934,1.965,0.811c0.743-0.113,1.34-0.789,1.374-1.527
			c0.073-0.742-0.577-1.455-1.318-1.424c0.743-0.012,1.355,0.703,1.267,1.42c-0.05,0.717-0.641,1.342-1.337,1.432
			c-0.698,0.1-1.43-0.228-1.828-0.799c-0.422-0.561-0.457-1.334-0.212-1.98c0.239-0.648,0.765-1.188,1.41-1.424
			c0.634-0.242,1.377-0.186,2.007,0.076c1.294,0.521,2.072,1.961,1.807,3.324c-0.186,1.361-1.197,2.553-2.483,2.977
			c-0.635,0.248-1.311,0.199-2.051,0.191l-10.813-0.125H162.791l-8.651,0.102l-2.162,0.023c-0.741,0.008-1.416,0.057-2.052-0.191
			c-1.285-0.424-2.298-1.615-2.483-2.977c-0.262-1.363,0.513-2.803,1.81-3.324c0.627-0.262,1.374-0.318,2.008-0.076
			c0.644,0.236,1.172,0.775,1.407,1.424c0.248,0.647,0.211,1.42-0.211,1.98c-0.399,0.57-1.127,0.898-1.827,0.799
			c-0.698-0.09-1.289-0.715-1.338-1.432c-0.086-0.717,0.521-1.432,1.267-1.42c-0.743-0.031-1.39,0.682-1.317,1.424
			c0.031,0.738,0.628,1.414,1.375,1.527c0.732,0.123,1.517-0.205,1.962-0.811c0.47-0.6,0.531-1.438,0.281-2.135
			c-0.241-0.711-0.799-1.313-1.506-1.592c-0.715-0.287-1.511-0.242-2.216,0.029c-1.435,0.518-2.355,2.152-2.094,3.662
			c0.172,1.516,1.265,2.879,2.714,3.398c0.724,0.295,1.53,0.26,2.222,0.27l2.162,0.025l8.651,0.1H280.1l10.813-0.125
			c0.692-0.01,1.5,0.025,2.221-0.27c1.453-0.52,2.544-1.883,2.714-3.398C296.108-395.286,295.188-396.921,293.75-397.439z"/>
	</g>
</g>
<text transform="matrix(1 0 0 1 -104 451.2964)" fill="#1C1C1B" font-family="'Georgia'" font-size="28">756</text>
<g>
	<g>
		<path fill="#006FAB" d="M293.75-397.439c-0.703-0.271-1.502-0.316-2.213-0.029c-0.706,0.279-1.266,0.881-1.508,1.592
			c-0.251,0.697-0.189,1.535,0.281,2.135c0.446,0.605,1.231,0.934,1.965,0.811c0.743-0.113,1.34-0.789,1.374-1.527
			c0.073-0.742-0.577-1.455-1.318-1.424c0.743-0.012,1.355,0.703,1.267,1.42c-0.05,0.717-0.641,1.342-1.337,1.432
			c-0.698,0.1-1.43-0.228-1.828-0.799c-0.422-0.561-0.457-1.334-0.212-1.98c0.239-0.648,0.765-1.188,1.41-1.424
			c0.634-0.242,1.377-0.186,2.007,0.076c1.294,0.521,2.072,1.961,1.807,3.324c-0.186,1.361-1.197,2.553-2.483,2.977
			c-0.635,0.248-1.311,0.199-2.051,0.191l-10.813-0.125H162.791l-8.651,0.102l-2.162,0.023c-0.741,0.008-1.416,0.057-2.052-0.191
			c-1.285-0.424-2.298-1.615-2.483-2.977c-0.262-1.363,0.513-2.803,1.81-3.324c0.627-0.262,1.374-0.318,2.008-0.076
			c0.644,0.236,1.172,0.775,1.407,1.424c0.248,0.647,0.211,1.42-0.211,1.98c-0.399,0.57-1.127,0.898-1.827,0.799
			c-0.698-0.09-1.289-0.715-1.338-1.432c-0.086-0.717,0.521-1.432,1.267-1.42c-0.743-0.031-1.39,0.682-1.317,1.424
			c0.031,0.738,0.628,1.414,1.375,1.527c0.732,0.123,1.517-0.205,1.962-0.811c0.47-0.6,0.531-1.438,0.281-2.135
			c-0.241-0.711-0.799-1.313-1.506-1.592c-0.715-0.287-1.511-0.242-2.216,0.029c-1.435,0.518-2.355,2.152-2.094,3.662
			c0.172,1.516,1.265,2.879,2.714,3.398c0.724,0.295,1.53,0.26,2.222,0.27l2.162,0.025l8.651,0.1H280.1l10.813-0.125
			c0.692-0.01,1.5,0.025,2.221-0.27c1.453-0.52,2.544-1.883,2.714-3.398C296.108-395.286,295.188-396.921,293.75-397.439z"/>
	</g>
</g>
<text transform="matrix(1 0 0 1 -104 451.2964)" fill="#1C1C1B" font-family="'Georgia'" font-size="28">756</text>
<g>
	<g>
		<path fill="#006FAB" d="M185.285,54.561c-0.874-0.271-1.866-0.316-2.75-0.029c-0.877,0.279-1.573,0.881-1.874,1.592
			c-0.312,0.697-0.234,1.535,0.349,2.135c0.554,0.605,1.529,0.934,2.442,0.81c0.923-0.113,1.665-0.789,1.707-1.527
			c0.091-0.742-0.717-1.455-1.638-1.424c0.923-0.012,1.684,0.703,1.574,1.42c-0.063,0.717-0.797,1.342-1.661,1.432
			c-0.867,0.1-1.776-0.229-2.271-0.799c-0.525-0.561-0.568-1.334-0.264-1.98c0.297-0.648,0.951-1.188,1.752-1.424
			c0.788-0.242,1.711-0.186,2.494,0.076c1.608,0.521,2.575,1.961,2.245,3.324c-0.231,1.361-1.487,2.553-3.086,2.977
			c-0.789,0.248-1.63,0.199-2.548,0.191l-13.435-0.125H22.567l-10.749,0.102l-2.686,0.023c-0.92,0.008-1.759,0.057-2.549-0.191
			c-1.597-0.424-2.855-1.615-3.086-2.977c-0.325-1.363,0.637-2.803,2.248-3.324c0.78-0.262,1.708-0.318,2.495-0.076
			c0.801,0.236,1.456,0.775,1.748,1.424c0.308,0.646,0.263,1.42-0.262,1.98c-0.496,0.57-1.401,0.898-2.27,0.799
			c-0.868-0.09-1.602-0.715-1.662-1.432c-0.107-0.717,0.648-1.432,1.574-1.42C6.444,56.087,5.64,56.8,5.731,57.542
			c0.038,0.738,0.78,1.414,1.708,1.527c0.91,0.123,1.884-0.205,2.438-0.81c0.584-0.6,0.66-1.438,0.349-2.135
			c-0.3-0.711-0.993-1.313-1.871-1.592c-0.888-0.287-1.877-0.242-2.754,0.029c-1.783,0.518-2.927,2.152-2.602,3.662
			c0.214,1.516,1.571,2.879,3.372,3.399c0.899,0.295,1.901,0.26,2.76,0.27l2.686,0.025l10.749,0.1h145.755l13.435-0.125
			c0.86-0.01,1.863,0.025,2.759-0.27c1.805-0.52,3.161-1.883,3.372-3.399C188.215,56.714,187.072,55.079,185.285,54.561z"/>
	</g>
</g>
</svg>
