<?xml version="1.0" encoding="utf-8"?>
<!-- Generator: Adobe Illustrator 16.0.4, SVG Export Plug-In . SVG Version: 6.00 Build 0)  -->
<!DOCTYPE svg PUBLIC "-//W3C//DTD SVG 1.1//EN" "http://www.w3.org/Graphics/SVG/1.1/DTD/svg11.dtd">
<svg version="1.1" id="Layer_1" xmlns="http://www.w3.org/2000/svg" xmlns:xlink="http://www.w3.org/1999/xlink" x="0px" y="0px"
	 width="50.75px" height="220px" viewBox="0 0 50.75 220" enable-background="new 0 0 50.75 220" xml:space="preserve">
<path fill="#006FAB" d="M21.156,23.575h-0.008c0.086-0.371,0.016-0.743-0.174-1.042c-0.052-0.088-0.119-0.168-0.193-0.242
	l-3.104-3.833c-0.184-0.3-0.481-0.529-0.856-0.615c-0.301-0.072-0.604-0.031-0.866,0.087l-1.31,0.819l-0.002-0.002
	c-0.205,0.145-0.47,0.208-0.733,0.146c-0.302-0.071-0.534-0.284-0.644-0.552c-0.007,0.007-0.019,0.013-0.025,0.022
	c-1.213-1.404-2.213-2.985-2.93-4.697c0.012-0.004,0.021-0.011,0.034-0.015c-0.194-0.218-0.287-0.523-0.214-0.83
	c0.063-0.274,0.244-0.487,0.476-0.607v-0.002l1.296-0.799c0.224-0.183,0.394-0.436,0.464-0.74c0.086-0.371,0.016-0.742-0.174-1.042
	l-2.063-4.479c-0.033-0.099-0.076-0.193-0.128-0.281C9.813,4.57,9.512,4.342,9.141,4.255C7.352,3.836,4.622,5.418,4.018,8.013
	c-0.168,0.72-0.162,1.438-0.015,2.115l-0.019,0.011c1.439,5.994,4.873,11.516,9.612,15.463l0.016-0.011
	c0.543,0.432,1.182,0.756,1.902,0.925c2.596,0.606,5.223-1.141,5.643-2.933C21.156,23.581,21.156,23.579,21.156,23.575
	 M15.723,25.62c-0.562-0.131-1.08-0.383-1.537-0.748c-0.045-0.035-0.088-0.063-0.139-0.089c-4.482-3.785-7.715-8.987-9.124-14.682
	C4.92,10.045,4.912,9.99,4.899,9.934c-0.124-0.575-0.118-1.15,0.013-1.712C5.42,6.051,7.699,4.862,8.934,5.15
	c0.16,0.038,0.248,0.145,0.287,0.205c0.008,0.014,0.023,0.042,0.041,0.096c0.01,0.028,0.022,0.058,0.035,0.085l2.063,4.479
	c0.017,0.034,0.035,0.068,0.055,0.101c0.038,0.06,0.096,0.187,0.058,0.347c-0.017,0.08-0.058,0.148-0.119,0.208l-1.227,0.758
	c-0.004,0.004-0.012,0.006-0.018,0.01c-0.44,0.255-0.756,0.679-0.871,1.173c-0.109,0.461-0.033,0.945,0.201,1.349
	c0.008,0.02,0.016,0.04,0.025,0.059c0.746,1.779,1.781,3.441,3.082,4.944c0.012,0.011,0.021,0.022,0.031,0.034
	c0.26,0.395,0.657,0.681,1.123,0.79c0.467,0.109,0.965,0.027,1.375-0.224c0.021-0.011,0.039-0.021,0.062-0.035l1.237-0.776
	c0.084-0.026,0.161-0.032,0.242-0.014c0.157,0.038,0.245,0.145,0.284,0.205c0.021,0.032,0.043,0.064,0.065,0.094l3.101,3.833
	c0.02,0.024,0.043,0.048,0.064,0.07c0.041,0.042,0.059,0.065,0.066,0.078c0.037,0.06,0.096,0.187,0.059,0.348
	c-0.008,0.03-0.014,0.06-0.018,0.092C19.879,24.673,17.844,26.115,15.723,25.62"/>
<path fill="#006FAB" d="M21.866,31.5H3.578c-1.122,0-2.032,0.91-2.032,2.031v12.193c0,1.121,0.91,2.031,2.032,2.031h18.288
	c1.122,0,2.032-0.91,2.032-2.031V33.531C23.898,32.41,22.988,31.5,21.866,31.5 M3.578,32.516h18.288
	c0.118,0,0.231,0.025,0.339,0.063l-8.795,8.795c-0.184,0.184-0.428,0.285-0.689,0.285c-0.26,0-0.504-0.101-0.689-0.285l-8.793-8.795
	C3.346,32.541,3.459,32.516,3.578,32.516 M2.562,45.725V33.531c0-0.062,0.008-0.117,0.018-0.176l6.273,6.271L2.579,45.9
	C2.569,45.844,2.562,45.785,2.562,45.725 M21.866,46.74H3.578c-0.119,0-0.232-0.025-0.339-0.063l6.331-6.332l1.745,1.746
	c0.389,0.389,0.898,0.582,1.406,0.582c0.509,0,1.019-0.193,1.406-0.582l1.745-1.746l6.333,6.332
	C22.1,46.715,21.984,46.74,21.866,46.74 M22.882,45.725c0,0.061-0.008,0.119-0.017,0.176l-6.272-6.273l6.272-6.271
	c0.01,0.059,0.017,0.115,0.017,0.176V45.725z"/>
<g>
	<circle fill="#30A4DC" cx="12.5" cy="63.188" r="11.5"/>
	<path fill="#FFFFFF" d="M18.924,64.791c-0.041-0.094-0.058-0.181-0.037-0.286c0.154-0.763,0.159-1.528,0.033-2.298
		c-0.559-3.389-3.752-5.767-7.146-5.308c-0.199,0.028-0.364-0.004-0.542-0.099c-1.435-0.765-3.189-0.503-4.356,0.643
		c-1.148,1.128-1.438,2.892-0.701,4.327c0.077,0.151,0.101,0.287,0.066,0.455c-0.071,0.345-0.077,0.697-0.093,1.063
		c0.012,0.206,0.016,0.428,0.039,0.647c0.384,3.675,3.749,6.251,7.413,5.678c0.112-0.017,0.207,0.002,0.307,0.052
		c0.693,0.348,1.436,0.435,2.186,0.315C18.541,69.59,19.907,67.072,18.924,64.791z M15.73,66.503
		c-0.412,0.468-0.93,0.768-1.519,0.938c-1.103,0.317-2.219,0.328-3.317-0.004c-1.001-0.3-1.738-0.92-2.031-1.959
		c-0.208-0.735,0.266-1.286,1.001-1.2c0.317,0.037,0.525,0.228,0.674,0.492c0.093,0.166,0.171,0.341,0.254,0.512
		c0.273,0.558,0.711,0.875,1.335,0.944c0.51,0.055,1.004,0.02,1.476-0.195c0.184-0.081,0.346-0.195,0.478-0.348
		c0.353-0.407,0.289-0.986-0.146-1.307c-0.418-0.31-0.922-0.393-1.411-0.503c-0.7-0.155-1.402-0.304-2.06-0.597
		c-0.681-0.302-1.233-0.743-1.412-1.513c-0.206-0.894,0.041-1.648,0.756-2.226c0.63-0.511,1.39-0.676,2.175-0.745
		c0.182-0.017,0.366-0.002,0.549-0.002c0.724-0.02,1.431,0.076,2.086,0.409c0.501,0.256,0.916,0.605,1.156,1.128
		c0.119,0.256,0.175,0.531,0.1,0.803c-0.093,0.33-0.318,0.562-0.661,0.63c-0.356,0.074-0.688,0.017-0.912-0.315
		c-0.106-0.157-0.21-0.317-0.306-0.483c-0.307-0.52-0.743-0.811-1.364-0.809c-0.283,0.002-0.564-0.007-0.841,0.059
		c-0.249,0.061-0.476,0.164-0.666,0.339c-0.336,0.313-0.323,0.743,0.036,1.028c0.237,0.188,0.517,0.293,0.806,0.367
		c0.679,0.173,1.362,0.334,2.04,0.51c0.369,0.098,0.722,0.241,1.063,0.415C16.661,63.669,16.548,65.572,15.73,66.503z"/>
</g>
<path fill="#FFFFFF" d="M17.316,88.344c0.109,0.146,0.228,0.288,0.347,0.422c0.563,0.629,1.147,1.228,1.59,1.982
	c0.093,0.154,0.174,0.32,0.235,0.493c0.115,0.325,0.006,0.616-0.28,0.736c-0.16,0.065-0.337,0.093-0.507,0.119
	c-0.127,0.02-0.258,0.005-0.389,0.007h-0.371v0.031c-0.346,0-0.694-0.002-1.043,0c-0.444,0.002-0.832-0.182-1.144-0.529
	c-0.345-0.387-0.664-0.812-0.997-1.213c-0.101-0.123-0.208-0.239-0.324-0.341c-0.267-0.236-0.533-0.187-0.66,0.171
	c-0.112,0.316-0.146,0.669-0.211,1.008c-0.006,0.036-0.002,0.076-0.002,0.115c-0.004,0.463-0.194,0.724-0.595,0.748
	c-1.044,0.068-2.056-0.069-2.999-0.653c-0.801-0.493-1.437-1.193-1.99-2.007c-0.923-1.361-1.641-2.862-2.302-4.406
	c-0.178-0.419-0.344-0.845-0.517-1.266l-0.032-0.087c-0.151-0.425-0.026-0.667,0.368-0.708c0.101-0.01,0.204-0.004,0.305-0.005
	c0.545-0.009,1.091-0.014,1.635-0.024c0.385-0.007,0.646,0.169,0.795,0.599c0.378,1.1,0.87,2.133,1.49,3.081
	c0.113,0.172,0.25,0.334,0.4,0.468c0.195,0.173,0.365,0.113,0.451-0.157c0.059-0.192,0.097-0.397,0.116-0.602
	c0.066-0.757,0.069-1.513-0.039-2.266c-0.062-0.416-0.285-0.644-0.636-0.726c-0.205-0.047-0.229-0.139-0.091-0.324
	c0.185-0.25,0.431-0.363,0.706-0.405c0.729-0.112,1.459-0.123,2.183-0.012c0.669,0.101,0.755,0.39,0.777,1.115
	c0.014,0.481-0.025,0.96-0.029,1.44c-0.005,0.467-0.01,0.933,0.01,1.398c0.004,0.154,0.06,0.319,0.125,0.455
	c0.09,0.179,0.218,0.207,0.355,0.076c0.171-0.166,0.335-0.348,0.471-0.549c0.615-0.928,1.096-1.944,1.465-3.03
	c0.151-0.45,0.26-0.53,0.681-0.532c0.735,0,1.472-0.007,2.208-0.005c0.134,0,0.273,0.012,0.4,0.056
	c0.213,0.072,0.319,0.278,0.242,0.515c-0.125,0.385-0.246,0.785-0.443,1.121c-0.486,0.84-1.018,1.645-1.53,2.467
	c-0.101,0.163-0.194,0.332-0.282,0.506C17.128,87.878,17.154,88.123,17.316,88.344z"/>
<circle fill="none" stroke="#FFFFFF" stroke-width="1.2222" stroke-miterlimit="10" cx="12.5" cy="87.5" r="11.5"/>
<path fill="#FFFFFF" d="M17.282,119.146h0.004l-0.993-7.449h-0.005c-0.017-0.121-0.116-0.217-0.242-0.217h-1.737v-0.992
	c0-1.097-0.89-1.986-1.987-1.986c-1.097,0-1.986,0.889-1.986,1.986v0.992H8.597c-0.125,0-0.226,0.096-0.242,0.217H8.35l-0.993,7.449
	h0.005c-0.002,0.012-0.007,0.021-0.007,0.033c0,0.137,0.111,0.247,0.248,0.247h9.435c0.137,0,0.248-0.11,0.248-0.247
	C17.288,119.168,17.283,119.158,17.282,119.146 M10.832,110.489c0-0.823,0.668-1.49,1.49-1.49c0.823,0,1.491,0.667,1.491,1.49v0.993
	h-2.98V110.489z M8.815,111.979h1.521v1.062c-0.148,0.086-0.248,0.244-0.248,0.428c0,0.274,0.222,0.497,0.497,0.497
	c0.274,0,0.497-0.223,0.497-0.497c0-0.183-0.1-0.342-0.249-0.428v-1.062h2.979v1.062c-0.147,0.086-0.248,0.244-0.248,0.428
	c0,0.274,0.222,0.497,0.496,0.497s0.498-0.223,0.498-0.497c0-0.183-0.101-0.342-0.248-0.428v-1.062h1.521l0.794,5.959H8.02
	L8.815,111.979z M7.888,118.932l0.066-0.496h8.735l0.066,0.496H7.888z"/>
<g>
	<g>
		<g>
			<path fill="#006EAA" d="M23.062,134.326h-4.972l1.896-4.457L23.062,134.326z M19.134,129.312l-1.963,4.613l-3.08-4.613H19.134z
				 M16.236,134.326h-5.989l2.789-4.776L16.236,134.326z M12.008,129.312l-2.617,4.494l-2.442-4.494H12.008z M6.075,129.799
				l2.461,4.527H2.957L6.075,129.799z M2.957,135.333h6.028l3.977,21.331L2.957,135.333z M10.013,135.333h6.637l-3.719,21.362
				L10.013,135.333z M12.901,156.713l4.791-21.379h5.363L12.901,156.713z"/>
		</g>
	</g>
	<path fill="#ADBBC0" d="M2.796,135.331h2.526l6.651,18.218c0.41,1.227,0.921,3.07,0.921,3.07h0.069c0,0,0.479-1.844,0.922-3.07
		l6.652-18.218h2.523l-8.869,23.981h-2.524L2.796,135.331z"/>
</g>
<g opacity="0.2">
	<circle fill="none" stroke="#006EAA" stroke-width="0.4769" stroke-miterlimit="10" cx="12.722" cy="176.223" r="11.5"/>
</g>
<polyline opacity="0.2" fill="none" stroke="#006EAA" stroke-width="1.1677" stroke-linecap="round" stroke-linejoin="round" stroke-miterlimit="10" enable-background="new    " points="
	6.921,177.159 11.073,180.85 18.456,172.083 "/>
<g opacity="0.2">
	<circle fill="none" stroke="#006EAA" stroke-width="0.4769" stroke-miterlimit="10" cx="12.887" cy="205.549" r="11.5"/>
	<g>
		<path fill="#006EAA" d="M12.916,210.262c-0.058,0-0.116-0.021-0.161-0.066c-0.089-0.086-0.089-0.229,0-0.319l0.076-0.075
			c1.489-1.49,2.979-2.982,4.479-4.464c0.131-0.153,0.258-0.343,0.363-0.555c0.143-0.308,0.219-0.661,0.219-1.04
			c0-0.688-0.234-1.256-0.717-1.738s-1.05-0.715-1.736-0.715c-0.688,0-1.258,0.232-1.738,0.715
			c-0.256,0.256-0.447,0.541-0.566,0.848c-0.033,0.084-0.115,0.144-0.206,0.144c-0.096,0-0.176-0.05-0.214-0.136
			c-0.141-0.322-0.332-0.601-0.584-0.854c-0.482-0.481-1.051-0.715-1.738-0.715s-1.255,0.233-1.738,0.715
			c-0.488,0.487-0.726,1.056-0.726,1.738c0,0.381,0.078,0.733,0.228,1.042c0.095,0.205,0.217,0.395,0.367,0.566
			c0.082,0.094,0.072,0.238-0.022,0.32c-0.095,0.082-0.239,0.073-0.32-0.021c-0.178-0.204-0.324-0.43-0.435-0.67
			c-0.178-0.369-0.27-0.782-0.27-1.236c0-0.797,0.289-1.489,0.857-2.059c0.564-0.564,1.256-0.849,2.059-0.849
			c0.803,0,1.495,0.285,2.059,0.849c0.179,0.18,0.335,0.377,0.466,0.586c0.125-0.207,0.28-0.403,0.463-0.586
			c0.562-0.564,1.256-0.849,2.059-0.849c0.802,0,1.494,0.285,2.058,0.849c0.563,0.562,0.849,1.258,0.849,2.059
			c0,0.443-0.089,0.861-0.262,1.236c-0.126,0.25-0.273,0.474-0.443,0.67c-1.51,1.494-2.998,2.982-4.488,4.472l-0.076,0.075
			C13.031,210.241,12.974,210.262,12.916,210.262z"/>
		<path fill="#006EAA" d="M12.916,210.551c-0.137,0-0.266-0.056-0.363-0.152c-0.201-0.2-0.201-0.524,0-0.725l0.075-0.078
			c1.491-1.49,2.981-2.981,4.481-4.462c0.103-0.122,0.216-0.294,0.309-0.481c0.123-0.267,0.188-0.574,0.188-0.91
			c0-0.607-0.207-1.11-0.631-1.536c-0.427-0.423-0.929-0.63-1.535-0.63c-0.607,0-1.11,0.207-1.535,0.63
			c-0.228,0.228-0.396,0.481-0.502,0.748c-0.074,0.194-0.258,0.325-0.466,0.327c-0.217,0-0.398-0.118-0.481-0.307
			c-0.128-0.289-0.3-0.541-0.526-0.769c-0.425-0.423-0.927-0.63-1.535-0.63c-0.607,0-1.109,0.207-1.534,0.63
			c-0.431,0.433-0.641,0.935-0.641,1.536c0,0.339,0.067,0.646,0.198,0.915c0.086,0.186,0.195,0.354,0.326,0.506
			c0.09,0.103,0.135,0.235,0.125,0.374c-0.01,0.136-0.072,0.261-0.176,0.35c-0.206,0.18-0.547,0.155-0.725-0.052
			c-0.195-0.224-0.356-0.474-0.478-0.735c-0.196-0.402-0.297-0.861-0.297-1.357c0-0.875,0.317-1.637,0.941-2.264
			c0.619-0.619,1.381-0.931,2.261-0.931c0.882,0,1.642,0.313,2.262,0.931c0.093,0.092,0.181,0.191,0.261,0.293
			c0.08-0.1,0.167-0.198,0.26-0.293c0.62-0.619,1.38-0.931,2.263-0.931c0.881,0,1.642,0.313,2.262,0.931
			c0.619,0.621,0.933,1.381,0.933,2.264c0,0.486-0.098,0.941-0.288,1.357c-0.14,0.277-0.303,0.524-0.488,0.735
			c-1.522,1.51-3.014,2.999-4.502,4.488l-0.074,0.075C13.182,210.495,13.053,210.551,12.916,210.551z"/>
	</g>
</g>
<path fill="#006FAB" d="M46.27,23.575h-0.008c0.086-0.371,0.016-0.743-0.174-1.042c-0.052-0.088-0.119-0.168-0.193-0.242
	l-3.104-3.833c-0.184-0.3-0.481-0.529-0.856-0.615c-0.301-0.072-0.604-0.031-0.866,0.087l-1.31,0.819l-0.002-0.002
	c-0.205,0.145-0.47,0.208-0.733,0.146c-0.302-0.071-0.534-0.284-0.644-0.552c-0.007,0.007-0.019,0.013-0.025,0.022
	c-1.213-1.404-2.213-2.985-2.93-4.697c0.012-0.004,0.021-0.011,0.033-0.015c-0.193-0.218-0.287-0.523-0.214-0.83
	c0.063-0.274,0.244-0.487,0.476-0.607v-0.002l1.297-0.799c0.224-0.183,0.394-0.436,0.464-0.74c0.086-0.371,0.016-0.742-0.175-1.042
	l-2.062-4.479c-0.033-0.099-0.076-0.193-0.128-0.281c-0.188-0.301-0.489-0.529-0.86-0.616c-1.789-0.419-4.519,1.163-5.123,3.758
	c-0.168,0.72-0.162,1.438-0.015,2.115l-0.019,0.011c1.438,5.994,4.873,11.516,9.611,15.463l0.016-0.011
	c0.543,0.432,1.182,0.756,1.902,0.925c2.596,0.606,5.223-1.141,5.643-2.933C46.27,23.581,46.27,23.579,46.27,23.575 M40.836,25.62
	c-0.562-0.131-1.08-0.383-1.537-0.748c-0.045-0.035-0.088-0.063-0.139-0.089c-4.482-3.785-7.715-8.987-9.124-14.682
	c-0.003-0.056-0.011-0.111-0.024-0.167c-0.123-0.575-0.117-1.15,0.014-1.712c0.508-2.171,2.787-3.36,4.021-3.072
	c0.16,0.038,0.248,0.145,0.287,0.205c0.008,0.014,0.023,0.042,0.041,0.096c0.01,0.028,0.022,0.058,0.035,0.085l2.062,4.479
	c0.018,0.034,0.035,0.068,0.056,0.101c0.038,0.06,0.096,0.187,0.058,0.347c-0.017,0.08-0.058,0.148-0.119,0.208l-1.227,0.758
	c-0.004,0.004-0.012,0.006-0.018,0.01c-0.44,0.255-0.756,0.679-0.871,1.173c-0.109,0.461-0.033,0.945,0.201,1.349
	c0.008,0.02,0.016,0.04,0.024,0.059c0.746,1.779,1.781,3.441,3.082,4.944c0.013,0.011,0.021,0.022,0.031,0.034
	c0.26,0.395,0.657,0.681,1.123,0.79c0.467,0.109,0.965,0.027,1.375-0.224c0.021-0.011,0.039-0.021,0.062-0.035l1.237-0.776
	c0.084-0.026,0.161-0.032,0.242-0.014c0.157,0.038,0.245,0.145,0.284,0.205c0.021,0.032,0.043,0.064,0.065,0.094l3.101,3.833
	c0.02,0.024,0.043,0.048,0.064,0.07c0.041,0.042,0.059,0.065,0.066,0.078c0.037,0.06,0.096,0.187,0.059,0.348
	c-0.008,0.03-0.014,0.06-0.018,0.092C44.992,24.673,42.957,26.115,40.836,25.62"/>
<path fill="#006FAB" d="M46.979,31.5H28.691c-1.122,0-2.032,0.91-2.032,2.031v12.193c0,1.121,0.91,2.031,2.032,2.031h18.288
	c1.122,0,2.032-0.91,2.032-2.031V33.531C49.012,32.41,48.102,31.5,46.979,31.5 M28.691,32.516h18.288
	c0.118,0,0.231,0.025,0.339,0.063l-8.795,8.795c-0.184,0.184-0.428,0.285-0.689,0.285c-0.26,0-0.504-0.101-0.688-0.285l-8.793-8.795
	C28.459,32.541,28.572,32.516,28.691,32.516 M27.676,45.725V33.531c0-0.062,0.008-0.117,0.018-0.176l6.273,6.271L27.692,45.9
	C27.682,45.844,27.676,45.785,27.676,45.725 M46.979,46.74H28.691c-0.119,0-0.232-0.025-0.339-0.063l6.331-6.332l1.744,1.746
	c0.39,0.389,0.898,0.582,1.406,0.582c0.51,0,1.02-0.193,1.406-0.582l1.745-1.746l6.333,6.332
	C47.213,46.715,47.098,46.74,46.979,46.74 M47.995,45.725c0,0.061-0.008,0.119-0.017,0.176l-6.272-6.273l6.272-6.271
	c0.01,0.059,0.017,0.115,0.017,0.176V45.725z"/>
<g>
	<circle fill="#006FAB" cx="37.613" cy="63.188" r="11.5"/>
	<path fill="#FFFFFF" d="M44.037,64.791c-0.041-0.094-0.058-0.181-0.037-0.286c0.154-0.763,0.159-1.528,0.033-2.298
		c-0.559-3.389-3.752-5.767-7.146-5.308c-0.198,0.028-0.363-0.004-0.541-0.099c-1.436-0.765-3.189-0.503-4.356,0.643
		c-1.147,1.128-1.438,2.892-0.701,4.327c0.077,0.151,0.101,0.287,0.066,0.455c-0.071,0.345-0.077,0.697-0.093,1.063
		c0.012,0.206,0.016,0.428,0.039,0.647c0.383,3.675,3.748,6.251,7.412,5.678c0.112-0.017,0.207,0.002,0.307,0.052
		c0.693,0.348,1.436,0.435,2.186,0.315C43.654,69.59,45.021,67.072,44.037,64.791z M40.844,66.503
		c-0.412,0.468-0.93,0.768-1.519,0.938c-1.103,0.317-2.219,0.328-3.317-0.004c-1-0.3-1.737-0.92-2.03-1.959
		c-0.208-0.735,0.266-1.286,1.001-1.2c0.316,0.037,0.525,0.228,0.674,0.492c0.093,0.166,0.171,0.341,0.254,0.512
		c0.273,0.558,0.711,0.875,1.335,0.944c0.511,0.055,1.004,0.02,1.476-0.195c0.184-0.081,0.346-0.195,0.478-0.348
		c0.353-0.407,0.289-0.986-0.146-1.307c-0.418-0.31-0.922-0.393-1.41-0.503c-0.7-0.155-1.402-0.304-2.061-0.597
		c-0.681-0.302-1.232-0.743-1.412-1.513c-0.205-0.894,0.041-1.648,0.756-2.226c0.631-0.511,1.391-0.676,2.176-0.745
		c0.182-0.017,0.365-0.002,0.549-0.002c0.724-0.02,1.431,0.076,2.086,0.409c0.501,0.256,0.916,0.605,1.156,1.128
		c0.119,0.256,0.175,0.531,0.1,0.803c-0.093,0.33-0.318,0.562-0.661,0.63c-0.356,0.074-0.688,0.017-0.912-0.315
		c-0.106-0.157-0.21-0.317-0.306-0.483c-0.307-0.52-0.743-0.811-1.364-0.809c-0.282,0.002-0.563-0.007-0.841,0.059
		c-0.249,0.061-0.477,0.164-0.666,0.339c-0.336,0.313-0.323,0.743,0.036,1.028c0.237,0.188,0.517,0.293,0.806,0.367
		c0.68,0.173,1.362,0.334,2.04,0.51c0.369,0.098,0.722,0.241,1.063,0.415C41.774,63.669,41.661,65.572,40.844,66.503z"/>
</g>
<path fill="#FFFFFF" d="M42.43,88.344c0.109,0.146,0.228,0.288,0.347,0.422c0.563,0.629,1.147,1.228,1.59,1.982
	c0.093,0.154,0.174,0.32,0.235,0.493c0.115,0.325,0.006,0.616-0.28,0.736c-0.16,0.065-0.337,0.093-0.507,0.119
	c-0.127,0.02-0.258,0.005-0.389,0.007h-0.371v0.031c-0.346,0-0.694-0.002-1.043,0c-0.444,0.002-0.832-0.182-1.144-0.529
	c-0.345-0.387-0.664-0.812-0.997-1.213c-0.101-0.123-0.208-0.239-0.324-0.341c-0.267-0.236-0.533-0.187-0.66,0.171
	c-0.112,0.316-0.146,0.669-0.211,1.008c-0.006,0.036-0.002,0.076-0.002,0.115c-0.004,0.463-0.194,0.724-0.595,0.748
	c-1.044,0.068-2.056-0.069-2.999-0.653c-0.801-0.493-1.438-1.193-1.99-2.007c-0.922-1.361-1.641-2.862-2.302-4.406
	c-0.178-0.419-0.344-0.845-0.517-1.266l-0.032-0.087c-0.151-0.425-0.026-0.667,0.368-0.708c0.102-0.01,0.204-0.004,0.305-0.005
	c0.545-0.009,1.092-0.014,1.635-0.024c0.385-0.007,0.646,0.169,0.795,0.599c0.379,1.1,0.871,2.133,1.49,3.081
	c0.113,0.172,0.25,0.334,0.4,0.468c0.195,0.173,0.365,0.113,0.451-0.157c0.059-0.192,0.097-0.397,0.115-0.602
	c0.066-0.757,0.069-1.513-0.039-2.266c-0.062-0.416-0.285-0.644-0.636-0.726c-0.204-0.047-0.229-0.139-0.091-0.324
	c0.186-0.25,0.432-0.363,0.706-0.405c0.729-0.112,1.459-0.123,2.183-0.012c0.67,0.101,0.756,0.39,0.777,1.115
	c0.014,0.481-0.025,0.96-0.029,1.44c-0.005,0.467-0.01,0.933,0.01,1.398c0.004,0.154,0.06,0.319,0.125,0.455
	c0.09,0.179,0.218,0.207,0.355,0.076c0.171-0.166,0.335-0.348,0.471-0.549c0.615-0.928,1.096-1.944,1.465-3.03
	c0.151-0.45,0.26-0.53,0.681-0.532c0.735,0,1.472-0.007,2.208-0.005c0.134,0,0.273,0.012,0.4,0.056
	c0.213,0.072,0.319,0.278,0.242,0.515c-0.125,0.385-0.246,0.785-0.443,1.121c-0.486,0.84-1.018,1.645-1.53,2.467
	c-0.101,0.163-0.194,0.332-0.282,0.506C42.241,87.878,42.268,88.123,42.43,88.344z"/>
<circle fill="none" stroke="#FFFFFF" stroke-width="1.2222" stroke-miterlimit="10" cx="37.613" cy="87.5" r="11.5"/>
<path fill="#FFFFFF" d="M42.396,119.146h0.004l-0.993-7.449h-0.005c-0.017-0.121-0.116-0.217-0.242-0.217h-1.737v-0.992
	c0-1.097-0.89-1.986-1.986-1.986c-1.098,0-1.986,0.889-1.986,1.986v0.992h-1.738c-0.125,0-0.227,0.096-0.242,0.217h-0.006
	l-0.992,7.449h0.004c-0.002,0.012-0.006,0.021-0.006,0.033c0,0.137,0.11,0.247,0.248,0.247h9.435c0.137,0,0.248-0.11,0.248-0.247
	C42.401,119.168,42.396,119.158,42.396,119.146 M35.945,110.489c0-0.823,0.668-1.49,1.49-1.49s1.49,0.667,1.49,1.49v0.993h-2.98
	V110.489z M33.928,111.979h1.521v1.062c-0.148,0.086-0.248,0.244-0.248,0.428c0,0.274,0.223,0.497,0.497,0.497
	s0.497-0.223,0.497-0.497c0-0.183-0.1-0.342-0.249-0.428v-1.062h2.979v1.062c-0.147,0.086-0.248,0.244-0.248,0.428
	c0,0.274,0.222,0.497,0.496,0.497s0.498-0.223,0.498-0.497c0-0.183-0.101-0.342-0.248-0.428v-1.062h1.521l0.794,5.959h-8.605
	L33.928,111.979z M33.002,118.932l0.065-0.496h8.735l0.066,0.496H33.002z"/>
<g>
	<g>
		<g>
			<path fill="#4A96D1" d="M48.176,134.326h-4.972l1.896-4.457L48.176,134.326z M44.247,129.312l-1.963,4.613l-3.08-4.613H44.247z
				 M41.35,134.326H35.36l2.789-4.776L41.35,134.326z M37.121,129.312l-2.617,4.494l-2.441-4.494H37.121z M31.188,129.799
				l2.461,4.527H28.07L31.188,129.799z M28.07,135.333h6.027l3.978,21.331L28.07,135.333z M35.127,135.333h6.637l-3.719,21.362
				L35.127,135.333z M38.014,156.713l4.791-21.379h5.363L38.014,156.713z"/>
		</g>
	</g>
	<path fill="#006EAA" d="M27.909,135.331h2.526l6.65,18.218c0.41,1.227,0.922,3.07,0.922,3.07h0.068c0,0,0.479-1.844,0.922-3.07
		l6.652-18.218h2.523l-8.869,23.981H36.78L27.909,135.331z"/>
</g>
<g>
	<circle fill="none" stroke="#006EAA" stroke-miterlimit="10" cx="37.836" cy="176.223" r="11.5"/>
</g>
<polyline fill="none" stroke="#006EAA" stroke-width="1.2" stroke-linecap="round" stroke-linejoin="round" stroke-miterlimit="10" points="
	32.034,177.159 36.187,180.85 43.569,172.083 "/>
<g>
	<circle fill="none" stroke="#006EAA" stroke-miterlimit="10" cx="38" cy="205.549" r="11.5"/>
	<g>
		<path fill="#006EAA" d="M38.029,210.262c-0.059,0-0.116-0.021-0.161-0.066c-0.089-0.086-0.089-0.229,0-0.319l0.076-0.075
			c1.489-1.49,2.979-2.982,4.479-4.464c0.131-0.153,0.258-0.343,0.363-0.555c0.143-0.308,0.219-0.661,0.219-1.04
			c0-0.688-0.234-1.256-0.717-1.738s-1.05-0.715-1.736-0.715c-0.688,0-1.258,0.232-1.738,0.715
			c-0.256,0.256-0.447,0.541-0.566,0.848c-0.033,0.084-0.115,0.144-0.205,0.144c-0.097,0-0.177-0.05-0.215-0.136
			c-0.141-0.322-0.332-0.601-0.584-0.854c-0.482-0.481-1.051-0.715-1.738-0.715c-0.687,0-1.254,0.233-1.738,0.715
			c-0.487,0.487-0.725,1.056-0.725,1.738c0,0.381,0.077,0.733,0.228,1.042c0.095,0.205,0.217,0.395,0.366,0.566
			c0.082,0.094,0.072,0.238-0.021,0.32c-0.095,0.082-0.238,0.073-0.32-0.021c-0.178-0.204-0.324-0.43-0.435-0.67
			c-0.179-0.369-0.271-0.782-0.271-1.236c0-0.797,0.289-1.489,0.857-2.059c0.564-0.564,1.256-0.849,2.059-0.849
			s1.496,0.285,2.06,0.849c0.179,0.18,0.335,0.377,0.466,0.586c0.125-0.207,0.28-0.403,0.463-0.586
			c0.562-0.564,1.256-0.849,2.059-0.849c0.802,0,1.494,0.285,2.058,0.849c0.563,0.562,0.849,1.258,0.849,2.059
			c0,0.443-0.089,0.861-0.262,1.236c-0.126,0.25-0.273,0.474-0.443,0.67c-1.51,1.494-2.998,2.982-4.488,4.472l-0.076,0.075
			C38.145,210.241,38.088,210.262,38.029,210.262z"/>
		<path fill="#006EAA" d="M38.029,210.551c-0.137,0-0.266-0.056-0.363-0.152c-0.201-0.2-0.201-0.524,0-0.725l0.075-0.078
			c1.491-1.49,2.981-2.981,4.481-4.462c0.103-0.122,0.216-0.294,0.309-0.481c0.123-0.267,0.188-0.574,0.188-0.91
			c0-0.607-0.207-1.11-0.631-1.536c-0.427-0.423-0.929-0.63-1.535-0.63c-0.607,0-1.11,0.207-1.535,0.63
			c-0.228,0.228-0.396,0.481-0.502,0.748c-0.074,0.194-0.258,0.325-0.467,0.327c-0.217,0-0.397-0.118-0.48-0.307
			c-0.128-0.289-0.301-0.541-0.525-0.769c-0.426-0.423-0.928-0.63-1.535-0.63s-1.109,0.207-1.535,0.63
			c-0.43,0.433-0.641,0.935-0.641,1.536c0,0.339,0.067,0.646,0.198,0.915c0.086,0.186,0.194,0.354,0.326,0.506
			c0.09,0.103,0.135,0.235,0.125,0.374c-0.011,0.136-0.072,0.261-0.177,0.35c-0.205,0.18-0.547,0.155-0.725-0.052
			c-0.195-0.224-0.355-0.474-0.478-0.735c-0.196-0.402-0.298-0.861-0.298-1.357c0-0.875,0.317-1.637,0.941-2.264
			c0.619-0.619,1.381-0.931,2.262-0.931s1.642,0.313,2.262,0.931c0.093,0.092,0.181,0.191,0.261,0.293
			c0.08-0.1,0.167-0.198,0.26-0.293c0.62-0.619,1.38-0.931,2.263-0.931c0.881,0,1.642,0.313,2.262,0.931
			c0.619,0.621,0.933,1.381,0.933,2.264c0,0.486-0.098,0.941-0.288,1.357c-0.14,0.277-0.303,0.524-0.488,0.735
			c-1.522,1.51-3.014,2.999-4.502,4.488l-0.074,0.075C38.295,210.495,38.166,210.551,38.029,210.551z"/>
	</g>
</g>
</svg>
