<?xml version="1.0" encoding="utf-8"?>
<!-- Generator: Adobe Illustrator 17.0.0, SVG Export Plug-In . SVG Version: 6.00 Build 0)  -->
<!DOCTYPE svg PUBLIC "-//W3C//DTD SVG 1.1//EN" "http://www.w3.org/Graphics/SVG/1.1/DTD/svg11.dtd">
<svg version="1.1" id="Layer_1" xmlns="http://www.w3.org/2000/svg" xmlns:xlink="http://www.w3.org/1999/xlink" x="0px" y="0px"
	 width="25px" height="220px" viewBox="0 0 25 220" enable-background="new 0 0 25 220" xml:space="preserve">
<path fill="#006FAB" d="M21.156,23.575h-0.008c0.086-0.371,0.016-0.743-0.174-1.042c-0.051-0.088-0.119-0.168-0.193-0.242
	l-3.104-3.833c-0.184-0.3-0.482-0.529-0.856-0.615c-0.302-0.072-0.604-0.031-0.867,0.087l-1.309,0.819l-0.003-0.002
	c-0.205,0.145-0.469,0.208-0.733,0.146c-0.302-0.071-0.534-0.284-0.643-0.552c-0.007,0.007-0.019,0.013-0.026,0.022
	c-1.213-1.404-2.213-2.985-2.93-4.697c0.012-0.004,0.021-0.011,0.034-0.015c-0.194-0.218-0.287-0.523-0.214-0.83
	c0.063-0.274,0.244-0.487,0.476-0.607v-0.002l1.296-0.799c0.224-0.183,0.394-0.436,0.464-0.74c0.086-0.371,0.016-0.742-0.174-1.042
	l-2.063-4.479c-0.033-0.099-0.076-0.193-0.128-0.281C9.813,4.57,9.512,4.342,9.141,4.255C7.352,3.836,4.622,5.418,4.018,8.013
	c-0.168,0.72-0.162,1.438-0.015,2.115l-0.019,0.011c1.439,5.994,4.873,11.516,9.611,15.463l0.016-0.011
	c0.543,0.432,1.182,0.756,1.902,0.925c2.596,0.606,5.223-1.141,5.643-2.933C21.156,23.581,21.156,23.579,21.156,23.575
	 M15.723,25.62c-0.563-0.131-1.08-0.383-1.537-0.748c-0.046-0.035-0.089-0.063-0.139-0.089c-4.482-3.785-7.715-8.987-9.124-14.682
	C4.92,10.045,4.912,9.99,4.899,9.934c-0.124-0.575-0.118-1.15,0.013-1.712C5.42,6.051,7.699,4.862,8.934,5.15
	c0.16,0.038,0.248,0.145,0.287,0.205c0.008,0.014,0.023,0.042,0.041,0.096c0.01,0.028,0.022,0.058,0.035,0.085l2.063,4.479
	c0.017,0.034,0.035,0.068,0.055,0.101c0.038,0.06,0.096,0.187,0.058,0.347c-0.017,0.08-0.058,0.148-0.119,0.208l-1.227,0.758
	c-0.004,0.004-0.012,0.006-0.018,0.01c-0.44,0.255-0.756,0.679-0.871,1.173c-0.109,0.461-0.033,0.945,0.201,1.349
	c0.008,0.02,0.016,0.04,0.025,0.059c0.746,1.779,1.781,3.441,3.082,4.944c0.012,0.011,0.021,0.022,0.031,0.034
	c0.26,0.395,0.658,0.681,1.123,0.79c0.467,0.109,0.965,0.027,1.375-0.224c0.02-0.011,0.039-0.021,0.062-0.035l1.237-0.776
	c0.084-0.026,0.161-0.032,0.242-0.014c0.158,0.038,0.246,0.145,0.285,0.205c0.02,0.032,0.043,0.064,0.065,0.094l3.101,3.833
	c0.019,0.024,0.043,0.048,0.064,0.07c0.041,0.042,0.059,0.065,0.066,0.078c0.037,0.06,0.096,0.187,0.059,0.348
	c-0.008,0.03-0.014,0.06-0.018,0.092C19.879,24.673,17.844,26.115,15.723,25.62"/>
<path fill="#006FAB" d="M21.866,31.5H3.578c-1.122,0-2.032,0.91-2.032,2.031v12.193c0,1.121,0.91,2.031,2.032,2.031h18.288
	c1.122,0,2.032-0.91,2.032-2.031V33.531C23.898,32.41,22.988,31.5,21.866,31.5 M3.578,32.516h18.288
	c0.119,0,0.232,0.025,0.339,0.063l-8.795,8.795c-0.184,0.184-0.428,0.285-0.689,0.285c-0.26,0-0.504-0.101-0.689-0.285l-8.793-8.795
	C3.346,32.541,3.459,32.516,3.578,32.516 M2.562,45.725V33.531c0-0.061,0.008-0.117,0.018-0.176l6.273,6.271L2.579,45.9
	C2.569,45.844,2.562,45.785,2.562,45.725 M21.866,46.74H3.578c-0.119,0-0.232-0.025-0.339-0.063l6.331-6.332l1.745,1.746
	c0.389,0.389,0.898,0.582,1.406,0.582c0.51,0,1.019-0.193,1.406-0.582l1.745-1.746l6.333,6.332
	C22.099,46.715,21.985,46.74,21.866,46.74 M22.882,45.725c0,0.061-0.008,0.119-0.017,0.176l-6.272-6.273l6.272-6.271
	c0.01,0.059,0.017,0.115,0.017,0.176V45.725z"/>
<g>
	<circle fill="#30A4DC" cx="12.5" cy="63.188" r="11.5"/>
	<path fill="#FFFFFF" d="M18.924,64.791c-0.041-0.094-0.058-0.181-0.037-0.286c0.154-0.763,0.159-1.528,0.033-2.298
		c-0.558-3.389-3.752-5.767-7.146-5.308c-0.199,0.028-0.364-0.004-0.542-0.099c-1.435-0.765-3.189-0.503-4.356,0.643
		c-1.148,1.128-1.438,2.892-0.701,4.327c0.077,0.151,0.101,0.287,0.066,0.455c-0.071,0.345-0.077,0.697-0.093,1.063
		c0.012,0.206,0.016,0.428,0.039,0.647c0.384,3.675,3.749,6.251,7.413,5.678c0.112-0.017,0.206,0.002,0.306,0.052
		c0.693,0.348,1.436,0.435,2.186,0.315C18.541,69.59,19.907,67.072,18.924,64.791z M15.73,66.503
		c-0.412,0.468-0.929,0.768-1.518,0.938c-1.103,0.317-2.219,0.328-3.317-0.004c-1.001-0.3-1.738-0.92-2.031-1.959
		c-0.208-0.735,0.266-1.286,1.001-1.2c0.317,0.037,0.525,0.228,0.674,0.492c0.093,0.166,0.171,0.341,0.254,0.512
		c0.273,0.558,0.711,0.875,1.335,0.944c0.51,0.055,1.004,0.02,1.476-0.195c0.183-0.081,0.345-0.195,0.477-0.348
		c0.353-0.407,0.289-0.986-0.145-1.307c-0.419-0.31-0.922-0.393-1.411-0.503c-0.7-0.155-1.402-0.304-2.06-0.597
		c-0.681-0.302-1.233-0.743-1.412-1.513c-0.206-0.894,0.041-1.648,0.756-2.226c0.63-0.511,1.39-0.676,2.175-0.745
		c0.182-0.017,0.366-0.002,0.549-0.002c0.724-0.02,1.431,0.076,2.086,0.409c0.501,0.256,0.916,0.605,1.157,1.128
		c0.118,0.256,0.174,0.531,0.099,0.803c-0.093,0.33-0.318,0.562-0.661,0.63c-0.357,0.074-0.688,0.017-0.912-0.315
		c-0.107-0.157-0.21-0.317-0.306-0.483c-0.307-0.52-0.743-0.811-1.364-0.809c-0.283,0.002-0.564-0.007-0.841,0.059
		c-0.249,0.061-0.476,0.164-0.666,0.339c-0.336,0.313-0.323,0.743,0.036,1.028c0.237,0.188,0.517,0.293,0.806,0.367
		c0.679,0.173,1.362,0.334,2.04,0.51c0.369,0.098,0.721,0.241,1.063,0.415C16.661,63.669,16.548,65.572,15.73,66.503z"/>
</g>
<path fill="#FFFFFF" d="M17.316,88.344c0.11,0.146,0.228,0.288,0.347,0.422c0.563,0.629,1.148,1.228,1.59,1.982
	c0.092,0.154,0.174,0.32,0.235,0.493c0.115,0.325,0.006,0.616-0.28,0.736c-0.16,0.065-0.337,0.093-0.507,0.119
	c-0.127,0.02-0.258,0.005-0.388,0.007h-0.371v0.031c-0.347,0-0.695-0.002-1.044,0c-0.444,0.002-0.831-0.182-1.143-0.529
	c-0.345-0.387-0.664-0.812-0.997-1.213c-0.101-0.123-0.208-0.239-0.324-0.341c-0.267-0.236-0.534-0.187-0.661,0.171
	c-0.112,0.316-0.145,0.669-0.21,1.008c-0.007,0.036-0.003,0.076-0.003,0.115c-0.003,0.463-0.194,0.724-0.594,0.748
	c-1.044,0.068-2.056-0.069-2.999-0.653c-0.801-0.493-1.437-1.193-1.99-2.007c-0.923-1.361-1.641-2.862-2.302-4.406
	c-0.178-0.419-0.344-0.845-0.517-1.266l-0.032-0.087c-0.151-0.425-0.026-0.667,0.368-0.708c0.101-0.01,0.204-0.004,0.305-0.005
	c0.545-0.009,1.091-0.014,1.635-0.024c0.385-0.007,0.646,0.169,0.795,0.599c0.378,1.1,0.87,2.133,1.49,3.081
	c0.113,0.172,0.25,0.334,0.4,0.468c0.195,0.173,0.365,0.113,0.451-0.157c0.059-0.192,0.097-0.398,0.116-0.602
	c0.066-0.757,0.069-1.513-0.039-2.266c-0.062-0.416-0.285-0.644-0.636-0.726c-0.205-0.047-0.229-0.139-0.091-0.324
	c0.185-0.25,0.431-0.363,0.706-0.405c0.729-0.112,1.459-0.123,2.183-0.012c0.67,0.101,0.756,0.39,0.777,1.115
	c0.014,0.481-0.026,0.96-0.03,1.44c-0.004,0.467-0.009,0.933,0.011,1.398c0.004,0.154,0.059,0.319,0.125,0.455
	c0.089,0.179,0.217,0.207,0.355,0.076c0.171-0.166,0.335-0.348,0.471-0.549c0.615-0.928,1.095-1.944,1.465-3.03
	c0.151-0.45,0.259-0.53,0.68-0.532c0.736,0,1.472-0.007,2.208-0.005c0.134,0,0.273,0.012,0.4,0.056
	c0.213,0.072,0.32,0.278,0.243,0.515c-0.125,0.385-0.246,0.785-0.443,1.121c-0.487,0.84-1.018,1.645-1.531,2.467
	c-0.101,0.163-0.195,0.332-0.282,0.506C17.128,87.878,17.154,88.123,17.316,88.344z"/>
<circle fill="none" stroke="#FFFFFF" stroke-width="1.2222" stroke-miterlimit="10" cx="12.5" cy="87.5" r="11.5"/>
<path fill="#FFFFFF" d="M17.282,119.147l0.004-0.001l-0.993-7.449h-0.005c-0.016-0.121-0.116-0.216-0.242-0.216h-1.738v-0.993
	c0-1.097-0.889-1.986-1.986-1.986s-1.986,0.889-1.986,1.986v0.993H8.597c-0.125,0-0.226,0.095-0.242,0.216H8.35l-0.993,7.449
	l0.005,0.001c-0.002,0.011-0.007,0.021-0.007,0.032c0,0.137,0.111,0.248,0.248,0.248h9.435c0.137,0,0.248-0.111,0.248-0.248
	C17.288,119.168,17.283,119.158,17.282,119.147 M10.832,110.489c0-0.823,0.668-1.49,1.49-1.49c0.823,0,1.49,0.667,1.49,1.49v0.993
	h-2.98C10.832,111.482,10.832,110.489,10.832,110.489z M8.815,111.979h1.521v1.062c-0.148,0.086-0.248,0.244-0.248,0.428
	c0,0.274,0.222,0.497,0.497,0.497c0.274,0,0.497-0.223,0.497-0.497c0-0.183-0.1-0.342-0.249-0.428v-1.062h2.98v1.062
	c-0.148,0.086-0.249,0.244-0.249,0.428c0,0.274,0.222,0.497,0.497,0.497c0.274,0,0.497-0.223,0.497-0.497
	c0-0.183-0.1-0.342-0.248-0.428v-1.062h1.521l0.794,5.959H8.02L8.815,111.979z M7.888,118.931l0.066-0.496h8.736l0.066,0.496H7.888z
	"/>
<g>
	<g>
		<g>
			<path fill="#006EAA" d="M23.062,134.326h-4.971l1.896-4.457L23.062,134.326z M19.134,129.313l-1.963,4.613l-3.08-4.613H19.134z
				 M16.236,134.326h-5.989l2.789-4.776L16.236,134.326z M12.008,129.313l-2.617,4.493l-2.442-4.493H12.008z M6.075,129.799
				l2.461,4.527H2.957L6.075,129.799z M2.957,135.333h6.028l3.977,21.331L2.957,135.333z M10.013,135.333h6.637l-3.719,21.362
				L10.013,135.333z M12.901,156.713l4.79-21.379h5.364L12.901,156.713z"/>
		</g>
	</g>
	<path fill="#ADBBC0" d="M2.796,135.331h2.526l6.651,18.218c0.41,1.227,0.921,3.07,0.921,3.07h0.069c0,0,0.478-1.843,0.922-3.07
		l6.652-18.218h2.524l-8.869,23.982h-2.525L2.796,135.331z"/>
</g>
<g opacity="0.2">
	<circle fill="none" stroke="#006EAA" stroke-width="0.4769" stroke-miterlimit="10" cx="12.722" cy="176.222" r="11.5"/>
</g>
<polyline opacity="0.2" fill="none" stroke="#006EAA" stroke-width="1.1677" stroke-linecap="round" stroke-linejoin="round" stroke-miterlimit="10" points="
	6.921,177.159 11.073,180.849 18.456,172.083 "/>
<g opacity="0.2">
	<circle fill="none" stroke="#006EAA" stroke-width="0.4769" stroke-miterlimit="10" cx="12.887" cy="205.549" r="11.5"/>
	<g>
		<path fill="#006EAA" d="M12.916,210.262c-0.058,0-0.116-0.021-0.161-0.066c-0.089-0.087-0.089-0.23,0-0.32l0.076-0.075
			c1.489-1.491,2.979-2.982,4.479-4.464c0.132-0.153,0.259-0.343,0.364-0.555c0.143-0.308,0.218-0.661,0.218-1.04
			c0-0.687-0.234-1.256-0.716-1.738c-0.482-0.482-1.05-0.715-1.737-0.715c-0.687,0-1.257,0.233-1.738,0.715
			c-0.256,0.256-0.447,0.541-0.566,0.847c-0.034,0.085-0.115,0.144-0.206,0.144c-0.096,0-0.176-0.049-0.214-0.136
			c-0.141-0.322-0.332-0.6-0.584-0.854c-0.482-0.482-1.051-0.715-1.738-0.715s-1.255,0.233-1.738,0.715
			c-0.488,0.487-0.726,1.056-0.726,1.738c0,0.381,0.078,0.734,0.228,1.042c0.095,0.205,0.217,0.395,0.367,0.567
			c0.082,0.094,0.072,0.238-0.022,0.32c-0.095,0.082-0.239,0.073-0.32-0.021c-0.178-0.205-0.324-0.43-0.435-0.67
			c-0.178-0.369-0.27-0.783-0.27-1.237c0-0.797,0.289-1.489,0.857-2.058c0.564-0.565,1.256-0.849,2.059-0.849
			c0.803,0,1.495,0.285,2.059,0.849c0.179,0.179,0.335,0.376,0.466,0.586c0.125-0.207,0.28-0.404,0.463-0.586
			c0.563-0.565,1.255-0.849,2.058-0.849c0.802,0,1.495,0.285,2.058,0.849c0.563,0.562,0.849,1.258,0.849,2.058
			c0,0.444-0.089,0.861-0.262,1.237c-0.126,0.249-0.274,0.473-0.443,0.67c-1.51,1.493-2.999,2.982-4.489,4.471l-0.076,0.075
			C13.031,210.241,12.974,210.262,12.916,210.262z"/>
		<path fill="#006EAA" d="M12.916,210.551c-0.137,0-0.266-0.056-0.363-0.153c-0.201-0.2-0.201-0.524,0-0.724l0.075-0.078
			c1.491-1.491,2.981-2.982,4.481-4.462c0.103-0.122,0.216-0.294,0.309-0.482c0.123-0.266,0.188-0.574,0.188-0.91
			c0-0.607-0.208-1.11-0.632-1.536c-0.426-0.423-0.928-0.63-1.535-0.63c-0.607,0-1.11,0.207-1.534,0.63
			c-0.228,0.228-0.397,0.482-0.502,0.748c-0.075,0.195-0.259,0.325-0.467,0.327c-0.217,0-0.398-0.118-0.481-0.306
			c-0.128-0.289-0.3-0.541-0.526-0.769c-0.425-0.423-0.927-0.63-1.535-0.63c-0.607,0-1.109,0.207-1.534,0.63
			c-0.431,0.433-0.641,0.934-0.641,1.536c0,0.339,0.067,0.647,0.198,0.915c0.086,0.186,0.195,0.355,0.326,0.506
			c0.09,0.103,0.135,0.235,0.125,0.374c-0.01,0.136-0.072,0.261-0.176,0.35c-0.206,0.179-0.547,0.155-0.725-0.052
			c-0.195-0.223-0.356-0.473-0.478-0.736c-0.196-0.402-0.297-0.861-0.297-1.357c0-0.875,0.317-1.637,0.941-2.263
			c0.619-0.619,1.381-0.931,2.261-0.931c0.882,0,1.642,0.313,2.262,0.931c0.093,0.092,0.181,0.191,0.261,0.292
			c0.08-0.099,0.167-0.198,0.26-0.292c0.62-0.619,1.38-0.931,2.262-0.931c0.882,0,1.642,0.313,2.262,0.931
			c0.619,0.621,0.933,1.381,0.933,2.263c0,0.487-0.098,0.941-0.289,1.357c-0.139,0.278-0.302,0.525-0.487,0.736
			c-1.523,1.51-3.014,2.999-4.502,4.488l-0.075,0.075C13.182,210.495,13.053,210.551,12.916,210.551z"/>
	</g>
</g>
</svg>
