<?xml version="1.0" encoding="utf-8"?>
<!-- Generator: Adobe Illustrator 17.0.0, SVG Export Plug-In . SVG Version: 6.00 Build 0)  -->
<!DOCTYPE svg PUBLIC "-//W3C//DTD SVG 1.1//EN" "http://www.w3.org/Graphics/SVG/1.1/DTD/svg11.dtd">
<svg version="1.1" id="Layer_1" xmlns="http://www.w3.org/2000/svg" xmlns:xlink="http://www.w3.org/1999/xlink" x="0px" y="0px"
	 width="50.75px" height="460.677px" viewBox="0 0 50.75 460.677" enable-background="new 0 0 50.75 460.677" xml:space="preserve">
<path fill="#006FAB" d="M21.156,23.575h-0.008c0.086-0.371,0.016-0.743-0.174-1.042c-0.052-0.088-0.119-0.168-0.193-0.242
	l-3.104-3.833c-0.184-0.3-0.481-0.529-0.856-0.615c-0.301-0.072-0.604-0.031-0.866,0.087l-1.31,0.819l-0.002-0.002
	c-0.205,0.145-0.47,0.208-0.733,0.146c-0.302-0.071-0.534-0.284-0.644-0.552c-0.007,0.007-0.019,0.013-0.025,0.022
	c-1.213-1.404-2.213-2.985-2.93-4.697c0.012-0.004,0.021-0.011,0.034-0.015c-0.194-0.218-0.287-0.523-0.214-0.83
	c0.063-0.274,0.244-0.487,0.476-0.607v-0.002l1.296-0.799c0.224-0.183,0.394-0.436,0.464-0.74c0.086-0.371,0.016-0.742-0.174-1.042
	L10.13,5.152c-0.033-0.099-0.076-0.193-0.128-0.281C9.813,4.57,9.512,4.342,9.141,4.255C7.352,3.836,4.622,5.418,4.018,8.013
	c-0.168,0.72-0.162,1.438-0.015,2.115l-0.019,0.011c1.439,5.994,4.873,11.516,9.612,15.463l0.016-0.011
	c0.543,0.432,1.182,0.756,1.902,0.925c2.596,0.606,5.223-1.141,5.643-2.933C21.156,23.581,21.156,23.579,21.156,23.575
	 M15.723,25.62c-0.562-0.131-1.08-0.383-1.537-0.748c-0.045-0.035-0.088-0.063-0.139-0.089c-4.482-3.785-7.715-8.987-9.124-14.682
	C4.92,10.045,4.912,9.99,4.899,9.934c-0.124-0.575-0.118-1.15,0.013-1.712C5.42,6.051,7.699,4.862,8.934,5.15
	c0.16,0.038,0.248,0.145,0.287,0.205c0.008,0.014,0.023,0.042,0.041,0.096c0.01,0.028,0.022,0.058,0.035,0.085l2.063,4.479
	c0.017,0.034,0.035,0.068,0.055,0.101c0.038,0.06,0.096,0.187,0.058,0.347c-0.017,0.08-0.058,0.148-0.119,0.208l-1.227,0.758
	c-0.004,0.004-0.012,0.006-0.018,0.01c-0.44,0.255-0.756,0.679-0.871,1.173c-0.109,0.461-0.033,0.945,0.201,1.349
	c0.008,0.02,0.016,0.04,0.025,0.059c0.746,1.779,1.781,3.441,3.082,4.944c0.012,0.011,0.021,0.022,0.031,0.034
	c0.26,0.395,0.657,0.681,1.123,0.79c0.467,0.109,0.965,0.027,1.375-0.224c0.021-0.011,0.039-0.021,0.062-0.035l1.237-0.776
	c0.084-0.026,0.161-0.032,0.242-0.014c0.157,0.038,0.245,0.145,0.284,0.205c0.021,0.032,0.043,0.064,0.065,0.094l3.101,3.833
	c0.02,0.024,0.043,0.048,0.064,0.07c0.041,0.042,0.059,0.065,0.066,0.078c0.037,0.06,0.096,0.187,0.059,0.348
	c-0.008,0.03-0.014,0.06-0.018,0.092C19.879,24.673,17.844,26.115,15.723,25.62"/>
<path fill="#006FAB" d="M21.866,31.5H3.578c-1.122,0-2.032,0.91-2.032,2.031v12.193c0,1.121,0.91,2.031,2.032,2.031h18.288
	c1.122,0,2.032-0.91,2.032-2.031V33.531C23.898,32.41,22.988,31.5,21.866,31.5 M3.578,32.516h18.288
	c0.118,0,0.231,0.025,0.339,0.063l-8.795,8.795c-0.184,0.184-0.428,0.285-0.689,0.285c-0.26,0-0.504-0.101-0.689-0.285l-8.793-8.795
	C3.346,32.541,3.459,32.516,3.578,32.516 M2.562,45.725V33.531c0-0.062,0.008-0.117,0.018-0.176l6.273,6.271L2.579,45.9
	C2.569,45.844,2.562,45.785,2.562,45.725 M21.866,46.74H3.578c-0.119,0-0.232-0.025-0.339-0.063l6.331-6.332l1.745,1.746
	c0.389,0.389,0.898,0.582,1.406,0.582c0.509,0,1.019-0.193,1.406-0.582l1.745-1.746l6.333,6.332
	C22.1,46.715,21.984,46.74,21.866,46.74 M22.882,45.725c0,0.061-0.008,0.119-0.017,0.176l-6.272-6.273l6.272-6.271
	c0.01,0.059,0.017,0.115,0.017,0.176V45.725z"/>
<g>
	<circle fill="#30A4DC" cx="12.5" cy="63.188" r="11.5"/>
	<path fill="#FFFFFF" d="M18.924,64.791c-0.041-0.094-0.058-0.181-0.037-0.286c0.154-0.763,0.159-1.528,0.033-2.298
		c-0.559-3.389-3.752-5.767-7.146-5.308c-0.199,0.028-0.364-0.004-0.542-0.099c-1.435-0.765-3.189-0.503-4.356,0.643
		c-1.148,1.128-1.438,2.892-0.701,4.327c0.077,0.151,0.101,0.287,0.066,0.455c-0.071,0.345-0.077,0.697-0.093,1.063
		c0.012,0.206,0.016,0.428,0.039,0.647c0.384,3.675,3.749,6.251,7.413,5.678c0.112-0.017,0.207,0.002,0.307,0.052
		c0.693,0.348,1.436,0.435,2.186,0.315C18.541,69.59,19.907,67.072,18.924,64.791z M15.73,66.503
		c-0.412,0.468-0.93,0.768-1.519,0.938c-1.103,0.317-2.219,0.328-3.317-0.004c-1.001-0.3-1.738-0.92-2.031-1.959
		c-0.208-0.735,0.266-1.286,1.001-1.2c0.317,0.037,0.525,0.228,0.674,0.492c0.093,0.166,0.171,0.341,0.254,0.512
		c0.273,0.558,0.711,0.875,1.335,0.944c0.51,0.055,1.004,0.02,1.476-0.195c0.184-0.081,0.346-0.195,0.478-0.348
		c0.353-0.407,0.289-0.986-0.146-1.307c-0.418-0.31-0.922-0.393-1.411-0.503c-0.7-0.155-1.402-0.304-2.06-0.597
		c-0.681-0.302-1.233-0.743-1.412-1.513c-0.206-0.894,0.041-1.648,0.756-2.226c0.63-0.511,1.39-0.676,2.175-0.745
		c0.182-0.017,0.366-0.002,0.549-0.002c0.724-0.02,1.431,0.076,2.086,0.409c0.501,0.256,0.916,0.605,1.156,1.128
		c0.119,0.256,0.175,0.531,0.1,0.803c-0.093,0.33-0.318,0.562-0.661,0.63c-0.356,0.074-0.688,0.017-0.912-0.315
		c-0.106-0.157-0.21-0.317-0.306-0.483c-0.307-0.52-0.743-0.811-1.364-0.809c-0.283,0.002-0.564-0.007-0.841,0.059
		c-0.249,0.061-0.476,0.164-0.666,0.339c-0.336,0.313-0.323,0.743,0.036,1.028c0.237,0.188,0.517,0.293,0.806,0.367
		c0.679,0.173,1.362,0.334,2.04,0.51c0.369,0.098,0.722,0.241,1.063,0.415C16.661,63.669,16.548,65.572,15.73,66.503z"/>
</g>
<path fill="#FFFFFF" d="M17.316,88.344c0.109,0.146,0.228,0.288,0.347,0.422c0.563,0.629,1.147,1.228,1.59,1.982
	c0.093,0.154,0.174,0.32,0.235,0.493c0.115,0.325,0.006,0.616-0.28,0.736c-0.16,0.065-0.337,0.093-0.507,0.119
	c-0.127,0.02-0.258,0.005-0.389,0.007h-0.371v0.031c-0.346,0-0.694-0.002-1.043,0c-0.444,0.002-0.832-0.182-1.144-0.529
	c-0.345-0.387-0.664-0.812-0.997-1.213c-0.101-0.123-0.208-0.239-0.324-0.341c-0.267-0.236-0.533-0.187-0.66,0.171
	c-0.112,0.316-0.146,0.669-0.211,1.008c-0.006,0.036-0.002,0.076-0.002,0.115c-0.004,0.463-0.194,0.724-0.595,0.748
	c-1.044,0.068-2.056-0.069-2.999-0.653c-0.801-0.493-1.437-1.193-1.99-2.007c-0.923-1.361-1.641-2.862-2.302-4.406
	c-0.178-0.419-0.344-0.845-0.517-1.266l-0.032-0.087c-0.151-0.425-0.026-0.667,0.368-0.708c0.101-0.01,0.204-0.004,0.305-0.005
	c0.545-0.009,1.091-0.014,1.635-0.024c0.385-0.007,0.646,0.169,0.795,0.599c0.378,1.1,0.87,2.133,1.49,3.081
	c0.113,0.172,0.25,0.334,0.4,0.468c0.195,0.173,0.365,0.113,0.451-0.157c0.059-0.192,0.097-0.397,0.116-0.602
	c0.066-0.757,0.069-1.513-0.039-2.266c-0.062-0.416-0.285-0.644-0.636-0.726c-0.205-0.047-0.229-0.139-0.091-0.324
	c0.185-0.25,0.431-0.363,0.706-0.405c0.729-0.112,1.459-0.123,2.183-0.012c0.669,0.101,0.755,0.39,0.777,1.115
	c0.014,0.481-0.025,0.96-0.029,1.44c-0.005,0.467-0.01,0.933,0.01,1.398c0.004,0.154,0.06,0.319,0.125,0.455
	c0.09,0.179,0.218,0.207,0.355,0.076c0.171-0.166,0.335-0.348,0.471-0.549c0.615-0.928,1.096-1.944,1.465-3.03
	c0.151-0.45,0.26-0.53,0.681-0.532c0.735,0,1.472-0.007,2.208-0.005c0.134,0,0.273,0.012,0.4,0.056
	c0.213,0.072,0.319,0.278,0.242,0.515c-0.125,0.385-0.246,0.785-0.443,1.121c-0.486,0.84-1.018,1.645-1.53,2.467
	c-0.101,0.163-0.194,0.332-0.282,0.506C17.128,87.878,17.154,88.123,17.316,88.344z"/>
<circle fill="none" stroke="#FFFFFF" stroke-width="1.2222" stroke-miterlimit="10" cx="12.5" cy="87.5" r="11.5"/>
<path fill="#FFFFFF" d="M17.282,119.146h0.004l-0.993-7.449h-0.005c-0.017-0.121-0.116-0.217-0.242-0.217h-1.737v-0.992
	c0-1.097-0.89-1.986-1.987-1.986s-1.986,0.889-1.986,1.986v0.992H8.597c-0.125,0-0.226,0.096-0.242,0.217H8.35l-0.993,7.449h0.005
	c-0.002,0.012-0.007,0.021-0.007,0.033c0,0.137,0.111,0.247,0.248,0.247h9.435c0.137,0,0.248-0.11,0.248-0.247
	C17.288,119.168,17.283,119.158,17.282,119.146 M10.832,110.489c0-0.823,0.668-1.49,1.49-1.49c0.823,0,1.491,0.667,1.491,1.49v0.993
	h-2.98v-0.993H10.832z M8.815,111.979h1.521v1.062c-0.148,0.086-0.248,0.244-0.248,0.428c0,0.274,0.222,0.497,0.497,0.497
	c0.274,0,0.497-0.223,0.497-0.497c0-0.183-0.1-0.342-0.249-0.428v-1.062h2.979v1.062c-0.147,0.086-0.248,0.244-0.248,0.428
	c0,0.274,0.222,0.497,0.496,0.497s0.498-0.223,0.498-0.497c0-0.183-0.101-0.342-0.248-0.428v-1.062h1.521l0.794,5.959H8.02
	L8.815,111.979z M7.888,118.932l0.066-0.496h8.735l0.066,0.496H7.888z"/>
<g>
	<g>
		<g>
			<path fill="#006EAA" d="M23.062,134.326H18.09l1.896-4.457L23.062,134.326z M19.134,129.312l-1.963,4.613l-3.08-4.613H19.134z
				 M16.236,134.326h-5.989l2.789-4.776L16.236,134.326z M12.008,129.312l-2.617,4.494l-2.442-4.494H12.008z M6.075,129.799
				l2.461,4.527H2.957L6.075,129.799z M2.957,135.333h6.028l3.977,21.331L2.957,135.333z M10.013,135.333h6.637l-3.719,21.362
				L10.013,135.333z M12.901,156.713l4.791-21.379h5.363L12.901,156.713z"/>
		</g>
	</g>
	<path fill="#ADBBC0" d="M2.796,135.331h2.526l6.651,18.218c0.41,1.227,0.921,3.07,0.921,3.07h0.069c0,0,0.479-1.844,0.922-3.07
		l6.652-18.218h2.523l-8.869,23.981h-2.524L2.796,135.331z"/>
</g>
<g opacity="0.2">
	<circle fill="none" stroke="#006EAA" stroke-width="0.4769" stroke-miterlimit="10" cx="12.722" cy="176.223" r="11.5"/>
</g>
<polyline opacity="0.2" fill="none" stroke="#006EAA" stroke-width="1.1677" stroke-linecap="round" stroke-linejoin="round" stroke-miterlimit="10" enable-background="new    " points="
	6.921,177.159 11.073,180.85 18.456,172.083 "/>
<g opacity="0.2">
	<circle fill="none" stroke="#006EAA" stroke-width="0.4769" stroke-miterlimit="10" cx="12.887" cy="205.549" r="11.5"/>
	<g>
		<path fill="#006EAA" d="M12.916,210.262c-0.058,0-0.116-0.021-0.161-0.066c-0.089-0.086-0.089-0.229,0-0.319l0.076-0.075
			c1.489-1.49,2.979-2.982,4.479-4.464c0.131-0.153,0.258-0.343,0.363-0.555c0.143-0.308,0.219-0.661,0.219-1.04
			c0-0.688-0.234-1.256-0.717-1.738s-1.05-0.715-1.736-0.715c-0.688,0-1.258,0.232-1.738,0.715
			c-0.256,0.256-0.447,0.541-0.566,0.848c-0.033,0.084-0.115,0.144-0.206,0.144c-0.096,0-0.176-0.05-0.214-0.136
			c-0.141-0.322-0.332-0.601-0.584-0.854c-0.482-0.481-1.051-0.715-1.738-0.715s-1.255,0.233-1.738,0.715
			c-0.488,0.487-0.726,1.056-0.726,1.738c0,0.381,0.078,0.733,0.228,1.042c0.095,0.205,0.217,0.395,0.367,0.566
			c0.082,0.094,0.072,0.238-0.022,0.32c-0.095,0.082-0.239,0.073-0.32-0.021c-0.178-0.204-0.324-0.43-0.435-0.67
			c-0.178-0.369-0.27-0.782-0.27-1.236c0-0.797,0.289-1.489,0.857-2.059c0.564-0.564,1.256-0.849,2.059-0.849
			s1.495,0.285,2.059,0.849c0.179,0.18,0.335,0.377,0.466,0.586c0.125-0.207,0.28-0.403,0.463-0.586
			c0.562-0.564,1.256-0.849,2.059-0.849c0.802,0,1.494,0.285,2.058,0.849c0.563,0.562,0.849,1.258,0.849,2.059
			c0,0.443-0.089,0.861-0.262,1.236c-0.126,0.25-0.273,0.474-0.443,0.67c-1.51,1.494-2.998,2.982-4.488,4.472l-0.076,0.075
			C13.031,210.241,12.974,210.262,12.916,210.262z"/>
		<path fill="#006EAA" d="M12.916,210.551c-0.137,0-0.266-0.056-0.363-0.152c-0.201-0.2-0.201-0.524,0-0.725l0.075-0.078
			c1.491-1.49,2.981-2.981,4.481-4.462c0.103-0.122,0.216-0.294,0.309-0.481c0.123-0.267,0.188-0.574,0.188-0.91
			c0-0.607-0.207-1.11-0.631-1.536c-0.427-0.423-0.929-0.63-1.535-0.63c-0.607,0-1.11,0.207-1.535,0.63
			c-0.228,0.228-0.396,0.481-0.502,0.748c-0.074,0.194-0.258,0.325-0.466,0.327c-0.217,0-0.398-0.118-0.481-0.307
			c-0.128-0.289-0.3-0.541-0.526-0.769c-0.425-0.423-0.927-0.63-1.535-0.63c-0.607,0-1.109,0.207-1.534,0.63
			c-0.431,0.433-0.641,0.935-0.641,1.536c0,0.339,0.067,0.646,0.198,0.915c0.086,0.186,0.195,0.354,0.326,0.506
			c0.09,0.103,0.135,0.235,0.125,0.374c-0.01,0.136-0.072,0.261-0.176,0.35c-0.206,0.18-0.547,0.155-0.725-0.052
			c-0.195-0.224-0.356-0.474-0.478-0.735c-0.196-0.402-0.297-0.861-0.297-1.357c0-0.875,0.317-1.637,0.941-2.264
			c0.619-0.619,1.381-0.931,2.261-0.931c0.882,0,1.642,0.313,2.262,0.931c0.093,0.092,0.181,0.191,0.261,0.293
			c0.08-0.1,0.167-0.198,0.26-0.293c0.62-0.619,1.38-0.931,2.263-0.931c0.881,0,1.642,0.313,2.262,0.931
			c0.619,0.621,0.933,1.381,0.933,2.264c0,0.486-0.098,0.941-0.288,1.357c-0.14,0.277-0.303,0.524-0.488,0.735
			c-1.522,1.51-3.014,2.999-4.502,4.488l-0.074,0.075C13.182,210.495,13.053,210.551,12.916,210.551z"/>
	</g>
</g>
<path fill="#006FAB" d="M46.27,23.575h-0.008c0.086-0.371,0.016-0.743-0.174-1.042c-0.052-0.088-0.119-0.168-0.193-0.242
	l-3.104-3.833c-0.184-0.3-0.481-0.529-0.856-0.615c-0.301-0.072-0.604-0.031-0.866,0.087l-1.31,0.819l-0.002-0.002
	c-0.205,0.145-0.47,0.208-0.733,0.146c-0.302-0.071-0.534-0.284-0.644-0.552c-0.007,0.007-0.019,0.013-0.025,0.022
	c-1.213-1.404-2.213-2.985-2.93-4.697c0.012-0.004,0.021-0.011,0.033-0.015c-0.193-0.218-0.287-0.523-0.214-0.83
	c0.063-0.274,0.244-0.487,0.476-0.607v-0.002l1.297-0.799c0.224-0.183,0.394-0.436,0.464-0.74c0.086-0.371,0.016-0.742-0.175-1.042
	l-2.062-4.479c-0.033-0.099-0.076-0.193-0.128-0.281c-0.188-0.301-0.489-0.529-0.86-0.616c-1.789-0.419-4.519,1.163-5.123,3.758
	c-0.168,0.72-0.162,1.438-0.015,2.115l-0.019,0.011c1.438,5.994,4.873,11.516,9.611,15.463l0.016-0.011
	c0.543,0.432,1.182,0.756,1.902,0.925c2.596,0.606,5.223-1.141,5.643-2.933C46.27,23.581,46.27,23.579,46.27,23.575 M40.836,25.62
	c-0.562-0.131-1.08-0.383-1.537-0.748c-0.045-0.035-0.088-0.063-0.139-0.089c-4.482-3.785-7.715-8.987-9.124-14.682
	c-0.003-0.056-0.011-0.111-0.024-0.167c-0.123-0.575-0.117-1.15,0.014-1.712c0.508-2.171,2.787-3.36,4.021-3.072
	c0.16,0.038,0.248,0.145,0.287,0.205c0.008,0.014,0.023,0.042,0.041,0.096c0.01,0.028,0.022,0.058,0.035,0.085l2.062,4.479
	c0.018,0.034,0.035,0.068,0.056,0.101c0.038,0.06,0.096,0.187,0.058,0.347c-0.017,0.08-0.058,0.148-0.119,0.208l-1.227,0.758
	c-0.004,0.004-0.012,0.006-0.018,0.01c-0.44,0.255-0.756,0.679-0.871,1.173c-0.109,0.461-0.033,0.945,0.201,1.349
	c0.008,0.02,0.016,0.04,0.024,0.059c0.746,1.779,1.781,3.441,3.082,4.944c0.013,0.011,0.021,0.022,0.031,0.034
	c0.26,0.395,0.657,0.681,1.123,0.79c0.467,0.109,0.965,0.027,1.375-0.224c0.021-0.011,0.039-0.021,0.062-0.035l1.237-0.776
	c0.084-0.026,0.161-0.032,0.242-0.014c0.157,0.038,0.245,0.145,0.284,0.205c0.021,0.032,0.043,0.064,0.065,0.094l3.101,3.833
	c0.02,0.024,0.043,0.048,0.064,0.07c0.041,0.042,0.059,0.065,0.066,0.078c0.037,0.06,0.096,0.187,0.059,0.348
	c-0.008,0.03-0.014,0.06-0.018,0.092C44.992,24.673,42.957,26.115,40.836,25.62"/>
<path fill="#006FAB" d="M46.979,31.5H28.691c-1.122,0-2.032,0.91-2.032,2.031v12.193c0,1.121,0.91,2.031,2.032,2.031h18.288
	c1.122,0,2.032-0.91,2.032-2.031V33.531C49.012,32.41,48.102,31.5,46.979,31.5 M28.691,32.516h18.288
	c0.118,0,0.231,0.025,0.339,0.063l-8.795,8.795c-0.184,0.184-0.428,0.285-0.689,0.285c-0.26,0-0.504-0.101-0.688-0.285l-8.793-8.795
	C28.459,32.541,28.572,32.516,28.691,32.516 M27.676,45.725V33.531c0-0.062,0.008-0.117,0.018-0.176l6.273,6.271L27.692,45.9
	C27.682,45.844,27.676,45.785,27.676,45.725 M46.979,46.74H28.691c-0.119,0-0.232-0.025-0.339-0.063l6.331-6.332l1.744,1.746
	c0.39,0.389,0.898,0.582,1.406,0.582c0.51,0,1.02-0.193,1.406-0.582l1.745-1.746l6.333,6.332
	C47.213,46.715,47.098,46.74,46.979,46.74 M47.995,45.725c0,0.061-0.008,0.119-0.017,0.176l-6.272-6.273l6.272-6.271
	c0.01,0.059,0.017,0.115,0.017,0.176V45.725z"/>
<g>
	<circle fill="#006FAB" cx="37.613" cy="63.188" r="11.5"/>
	<path fill="#FFFFFF" d="M44.037,64.791c-0.041-0.094-0.058-0.181-0.037-0.286c0.154-0.763,0.159-1.528,0.033-2.298
		c-0.559-3.389-3.752-5.767-7.146-5.308c-0.198,0.028-0.363-0.004-0.541-0.099c-1.436-0.765-3.189-0.503-4.356,0.643
		c-1.147,1.128-1.438,2.892-0.701,4.327c0.077,0.151,0.101,0.287,0.066,0.455c-0.071,0.345-0.077,0.697-0.093,1.063
		c0.012,0.206,0.016,0.428,0.039,0.647c0.383,3.675,3.748,6.251,7.412,5.678c0.112-0.017,0.207,0.002,0.307,0.052
		c0.693,0.348,1.436,0.435,2.186,0.315C43.654,69.59,45.021,67.072,44.037,64.791z M40.844,66.503
		c-0.412,0.468-0.93,0.768-1.519,0.938c-1.103,0.317-2.219,0.328-3.317-0.004c-1-0.3-1.737-0.92-2.03-1.959
		c-0.208-0.735,0.266-1.286,1.001-1.2c0.316,0.037,0.525,0.228,0.674,0.492c0.093,0.166,0.171,0.341,0.254,0.512
		c0.273,0.558,0.711,0.875,1.335,0.944c0.511,0.055,1.004,0.02,1.476-0.195c0.184-0.081,0.346-0.195,0.478-0.348
		c0.353-0.407,0.289-0.986-0.146-1.307c-0.418-0.31-0.922-0.393-1.41-0.503c-0.7-0.155-1.402-0.304-2.061-0.597
		c-0.681-0.302-1.232-0.743-1.412-1.513c-0.205-0.894,0.041-1.648,0.756-2.226c0.631-0.511,1.391-0.676,2.176-0.745
		c0.182-0.017,0.365-0.002,0.549-0.002c0.724-0.02,1.431,0.076,2.086,0.409c0.501,0.256,0.916,0.605,1.156,1.128
		c0.119,0.256,0.175,0.531,0.1,0.803c-0.093,0.33-0.318,0.562-0.661,0.63c-0.356,0.074-0.688,0.017-0.912-0.315
		c-0.106-0.157-0.21-0.317-0.306-0.483c-0.307-0.52-0.743-0.811-1.364-0.809c-0.282,0.002-0.563-0.007-0.841,0.059
		c-0.249,0.061-0.477,0.164-0.666,0.339c-0.336,0.313-0.323,0.743,0.036,1.028c0.237,0.188,0.517,0.293,0.806,0.367
		c0.68,0.173,1.362,0.334,2.04,0.51c0.369,0.098,0.722,0.241,1.063,0.415C41.774,63.669,41.661,65.572,40.844,66.503z"/>
</g>
<path fill="#FFFFFF" d="M42.43,88.344c0.109,0.146,0.228,0.288,0.347,0.422c0.563,0.629,1.147,1.228,1.59,1.982
	c0.093,0.154,0.174,0.32,0.235,0.493c0.115,0.325,0.006,0.616-0.28,0.736c-0.16,0.065-0.337,0.093-0.507,0.119
	c-0.127,0.02-0.258,0.005-0.389,0.007h-0.371v0.031c-0.346,0-0.694-0.002-1.043,0c-0.444,0.002-0.832-0.182-1.144-0.529
	c-0.345-0.387-0.664-0.812-0.997-1.213c-0.101-0.123-0.208-0.239-0.324-0.341c-0.267-0.236-0.533-0.187-0.66,0.171
	c-0.112,0.316-0.146,0.669-0.211,1.008c-0.006,0.036-0.002,0.076-0.002,0.115c-0.004,0.463-0.194,0.724-0.595,0.748
	c-1.044,0.068-2.056-0.069-2.999-0.653c-0.801-0.493-1.438-1.193-1.99-2.007c-0.922-1.361-1.641-2.862-2.302-4.406
	c-0.178-0.419-0.344-0.845-0.517-1.266l-0.032-0.087c-0.151-0.425-0.026-0.667,0.368-0.708c0.102-0.01,0.204-0.004,0.305-0.005
	c0.545-0.009,1.092-0.014,1.635-0.024c0.385-0.007,0.646,0.169,0.795,0.599c0.379,1.1,0.871,2.133,1.49,3.081
	c0.113,0.172,0.25,0.334,0.4,0.468c0.195,0.173,0.365,0.113,0.451-0.157c0.059-0.192,0.097-0.397,0.115-0.602
	c0.066-0.757,0.069-1.513-0.039-2.266c-0.062-0.416-0.285-0.644-0.636-0.726c-0.204-0.047-0.229-0.139-0.091-0.324
	c0.186-0.25,0.432-0.363,0.706-0.405c0.729-0.112,1.459-0.123,2.183-0.012c0.67,0.101,0.756,0.39,0.777,1.115
	c0.014,0.481-0.025,0.96-0.029,1.44c-0.005,0.467-0.01,0.933,0.01,1.398c0.004,0.154,0.06,0.319,0.125,0.455
	c0.09,0.179,0.218,0.207,0.355,0.076c0.171-0.166,0.335-0.348,0.471-0.549c0.615-0.928,1.096-1.944,1.465-3.03
	c0.151-0.45,0.26-0.53,0.681-0.532c0.735,0,1.472-0.007,2.208-0.005c0.134,0,0.273,0.012,0.4,0.056
	c0.213,0.072,0.319,0.278,0.242,0.515c-0.125,0.385-0.246,0.785-0.443,1.121c-0.486,0.84-1.018,1.645-1.53,2.467
	c-0.101,0.163-0.194,0.332-0.282,0.506C42.241,87.878,42.268,88.123,42.43,88.344z"/>
<circle fill="none" stroke="#FFFFFF" stroke-width="1.2222" stroke-miterlimit="10" cx="37.613" cy="87.5" r="11.5"/>
<path fill="#FFFFFF" d="M42.396,119.146H42.4l-0.993-7.449h-0.005c-0.017-0.121-0.116-0.217-0.242-0.217h-1.737v-0.992
	c0-1.097-0.89-1.986-1.986-1.986c-1.098,0-1.986,0.889-1.986,1.986v0.992h-1.738c-0.125,0-0.227,0.096-0.242,0.217h-0.006
	l-0.992,7.449h0.004c-0.002,0.012-0.006,0.021-0.006,0.033c0,0.137,0.11,0.247,0.248,0.247h9.435c0.137,0,0.248-0.11,0.248-0.247
	C42.401,119.168,42.396,119.158,42.396,119.146 M35.945,110.489c0-0.823,0.668-1.49,1.49-1.49s1.49,0.667,1.49,1.49v0.993h-2.98
	C35.945,111.482,35.945,110.489,35.945,110.489z M33.928,111.979h1.521v1.062c-0.148,0.086-0.248,0.244-0.248,0.428
	c0,0.274,0.223,0.497,0.497,0.497s0.497-0.223,0.497-0.497c0-0.183-0.1-0.342-0.249-0.428v-1.062h2.979v1.062
	c-0.147,0.086-0.248,0.244-0.248,0.428c0,0.274,0.222,0.497,0.496,0.497s0.498-0.223,0.498-0.497c0-0.183-0.101-0.342-0.248-0.428
	v-1.062h1.521l0.794,5.959h-8.605L33.928,111.979z M33.002,118.932l0.065-0.496h8.735l0.066,0.496H33.002z"/>
<g>
	<g>
		<g>
			<path fill="#4A96D1" d="M48.176,134.326h-4.972l1.896-4.457L48.176,134.326z M44.247,129.312l-1.963,4.613l-3.08-4.613H44.247z
				 M41.35,134.326h-5.99l2.789-4.776L41.35,134.326z M37.121,129.312l-2.617,4.494l-2.441-4.494H37.121z M31.188,129.799
				l2.461,4.527H28.07L31.188,129.799z M28.07,135.333h6.027l3.978,21.331L28.07,135.333z M35.127,135.333h6.637l-3.719,21.362
				L35.127,135.333z M38.014,156.713l4.791-21.379h5.363L38.014,156.713z"/>
		</g>
	</g>
	<path fill="#006EAA" d="M27.909,135.331h2.526l6.65,18.218c0.41,1.227,0.922,3.07,0.922,3.07h0.068c0,0,0.479-1.844,0.922-3.07
		l6.652-18.218h2.523l-8.869,23.981H36.78L27.909,135.331z"/>
</g>
<g>
	<circle fill="none" stroke="#006EAA" stroke-miterlimit="10" cx="37.836" cy="176.223" r="11.5"/>
</g>
<polyline fill="none" stroke="#006EAA" stroke-width="1.2" stroke-linecap="round" stroke-linejoin="round" stroke-miterlimit="10" points="
	32.034,177.159 36.187,180.85 43.569,172.083 "/>
<g>
	<circle fill="none" stroke="#006EAA" stroke-miterlimit="10" cx="38" cy="205.549" r="11.5"/>
	<g>
		<path fill="#006EAA" d="M38.029,210.262c-0.059,0-0.116-0.021-0.161-0.066c-0.089-0.086-0.089-0.229,0-0.319l0.076-0.075
			c1.489-1.49,2.979-2.982,4.479-4.464c0.131-0.153,0.258-0.343,0.363-0.555c0.143-0.308,0.219-0.661,0.219-1.04
			c0-0.688-0.234-1.256-0.717-1.738s-1.05-0.715-1.736-0.715c-0.688,0-1.258,0.232-1.738,0.715
			c-0.256,0.256-0.447,0.541-0.566,0.848c-0.033,0.084-0.115,0.144-0.205,0.144c-0.097,0-0.177-0.05-0.215-0.136
			c-0.141-0.322-0.332-0.601-0.584-0.854c-0.482-0.481-1.051-0.715-1.738-0.715s-1.254,0.233-1.738,0.715
			c-0.487,0.487-0.725,1.056-0.725,1.738c0,0.381,0.077,0.733,0.228,1.042c0.095,0.205,0.217,0.395,0.366,0.566
			c0.082,0.094,0.072,0.238-0.021,0.32c-0.095,0.082-0.238,0.073-0.32-0.021c-0.178-0.204-0.324-0.43-0.435-0.67
			c-0.179-0.369-0.271-0.782-0.271-1.236c0-0.797,0.289-1.489,0.857-2.059c0.564-0.564,1.256-0.849,2.059-0.849
			s1.496,0.285,2.06,0.849c0.179,0.18,0.335,0.377,0.466,0.586c0.125-0.207,0.28-0.403,0.463-0.586
			c0.562-0.564,1.256-0.849,2.059-0.849c0.802,0,1.494,0.285,2.058,0.849c0.563,0.562,0.849,1.258,0.849,2.059
			c0,0.443-0.089,0.861-0.262,1.236c-0.126,0.25-0.273,0.474-0.443,0.67c-1.51,1.494-2.998,2.982-4.488,4.472l-0.076,0.075
			C38.145,210.241,38.088,210.262,38.029,210.262z"/>
		<path fill="#006EAA" d="M38.029,210.551c-0.137,0-0.266-0.056-0.363-0.152c-0.201-0.2-0.201-0.524,0-0.725l0.075-0.078
			c1.491-1.49,2.981-2.981,4.481-4.462c0.103-0.122,0.216-0.294,0.309-0.481c0.123-0.267,0.188-0.574,0.188-0.91
			c0-0.607-0.207-1.11-0.631-1.536c-0.427-0.423-0.929-0.63-1.535-0.63c-0.607,0-1.11,0.207-1.535,0.63
			c-0.228,0.228-0.396,0.481-0.502,0.748c-0.074,0.194-0.258,0.325-0.467,0.327c-0.217,0-0.397-0.118-0.48-0.307
			c-0.128-0.289-0.301-0.541-0.525-0.769c-0.426-0.423-0.928-0.63-1.535-0.63s-1.109,0.207-1.535,0.63
			c-0.43,0.433-0.641,0.935-0.641,1.536c0,0.339,0.067,0.646,0.198,0.915c0.086,0.186,0.194,0.354,0.326,0.506
			c0.09,0.103,0.135,0.235,0.125,0.374c-0.011,0.136-0.072,0.261-0.177,0.35c-0.205,0.18-0.547,0.155-0.725-0.052
			c-0.195-0.224-0.355-0.474-0.478-0.735c-0.196-0.402-0.298-0.861-0.298-1.357c0-0.875,0.317-1.637,0.941-2.264
			c0.619-0.619,1.381-0.931,2.262-0.931s1.642,0.313,2.262,0.931c0.093,0.092,0.181,0.191,0.261,0.293
			c0.08-0.1,0.167-0.198,0.26-0.293c0.62-0.619,1.38-0.931,2.263-0.931c0.881,0,1.642,0.313,2.262,0.931
			c0.619,0.621,0.933,1.381,0.933,2.264c0,0.486-0.098,0.941-0.288,1.357c-0.14,0.277-0.303,0.524-0.488,0.735
			c-1.522,1.51-3.014,2.999-4.502,4.488l-0.074,0.075C38.295,210.495,38.166,210.551,38.029,210.551z"/>
	</g>
</g>
<g>
	<g>
		<path fill="#006FAB" d="M23.562,229.501l-4.368-4.32c-0.277-0.277-0.654-0.429-1.04-0.429h-2.203v-0.826
			c0-0.615-0.502-1.111-1.116-1.111H2.111c-0.616,0-1.111,0.496-1.111,1.111v7.439h23v-0.81
			C24,230.159,23.843,229.778,23.562,229.501z M21.658,229.644h-4.229c-0.095,0-0.172-0.077-0.172-0.172v-3.267
			c0-0.096,0.077-0.172,0.172-0.172h0.806c0.042,0,0.091,0.019,0.123,0.047l3.42,3.268
			C21.892,229.454,21.816,229.644,21.658,229.644z"/>
		<path fill="#006FAB" d="M1,234.442c0,0.614,0.498,1.111,1.111,1.111H3.6c0.215-1.476,1.486-2.61,3.017-2.61
			c1.529,0,2.801,1.134,3.016,2.61h6.03c0.215-1.476,1.487-2.61,3.016-2.61c1.534,0,2.805,1.134,3.021,2.61h1.189
			c0.614,0,1.111-0.498,1.111-1.111v-2.462H1V234.442z"/>
		<path fill="#006FAB" d="M18.682,233.688c-1.272,0-2.308,1.03-2.308,2.303s1.036,2.309,2.308,2.309
			c1.274,0,2.304-1.035,2.304-2.309C20.986,234.718,19.956,233.688,18.682,233.688z M18.682,237.145
			c-0.637,0-1.153-0.515-1.153-1.154c0-0.634,0.516-1.153,1.153-1.153c0.636,0,1.15,0.519,1.15,1.153
			C19.832,236.631,19.317,237.145,18.682,237.145z"/>
		<path fill="#006FAB" d="M6.618,233.688c-1.273,0-2.308,1.03-2.308,2.303s1.035,2.309,2.308,2.309s2.303-1.035,2.303-2.309
			C8.921,234.718,7.891,233.688,6.618,233.688z M6.618,237.145c-0.639,0-1.154-0.515-1.154-1.154c0-0.634,0.516-1.153,1.154-1.153
			c0.634,0,1.154,0.519,1.154,1.153C7.771,236.631,7.252,237.145,6.618,237.145z"/>
	</g>
</g>
<g>
	<path fill="#006FAB" d="M3.472,245.903h16.757c1.36,0,2.472,1.113,2.472,2.472v12.362c0,1.36-1.113,2.472-2.472,2.472H3.472
		c-1.36,0-2.472-1.112-2.472-2.472v-12.362C1,247.016,2.112,245.903,3.472,245.903z"/>
	<path fill="#FFFFFF" d="M3.71,247.248h16.281c0.749,0,1.36,0.613,1.36,1.36v11.898c0,0.748-0.611,1.36-1.36,1.36H3.71
		c-0.748,0-1.36-0.612-1.36-1.36v-11.898C2.35,247.86,2.962,247.248,3.71,247.248z"/>
	<path fill="#006FAB" d="M3.765,247.535h16.171c0.613,0,1.115,0.502,1.115,1.116v11.812c0,0.613-0.502,1.115-1.115,1.115H3.765
		c-0.613,0-1.115-0.502-1.115-1.115v-11.812C2.65,248.037,3.152,247.535,3.765,247.535z"/>
	<g>
		<path fill="#006FAB" stroke="#FFFFFF" stroke-width="0.8028" stroke-miterlimit="10" d="M14.758,251.413h8.344
			c0.495,0,0.898,0.404,0.898,0.898v4.492c0,0.495-0.404,0.898-0.898,0.898h-8.344c-0.495,0-0.899-0.404-0.899-0.898v-4.492
			C13.859,251.817,14.263,251.413,14.758,251.413z"/>
		<path fill="#006FAB" stroke="#FFFFFF" stroke-width="0.8028" stroke-miterlimit="10" d="M14.758,251.413h8.344
			c0.495,0,0.898,0.404,0.898,0.898v4.492c0,0.495-0.404,0.898-0.898,0.898h-8.344c-0.495,0-0.899-0.404-0.899-0.898v-4.492
			C13.859,251.817,14.263,251.413,14.758,251.413z"/>
	</g>
	<path fill="#FFFFFF" d="M16.982,256.398c1.014,0,1.841-0.827,1.841-1.841c0-1.015-0.828-1.842-1.841-1.842
		c-1.014,0-1.842,0.827-1.842,1.842C15.14,255.571,15.967,256.398,16.982,256.398z"/>
</g>
<g>
	<g>
		<path fill="#006FAB" d="M13.055,286.029c0.036-0.073,0.073-0.148,0.106-0.223c0.042-0.1,0.042-0.205,0.032-0.307
			c-0.049-0.464,0.114-0.879,0.653-1.139c0.208-0.099,0.434-0.174,0.657-0.247c0.354-0.116,0.719-0.21,1.056-0.386
			c-0.05,0.1-0.098,0.192-0.143,0.283c-0.103,0.212-0.204,0.426-0.252,0.654c-0.029,0.135-0.043,0.273-0.065,0.409
			c-0.023,0.143-0.054,0.286-0.127,0.418c-0.063,0.115-0.158,0.206-0.292,0.264c-0.335,0.143-0.671,0.283-1.006,0.425
			c-0.02,0.009-0.039,0.018-0.059,0.026c0.001,0.004,0.003,0.008,0.005,0.013c0.056-0.013,0.112-0.027,0.168-0.039
			c0.218-0.045,0.437-0.077,0.661-0.093c0.28-0.018,0.554,0.001,0.825,0.063c0.177,0.04,0.323,0.124,0.448,0.233
			c0.169,0.149,0.337,0.298,0.495,0.455c0.243,0.241,0.538,0.419,0.857,0.576c0.151,0.073,0.304,0.145,0.466,0.223
			c-0.099,0.018-0.19,0.028-0.278,0.053c-0.299,0.08-0.599,0.162-0.896,0.248c-0.211,0.06-0.424,0.116-0.647,0.129
			c-0.231,0.016-0.457-0.015-0.681-0.068c-0.42-0.1-0.727-0.319-0.954-0.634c-0.186-0.256-0.285-0.364-0.559-0.518
			c0.162,0.06,0.322,0.127,0.488,0.18c0.236,0.075,0.482,0.116,0.734,0.131c0.313,0.017,0.626,0.028,0.94,0.037
			c0.076,0.004,0.152-0.006,0.231-0.021c-0.016-0.004-0.031-0.01-0.048-0.013c-0.43-0.08-0.859-0.159-1.29-0.238
			c-0.455-0.082-0.837-0.286-1.188-0.538c-0.101-0.072-0.098-0.072-0.038-0.17c0.142-0.233,0.28-0.468,0.423-0.701
			c0.162-0.265,0.376-0.5,0.585-0.738c0.062-0.071,0.125-0.14,0.193-0.216c-0.076,0.018-0.591,0.45-0.827,0.679
			C13.475,285.486,13.251,285.75,13.055,286.029z"/>
		<path fill="#006FAB" d="M11.384,286.205c-0.02-0.008-0.039-0.017-0.059-0.026c-0.312-0.13-0.623-0.262-0.936-0.39
			c-0.252-0.102-0.389-0.278-0.441-0.504c-0.036-0.157-0.059-0.318-0.083-0.476c-0.032-0.207-0.099-0.405-0.187-0.598
			c-0.073-0.16-0.152-0.316-0.23-0.476c0.081,0.036,0.158,0.078,0.242,0.107c0.301,0.103,0.604,0.202,0.906,0.301
			c0.256,0.084,0.515,0.166,0.732,0.314c0.283,0.192,0.453,0.439,0.475,0.753c0.008,0.104,0.007,0.21,0.001,0.314
			c-0.011,0.16,0.028,0.307,0.113,0.446c0.011,0.019,0.022,0.039,0.028,0.062c-0.383-0.576-0.918-1.037-1.481-1.48
			c-0.005,0.004-0.01,0.008-0.015,0.01c0.011,0.014,0.022,0.028,0.033,0.041c0.219,0.262,0.453,0.517,0.654,0.789
			c0.163,0.22,0.286,0.461,0.427,0.692c0.04,0.067,0.084,0.13,0.122,0.197c0.008,0.014,0.003,0.044-0.01,0.053
			c-0.308,0.219-0.62,0.436-1.016,0.527c-0.38,0.087-0.764,0.161-1.148,0.238c-0.128,0.024-0.26,0.041-0.389,0.062
			c-0.014,0.003-0.027,0.009-0.04,0.022c0.075,0.004,0.15,0.013,0.224,0.013c0.19-0.001,0.38-0.001,0.57-0.009
			c0.373-0.018,0.744-0.05,1.099-0.158c0.158-0.049,0.31-0.115,0.464-0.172c0.012-0.004,0.023-0.009,0.037-0.01
			c-0.25,0.121-0.417,0.31-0.559,0.515c-0.281,0.407-0.702,0.619-1.237,0.691c-0.354,0.048-0.688-0.01-1.02-0.105
			c-0.307-0.089-0.614-0.174-0.923-0.256c-0.086-0.024-0.178-0.035-0.28-0.053c0.099-0.048,0.191-0.085,0.279-0.131
			c0.234-0.125,0.48-0.239,0.695-0.385c0.192-0.131,0.352-0.297,0.524-0.449c0.111-0.098,0.219-0.199,0.33-0.297
			c0.176-0.156,0.397-0.23,0.641-0.265c0.188-0.027,0.377-0.039,0.567-0.028c0.279,0.015,0.554,0.055,0.823,0.122
			c0.021,0.005,0.042,0.008,0.063,0.013C11.381,286.213,11.383,286.209,11.384,286.205z"/>
		<path fill="#006FAB" d="M9.232,285.144c-0.189-0.624-0.55-1.176-0.952-1.712c-0.006,0.003-0.011,0.004-0.017,0.005
			c0.006,0.015,0.011,0.031,0.018,0.046c0.119,0.265,0.25,0.527,0.352,0.798c0.077,0.203,0.117,0.417,0.174,0.627
			c0.032,0.121,0.064,0.243,0.098,0.364c0.009,0.031-0.001,0.046-0.032,0.058c-0.267,0.104-0.538,0.201-0.829,0.246
			c-0.102,0.014-0.206,0.022-0.309,0.022c-0.255,0-0.51-0.001-0.764-0.012c-0.233-0.009-0.465-0.028-0.698-0.044
			c-0.005,0-0.01,0.004-0.026,0.009c0.027,0.01,0.044,0.019,0.063,0.023c0.361,0.096,0.73,0.174,1.106,0.217
			c0.142,0.017,0.286,0.026,0.429,0.03c0.214,0.008,0.422-0.031,0.631-0.06c0.03-0.005,0.06-0.01,0.097-0.017
			c-0.063,0.021-0.119,0.036-0.175,0.055c-0.204,0.069-0.364,0.194-0.523,0.318c-0.209,0.162-0.438,0.295-0.721,0.341
			c-0.501,0.08-0.968,0.009-1.395-0.233c-0.241-0.138-0.48-0.279-0.724-0.413c-0.125-0.068-0.261-0.124-0.386-0.183
			c0.202-0.045,0.41-0.091,0.619-0.139c0.335-0.073,0.634-0.21,0.921-0.372c0.193-0.109,0.395-0.21,0.598-0.304
			c0.177-0.084,0.372-0.077,0.567-0.062c0.449,0.036,0.851,0.184,1.235,0.376c0.01,0.005,0.02,0.009,0.031,0.013
			c0.005,0.003,0.011,0.004,0.023-0.003c-0.019-0.014-0.038-0.031-0.058-0.045c-0.26-0.196-0.521-0.39-0.779-0.585
			c-0.151-0.116-0.214-0.268-0.207-0.435c0.007-0.183,0.044-0.364,0.057-0.548c0.011-0.152,0.017-0.305,0.008-0.457
			c-0.008-0.151-0.036-0.3-0.057-0.45c-0.007-0.052-0.019-0.103-0.03-0.16c0.259,0.235,0.57,0.404,0.869,0.584
			c0.218,0.13,0.435,0.26,0.608,0.435c0.163,0.166,0.26,0.354,0.285,0.571c0.021,0.179-0.032,0.347-0.089,0.517
			c-0.023,0.069-0.057,0.139-0.06,0.21c-0.004,0.102,0.015,0.205,0.026,0.306C9.219,285.103,9.227,285.123,9.232,285.144z"/>
		<path fill="#006FAB" d="M15.77,285.144c0.054-0.183,0.07-0.363-0.008-0.543c-0.06-0.142-0.102-0.287-0.109-0.437
			c-0.008-0.16,0.036-0.313,0.117-0.457c0.117-0.212,0.309-0.368,0.524-0.503c0.251-0.158,0.508-0.307,0.758-0.466
			c0.129-0.082,0.247-0.179,0.365-0.265c-0.017,0.102-0.037,0.21-0.054,0.319c-0.041,0.27-0.062,0.539-0.012,0.809
			c0.029,0.156,0.044,0.314,0.048,0.471c0.004,0.167-0.056,0.32-0.207,0.434c-0.258,0.198-0.519,0.391-0.779,0.587
			c-0.02,0.015-0.04,0.03-0.06,0.045c0.002,0.003,0.004,0.006,0.007,0.009c0.022-0.009,0.044-0.017,0.065-0.027
			c0.311-0.154,0.636-0.278,0.989-0.338c0.213-0.037,0.429-0.058,0.644-0.014c0.17,0.033,0.317,0.113,0.464,0.192
			c0.143,0.077,0.286,0.154,0.426,0.235c0.296,0.171,0.628,0.265,0.968,0.342c0.145,0.032,0.292,0.06,0.445,0.093
			c-0.283,0.112-0.541,0.251-0.791,0.4c-0.115,0.069-0.231,0.138-0.348,0.202c-0.25,0.139-0.52,0.229-0.82,0.248
			c-0.317,0.022-0.624-0.001-0.91-0.13c-0.164-0.073-0.3-0.178-0.435-0.282c-0.184-0.143-0.381-0.269-0.588-0.309
			c0.186,0.018,0.411,0.055,0.638,0.06c0.386,0.005,0.765-0.059,1.139-0.14c0.146-0.032,0.291-0.068,0.437-0.104
			c0.021-0.004,0.04-0.014,0.056-0.032c-0.098,0.006-0.196,0.01-0.295,0.017c-0.073,0.005-0.145,0.015-0.217,0.017
			c-0.339,0.008-0.679,0.021-1.018,0.019c-0.289-0.001-0.562-0.077-0.827-0.171c-0.079-0.028-0.158-0.059-0.238-0.086
			c-0.046-0.017-0.06-0.036-0.048-0.082c0.082-0.301,0.14-0.606,0.243-0.902c0.103-0.295,0.249-0.579,0.376-0.868
			c0.007-0.015,0.014-0.032,0.012-0.05C16.317,283.967,15.956,284.518,15.77,285.144z"/>
		<path fill="#006FAB" d="M6.216,280.954c0.195,0.301,0.465,0.54,0.71,0.796c0.142,0.149,0.282,0.301,0.37,0.481
			c0.154,0.313,0.118,0.616-0.085,0.906c-0.036,0.051-0.071,0.105-0.112,0.156c-0.104,0.126-0.13,0.271-0.135,0.421
			c-0.002,0.041-0.001,0.082-0.001,0.113c-0.008-0.145-0.009-0.301-0.026-0.457s-0.044-0.313-0.078-0.467
			c-0.033-0.154-0.077-0.309-0.123-0.461s-0.102-0.302-0.153-0.453c-0.007,0.001-0.014,0.003-0.021,0.004
			c0.004,0.032,0.006,0.063,0.011,0.095c0.022,0.149,0.049,0.296,0.065,0.444c0.022,0.197,0.041,0.394,0.017,0.591
			c-0.008,0.067-0.01,0.135-0.012,0.202c-0.005,0.145-0.01,0.289-0.014,0.434c-0.001,0.085-0.001,0.086-0.099,0.1
			c-0.229,0.033-0.459,0.054-0.692,0.049c-0.215-0.006-0.421-0.053-0.624-0.106c-0.346-0.091-0.688-0.192-1.032-0.288
			c-0.02-0.005-0.041-0.009-0.064-0.006c0.645,0.347,1.301,0.665,2.097,0.663c-0.221-0.003-0.424,0.048-0.622,0.127
			c-0.168,0.068-0.334,0.14-0.51,0.189c-0.302,0.084-0.602,0.035-0.895-0.049c-0.306-0.086-0.549-0.252-0.759-0.457
			c-0.191-0.185-0.383-0.373-0.578-0.557c-0.071-0.066-0.153-0.122-0.244-0.194c0.07,0.005,0.124,0.012,0.178,0.01
			c0.23,0,0.46,0,0.69-0.009c0.233-0.01,0.454-0.072,0.675-0.131c0.205-0.055,0.41-0.104,0.617-0.154
			c0.213-0.049,0.414,0,0.61,0.066c0.37,0.124,0.678,0.325,0.958,0.562c0.025,0.021,0.05,0.041,0.075,0.062
			c0.002,0.001,0.006,0.001,0.021,0.001c-0.019-0.024-0.034-0.044-0.049-0.063c-0.179-0.229-0.36-0.458-0.538-0.688
			c-0.111-0.143-0.13-0.3-0.072-0.458c0.056-0.154,0.122-0.305,0.196-0.453c0.097-0.197,0.151-0.403,0.187-0.612
			c0.02-0.118,0.032-0.238,0.048-0.356C6.204,280.991,6.21,280.977,6.216,280.954z"/>
		<path fill="#006FAB" d="M22.381,283.241c-0.055,0.044-0.114,0.082-0.165,0.13c-0.189,0.175-0.378,0.35-0.562,0.529
			c-0.181,0.176-0.368,0.346-0.616,0.454c-0.209,0.091-0.43,0.143-0.663,0.167c-0.284,0.028-0.54-0.042-0.791-0.145
			c-0.159-0.064-0.321-0.125-0.487-0.172c-0.098-0.028-0.207-0.026-0.329-0.041c0.58,0.013,1.086-0.153,1.572-0.377
			c0.168-0.077,0.329-0.162,0.493-0.244c0.018-0.009,0.033-0.019,0.044-0.04c-0.02,0.004-0.041,0.008-0.061,0.013
			c-0.399,0.109-0.798,0.22-1.198,0.327c-0.232,0.062-0.47,0.08-0.711,0.064c-0.158-0.01-0.315-0.032-0.472-0.049
			c-0.055-0.006-0.064-0.039-0.065-0.077c-0.003-0.095-0.008-0.19-0.011-0.286c-0.008-0.224-0.025-0.448-0.021-0.67
			c0.003-0.162,0.031-0.324,0.051-0.485c0.014-0.107,0.033-0.212,0.048-0.318c0.002-0.009-0.001-0.018-0.009-0.03
			c-0.239,0.6-0.404,1.209-0.393,1.846c0-0.049,0.003-0.099-0.001-0.148c-0.004-0.05-0.007-0.103-0.023-0.151
			c-0.026-0.076-0.052-0.152-0.096-0.22c-0.091-0.14-0.203-0.271-0.258-0.428c-0.095-0.27-0.048-0.526,0.11-0.769
			c0.129-0.201,0.305-0.371,0.476-0.544c0.193-0.195,0.387-0.387,0.541-0.625c0.006,0.036,0.01,0.059,0.013,0.082
			c0.004,0.026,0.006,0.053,0.012,0.078c0.037,0.196,0.062,0.394,0.118,0.585c0.047,0.158,0.128,0.31,0.198,0.462
			c0.064,0.139,0.123,0.277,0.132,0.427c0.006,0.099-0.024,0.193-0.088,0.277c-0.182,0.238-0.367,0.473-0.552,0.71
			c-0.015,0.019-0.03,0.037-0.046,0.057c0.003,0.003,0.006,0.005,0.01,0.009c0.017-0.013,0.034-0.024,0.05-0.037
			c0.204-0.178,0.425-0.334,0.675-0.459c0.208-0.103,0.426-0.184,0.665-0.211c0.137-0.018,0.271,0.009,0.401,0.042
			c0.248,0.063,0.494,0.13,0.742,0.193c0.168,0.044,0.34,0.066,0.515,0.067c0.184,0.001,0.368,0.006,0.552,0.008
			c0.065,0,0.13-0.006,0.194-0.01C22.377,283.235,22.38,283.237,22.381,283.241z"/>
		<path fill="#006FAB" d="M2.704,281.216c0.483,0.43,0.972,0.853,1.673,1.027c-0.239-0.057-0.468-0.01-0.701,0.026
			c-0.131,0.022-0.265,0.044-0.397,0.043c-0.226,0-0.434-0.067-0.632-0.16c-0.311-0.148-0.539-0.362-0.695-0.634
			c-0.127-0.219-0.254-0.439-0.386-0.656c-0.045-0.073-0.102-0.142-0.161-0.221c0.084,0.021,0.154,0.041,0.226,0.057
			c0.24,0.049,0.479,0.102,0.721,0.139c0.116,0.018,0.24,0.006,0.36,0.005c0.088,0,0.176-0.009,0.264-0.009
			c0.178-0.001,0.356-0.004,0.534,0c0.118,0.004,0.227,0.042,0.33,0.094c0.275,0.134,0.492,0.324,0.677,0.542
			c0.078,0.093,0.147,0.192,0.22,0.29c0.014,0.018,0.028,0.036,0.041,0.055c0.005-0.003,0.009-0.004,0.014-0.006
			c-0.033-0.077-0.071-0.154-0.1-0.233c-0.083-0.219-0.167-0.437-0.241-0.657c-0.037-0.108,0-0.215,0.061-0.309
			c0.069-0.107,0.142-0.212,0.233-0.305c0.248-0.252,0.414-0.54,0.549-0.845c0.021-0.048,0.043-0.094,0.067-0.151
			c0.026,0.071,0.043,0.138,0.074,0.199c0.119,0.234,0.243,0.468,0.364,0.702c0.083,0.16,0.162,0.32,0.188,0.495
			c0.041,0.261-0.022,0.5-0.22,0.708c-0.054,0.055-0.11,0.111-0.174,0.157c-0.157,0.114-0.283,0.246-0.334,0.423
			c0.08-0.27,0.129-0.544,0.147-0.822c0.019-0.279,0.017-0.557-0.005-0.835c-0.005-0.001-0.011-0.003-0.016-0.003
			c-0.007,0.033-0.016,0.069-0.021,0.104c-0.048,0.403-0.137,0.799-0.3,1.18c-0.051,0.121-0.091,0.244-0.131,0.368
			c-0.015,0.045-0.03,0.068-0.096,0.057c-0.21-0.035-0.424-0.054-0.631-0.096c-0.228-0.045-0.427-0.153-0.624-0.259
			c-0.273-0.147-0.54-0.302-0.81-0.453c-0.019-0.01-0.038-0.021-0.056-0.03C2.712,281.207,2.708,281.211,2.704,281.216z"/>
		<path fill="#006FAB" d="M23.591,280.641c-0.068,0.095-0.136,0.179-0.191,0.269c-0.122,0.202-0.239,0.405-0.355,0.61
			c-0.213,0.374-0.554,0.62-1.012,0.747c-0.236,0.067-0.471,0.046-0.708,0.004c-0.124-0.021-0.248-0.044-0.373-0.051
			c-0.107-0.006-0.216,0.01-0.328,0.018c0.701-0.17,1.189-0.593,1.673-1.021c-0.003-0.004-0.007-0.009-0.011-0.014
			c-0.022,0.012-0.044,0.022-0.065,0.033c-0.369,0.216-0.739,0.432-1.136,0.61c-0.197,0.089-0.407,0.133-0.624,0.162
			c-0.12,0.015-0.242,0.027-0.368,0.04c-0.104-0.286-0.223-0.564-0.305-0.849c-0.081-0.284-0.124-0.576-0.187-0.865
			c-0.04,0.557-0.029,1.112,0.141,1.657c-0.052-0.139-0.125-0.265-0.258-0.362c-0.047-0.033-0.09-0.071-0.135-0.107
			c-0.187-0.156-0.313-0.338-0.343-0.562c-0.022-0.167,0-0.333,0.073-0.49c0.075-0.163,0.157-0.324,0.243-0.484
			c0.118-0.22,0.242-0.436,0.314-0.684c0.033,0.073,0.062,0.136,0.09,0.199c0.137,0.318,0.333,0.606,0.588,0.866
			c0.069,0.071,0.124,0.154,0.174,0.238c0.076,0.124,0.096,0.255,0.042,0.391c-0.099,0.248-0.197,0.497-0.296,0.746
			c-0.008,0.021-0.017,0.041-0.026,0.062c0.005,0.001,0.01,0.004,0.015,0.006c0.014-0.018,0.028-0.037,0.04-0.057
			c0.179-0.263,0.388-0.506,0.67-0.697c0.154-0.104,0.316-0.202,0.519-0.22c0.127-0.01,0.256-0.008,0.383-0.008
			c0.074-0.001,0.15,0.005,0.224,0.006c0.159,0.003,0.318,0.01,0.476,0.005c0.354-0.01,0.686-0.109,1.023-0.193
			C23.565,280.646,23.573,280.645,23.591,280.641z"/>
		<path fill="#006FAB" d="M4.156,280.07c0.308-0.462,0.466-0.964,0.597-1.474c-0.006-0.003-0.012-0.005-0.018-0.006
			c-0.013,0.024-0.025,0.049-0.039,0.073c-0.119,0.226-0.227,0.459-0.362,0.678c-0.118,0.192-0.268,0.368-0.404,0.552
			c-0.033,0.044-0.066,0.089-0.097,0.134c-0.015,0.022-0.029,0.031-0.06,0.022c-0.391-0.118-0.746-0.283-1.026-0.553
			c-0.223-0.216-0.449-0.43-0.674-0.643c-0.011-0.01-0.023-0.019-0.042-0.023c0.308,0.493,0.629,0.976,1.208,1.283
			c-0.083-0.023-0.164-0.055-0.25-0.068c-0.131-0.021-0.265-0.037-0.398-0.04c-0.394-0.006-0.705-0.152-0.967-0.396
			c-0.23-0.214-0.343-0.471-0.4-0.751c-0.056-0.275-0.113-0.549-0.225-0.813c-0.002-0.003,0-0.006,0-0.009
			c0.14,0.072,0.281,0.142,0.42,0.214c0.293,0.152,0.613,0.238,0.948,0.291c0.12,0.018,0.238,0.046,0.358,0.069
			c0.269,0.053,0.456,0.201,0.61,0.386c0.193,0.235,0.315,0.497,0.401,0.771c0.005,0.017,0.011,0.033,0.018,0.051
			c0.005-0.001,0.01-0.001,0.014-0.003c-0.005-0.05-0.009-0.1-0.014-0.151c-0.01-0.099-0.024-0.197-0.03-0.295
			c-0.008-0.114-0.003-0.23-0.015-0.345c-0.019-0.192,0.085-0.333,0.24-0.454c0.069-0.054,0.141-0.107,0.219-0.152
			c0.29-0.17,0.515-0.394,0.72-0.634c0.04-0.046,0.079-0.094,0.122-0.144c0.003,0.009,0.005,0.014,0.005,0.019
			c-0.01,0.243,0.049,0.48,0.099,0.717c0.041,0.197,0.083,0.391,0.076,0.592c-0.013,0.327-0.181,0.575-0.506,0.744
			c-0.034,0.019-0.069,0.037-0.105,0.053C4.407,279.833,4.251,279.919,4.156,280.07z"/>
		<path fill="#006FAB" d="M19.988,277.646c0.116,0.127,0.233,0.257,0.35,0.385c0.156,0.17,0.359,0.296,0.555,0.427
			c0.107,0.073,0.204,0.159,0.295,0.25c0.073,0.071,0.099,0.162,0.1,0.26c0.002,0.266-0.019,0.533-0.058,0.796
			c-0.002,0.015,0,0.032,0,0.049c0.005,0,0.009,0.001,0.014,0.001c0.006-0.017,0.013-0.033,0.018-0.051
			c0.076-0.243,0.183-0.473,0.336-0.688c0.191-0.269,0.451-0.445,0.82-0.5c0.222-0.033,0.443-0.077,0.659-0.131
			c0.266-0.066,0.499-0.194,0.735-0.314c0.061-0.031,0.12-0.064,0.188-0.099c-0.004,0.014-0.004,0.024-0.008,0.033
			c-0.102,0.236-0.155,0.484-0.205,0.731c-0.05,0.248-0.119,0.49-0.302,0.695c-0.2,0.224-0.436,0.41-0.767,0.477
			c-0.129,0.026-0.264,0.037-0.397,0.044c-0.195,0.008-0.384,0.031-0.563,0.104c0.28-0.152,0.51-0.346,0.705-0.572
			c0.193-0.225,0.362-0.462,0.51-0.71c-0.005-0.004-0.01-0.006-0.016-0.01c-0.038,0.039-0.075,0.077-0.114,0.113
			c-0.235,0.22-0.469,0.44-0.707,0.657c-0.207,0.189-0.468,0.306-0.745,0.4c-0.055,0.019-0.11,0.039-0.166,0.054
			c-0.015,0.004-0.044-0.001-0.052-0.012c-0.173-0.232-0.356-0.457-0.51-0.699c-0.137-0.215-0.241-0.448-0.36-0.672
			c-0.013-0.025-0.025-0.05-0.048-0.072c0.122,0.515,0.28,1.016,0.589,1.476c-0.073-0.085-0.142-0.171-0.252-0.224
			c-0.089-0.044-0.179-0.084-0.266-0.127c-0.27-0.134-0.444-0.331-0.497-0.593c-0.024-0.121-0.025-0.251-0.008-0.373
			c0.039-0.269,0.101-0.536,0.146-0.805C19.984,277.845,19.982,277.744,19.988,277.646z"/>
		<path fill="#006FAB" d="M20.391,276.878c0.267,0.44,0.554,0.868,0.968,1.226c-0.137-0.127-0.322-0.159-0.505-0.198
			c-0.463-0.096-0.733-0.353-0.801-0.757c-0.026-0.157-0.038-0.316-0.06-0.475c-0.028-0.203-0.06-0.405-0.089-0.601
			c0.077,0.053,0.17,0.114,0.262,0.178c0.235,0.16,0.497,0.278,0.779,0.365c0.075,0.023,0.146,0.058,0.217,0.09
			c0.189,0.085,0.293,0.22,0.33,0.398c0.044,0.216,0.093,0.43,0.14,0.643c0.002,0.012,0.009,0.023,0.013,0.035
			c0.006-0.001,0.013-0.001,0.018-0.001c0-0.027,0-0.053,0-0.08c-0.003-0.271,0.044-0.536,0.16-0.791
			c0.091-0.199,0.234-0.36,0.462-0.459c0.161-0.071,0.318-0.145,0.479-0.215c0.284-0.121,0.507-0.306,0.725-0.498
			c0.062-0.055,0.123-0.112,0.188-0.17c-0.014,0.226-0.01,0.449,0.014,0.672c0.024,0.225,0.051,0.455-0.032,0.678
			c-0.103,0.277-0.266,0.52-0.563,0.677c-0.088,0.046-0.188,0.081-0.287,0.112c-0.205,0.063-0.416,0.112-0.586,0.242
			c0.439-0.404,0.592-0.915,0.742-1.427c-0.006-0.003-0.011-0.005-0.017-0.008c-0.009,0.014-0.019,0.027-0.027,0.042
			c-0.175,0.287-0.346,0.575-0.526,0.859c-0.161,0.256-0.422,0.427-0.692,0.591c-0.012,0.006-0.041,0.003-0.052-0.005
			c-0.437-0.337-0.875-0.673-1.209-1.094c-0.011-0.014-0.024-0.026-0.037-0.039C20.401,276.871,20.396,276.875,20.391,276.878z"/>
		<path fill="#006FAB" d="M3.355,277.782c0.007-0.031,0.015-0.064,0.022-0.095c0.052-0.223,0.102-0.444,0.156-0.666
			c0.037-0.149,0.157-0.246,0.307-0.315c0.087-0.041,0.177-0.08,0.27-0.108c0.311-0.094,0.58-0.247,0.835-0.421
			c0.053-0.037,0.107-0.075,0.166-0.115c-0.018,0.077-0.041,0.151-0.052,0.225c-0.022,0.144-0.034,0.287-0.055,0.431
			c-0.027,0.187-0.043,0.376-0.094,0.558c-0.094,0.34-0.356,0.547-0.752,0.628c-0.039,0.009-0.078,0.018-0.117,0.023
			c-0.153,0.023-0.285,0.084-0.401,0.175c0.414-0.356,0.701-0.785,0.968-1.225c-0.005-0.003-0.01-0.006-0.015-0.009
			c-0.025,0.027-0.05,0.053-0.075,0.08c-0.146,0.156-0.283,0.318-0.441,0.462c-0.166,0.153-0.352,0.29-0.53,0.432
			c-0.06,0.048-0.123,0.095-0.18,0.145c-0.033,0.03-0.055,0.03-0.096,0.006c-0.372-0.21-0.646-0.49-0.841-0.834
			c-0.114-0.203-0.235-0.403-0.353-0.605c-0.009-0.014-0.018-0.028-0.034-0.041c0.055,0.263,0.143,0.513,0.255,0.76
			c0.111,0.248,0.263,0.476,0.474,0.674c-0.042-0.027-0.08-0.06-0.126-0.079c-0.139-0.054-0.278-0.112-0.423-0.152
			c-0.544-0.149-0.813-0.49-0.919-0.948c-0.034-0.147-0.018-0.295-0.002-0.441c0.011-0.106,0.021-0.21,0.024-0.315
			c0.004-0.115,0.002-0.229,0.001-0.344c0-0.032-0.004-0.066-0.006-0.103c0.06,0.054,0.118,0.104,0.175,0.158
			c0.278,0.262,0.602,0.472,0.982,0.618c0.081,0.03,0.155,0.072,0.234,0.105c0.226,0.095,0.368,0.255,0.459,0.45
			c0.085,0.183,0.137,0.372,0.152,0.569c0.007,0.09,0.009,0.18,0.013,0.271c0.001,0.013,0.003,0.027,0.004,0.04
			C3.345,277.781,3.35,277.782,3.355,277.782z"/>
		<path fill="#006FAB" d="M19.394,274.661c0.219,0.068,0.432,0.148,0.654,0.203c0.16,0.04,0.331,0.048,0.496,0.073
			c0.103,0.017,0.207,0.036,0.306,0.064c0.137,0.039,0.228,0.125,0.289,0.234c0.108,0.189,0.215,0.378,0.323,0.566
			c0.009,0.017,0.019,0.032,0.028,0.046c0.004-0.001,0.009-0.001,0.014-0.003c-0.006-0.023-0.01-0.046-0.016-0.069
			c-0.06-0.201-0.09-0.405-0.088-0.614c0.003-0.291,0.11-0.535,0.376-0.726c0.144-0.103,0.28-0.216,0.414-0.329
			c0.174-0.147,0.29-0.329,0.41-0.511c0.041-0.062,0.08-0.126,0.127-0.199c0.015,0.06,0.024,0.111,0.042,0.16
			c0.079,0.216,0.16,0.431,0.243,0.647c0.063,0.163,0.104,0.332,0.084,0.504c-0.043,0.365-0.214,0.669-0.6,0.862
			c-0.08,0.041-0.158,0.088-0.229,0.14c-0.069,0.052-0.128,0.113-0.179,0.158c0.045-0.098,0.107-0.208,0.147-0.326
			c0.04-0.121,0.067-0.246,0.086-0.371c0.018-0.125,0.022-0.25,0.026-0.374s0.001-0.247,0.001-0.371
			c-0.007-0.001-0.013-0.001-0.02-0.001c-0.012,0.05-0.023,0.103-0.036,0.154c-0.07,0.264-0.137,0.527-0.213,0.791
			c-0.068,0.235-0.228,0.43-0.403,0.614c-0.078,0.084-0.08,0.084-0.189,0.033c-0.255-0.117-0.516-0.225-0.763-0.355
			c-0.193-0.1-0.368-0.225-0.551-0.34c-0.024-0.014-0.048-0.031-0.078-0.04c0.174,0.181,0.367,0.346,0.569,0.504
			c0.203,0.157,0.421,0.296,0.662,0.416c-0.007,0.001-0.01,0.003-0.012,0.003c-0.128-0.059-0.265-0.078-0.41-0.073
			c-0.153,0.005-0.306,0.009-0.456-0.033c-0.242-0.069-0.42-0.203-0.536-0.395c-0.069-0.114-0.126-0.233-0.179-0.352
			C19.626,275.118,19.543,274.876,19.394,274.661z"/>
		<path fill="#006FAB" d="M2.654,274.431c-0.013,0.498-0.014,0.994,0.27,1.456c-0.13-0.172-0.334-0.266-0.522-0.377
			c-0.261-0.153-0.396-0.373-0.466-0.629c-0.073-0.266-0.019-0.518,0.088-0.768c0.096-0.225,0.192-0.45,0.239-0.688
			c0.001-0.005,0.006-0.012,0.012-0.022c0.044,0.068,0.086,0.133,0.126,0.197c0.175,0.292,0.412,0.542,0.708,0.751
			c0.083,0.058,0.156,0.126,0.234,0.189c0.158,0.129,0.219,0.295,0.243,0.472c0.037,0.274-0.003,0.542-0.088,0.804
			c-0.004,0.012-0.006,0.023-0.009,0.035c0,0.003,0.003,0.005,0.008,0.017c0.013-0.022,0.023-0.039,0.032-0.054
			c0.107-0.188,0.216-0.374,0.318-0.564c0.094-0.174,0.259-0.26,0.469-0.292c0.17-0.026,0.344-0.04,0.515-0.067
			c0.248-0.042,0.478-0.13,0.708-0.216c0.019-0.008,0.038-0.015,0.057-0.023c0.003,0.004,0.006,0.006,0.006,0.008
			c-0.145,0.217-0.229,0.455-0.333,0.687c-0.061,0.134-0.124,0.27-0.208,0.395c-0.172,0.255-0.436,0.39-0.785,0.394
			c-0.063,0-0.127,0.003-0.19-0.001c-0.143-0.008-0.278,0.014-0.406,0.072c0.113-0.063,0.229-0.125,0.338-0.194
			c0.109-0.07,0.214-0.144,0.315-0.223c0.103-0.079,0.202-0.162,0.3-0.246c0.095-0.082,0.186-0.167,0.279-0.251
			c-0.004-0.004-0.008-0.009-0.013-0.013c-0.034,0.022-0.069,0.042-0.102,0.064c-0.354,0.255-0.752,0.449-1.165,0.621
			c-0.062,0.026-0.124,0.053-0.183,0.084c-0.036,0.019-0.056,0.01-0.081-0.014c-0.251-0.248-0.432-0.526-0.509-0.85
			c-0.057-0.238-0.115-0.476-0.174-0.713c-0.004-0.015-0.01-0.03-0.016-0.045C2.665,274.428,2.66,274.43,2.654,274.431z"/>
		<path fill="#006FAB" d="M3.719,271.616c0.068,0.239,0.119,0.471,0.24,0.681c0.081,0.142,0.188,0.271,0.283,0.407
			c0.038,0.054,0.075,0.107,0.115,0.16c0.14,0.188,0.138,0.392,0.09,0.601c-0.051,0.223-0.157,0.428-0.288,0.625
			c-0.009,0.012-0.016,0.026-0.014,0.046c0.016-0.016,0.034-0.03,0.05-0.045c0.168-0.163,0.334-0.327,0.504-0.489
			c0.084-0.081,0.197-0.118,0.319-0.116c0.168,0.005,0.335,0.028,0.502,0.033c0.166,0.006,0.333,0.006,0.499-0.001
			c0.131-0.006,0.26-0.027,0.404-0.045c-0.278,0.238-0.453,0.529-0.692,0.777c-0.153,0.158-0.336,0.277-0.578,0.319
			c-0.155,0.027-0.304,0.005-0.453-0.03c-0.018-0.005-0.037-0.01-0.055-0.015c-0.14-0.04-0.281-0.068-0.429-0.031
			c0.501-0.12,0.945-0.338,1.377-0.575c-0.003-0.005-0.005-0.01-0.008-0.016c-0.059,0.021-0.118,0.043-0.178,0.062
			c-0.233,0.071-0.463,0.148-0.699,0.207c-0.22,0.054-0.448,0.086-0.672,0.13c-0.034,0.006-0.048-0.001-0.061-0.026
			c-0.094-0.179-0.189-0.359-0.21-0.556c-0.018-0.165-0.008-0.332-0.007-0.497c0-0.072,0.006-0.143,0.012-0.212
			c0.007-0.109,0.017-0.216,0.025-0.324c0.001-0.014-0.002-0.03-0.014-0.046c-0.009,0.023-0.021,0.046-0.029,0.069
			c-0.086,0.243-0.149,0.489-0.184,0.741c-0.027,0.194-0.007,0.387,0.041,0.576c0.002,0.008,0.003,0.017,0,0.024
			c-0.061-0.185-0.219-0.315-0.359-0.454c-0.225-0.22-0.285-0.479-0.253-0.762c0.022-0.206,0.114-0.385,0.245-0.552
			C3.408,272.07,3.589,271.863,3.719,271.616z"/>
		<path fill="#006FAB" d="M18.602,273.475c0.085,0.01,0.179,0.022,0.273,0.033c0.234,0.027,0.468,0.036,0.703,0
			c0.162-0.026,0.326-0.04,0.491-0.014c0.089,0.014,0.169,0.045,0.23,0.103c0.167,0.162,0.333,0.324,0.499,0.485
			c0.019,0.018,0.036,0.036,0.053,0.054c0.004-0.003,0.008-0.005,0.013-0.008c-0.008-0.014-0.016-0.028-0.024-0.041
			c-0.141-0.211-0.249-0.432-0.298-0.674c-0.039-0.196-0.025-0.383,0.104-0.555c0.068-0.091,0.13-0.187,0.203-0.275
			c0.195-0.235,0.301-0.5,0.377-0.778c0.016-0.059,0.033-0.118,0.052-0.185c0.035,0.058,0.062,0.109,0.098,0.158
			c0.137,0.185,0.276,0.368,0.417,0.552c0.167,0.217,0.235,0.457,0.219,0.717c-0.015,0.242-0.135,0.444-0.328,0.619
			c-0.124,0.113-0.238,0.233-0.295,0.386c0.063-0.237,0.069-0.472,0.026-0.711c-0.042-0.238-0.107-0.47-0.205-0.699
			c-0.002,0.014-0.005,0.03-0.004,0.044c0.01,0.117,0.027,0.235,0.031,0.352c0.006,0.199,0.007,0.398,0.004,0.597
			c-0.003,0.225-0.111,0.427-0.21,0.629c-0.017,0.036-0.038,0.044-0.083,0.035c-0.234-0.048-0.474-0.078-0.704-0.138
			c-0.258-0.066-0.508-0.156-0.761-0.237c-0.023-0.006-0.045-0.014-0.068-0.022c-0.004,0.005-0.007,0.01-0.011,0.016
			c0.086,0.045,0.17,0.091,0.257,0.136c0.089,0.045,0.179,0.09,0.27,0.131c0.089,0.041,0.18,0.081,0.272,0.118
			c0.094,0.039,0.189,0.072,0.286,0.103c0.097,0.032,0.196,0.057,0.294,0.087c-0.197-0.055-0.372,0.021-0.553,0.059
			c-0.34,0.073-0.633-0.005-0.867-0.22c-0.136-0.125-0.247-0.269-0.367-0.405C18.863,273.779,18.732,273.625,18.602,273.475z"/>
		<path fill="#006FAB" d="M19.713,271.265c0.035,0.089,0.075,0.175,0.105,0.265c0.079,0.233,0.163,0.466,0.225,0.702
			c0.029,0.112,0.011,0.234,0.007,0.351c-0.003,0.067-0.019,0.134-0.031,0.201c-0.004,0.023-0.007,0.048-0.049,0.049
			c-0.257,0.009-0.513,0.028-0.769,0.027c-0.186-0.001-0.372-0.028-0.559-0.044c-0.069-0.006-0.139-0.014-0.21-0.014
			c0.489,0.148,0.987,0.25,1.442,0.244c-0.106-0.006-0.258,0.035-0.399,0.118c-0.122,0.072-0.255,0.126-0.405,0.145
			c-0.157,0.019-0.306-0.003-0.448-0.055c-0.172-0.063-0.314-0.165-0.455-0.266c-0.199-0.143-0.391-0.296-0.618-0.405
			c0.183-0.026,0.369-0.044,0.55-0.08c0.134-0.026,0.262-0.071,0.391-0.113c0.136-0.044,0.268-0.095,0.416-0.107
			c0.091-0.008,0.177,0.006,0.252,0.049c0.203,0.112,0.403,0.228,0.604,0.342c0.015,0.009,0.031,0.017,0.046,0.024
			c0.003-0.003,0.006-0.006,0.009-0.009c-0.031-0.03-0.063-0.059-0.095-0.089c-0.13-0.12-0.243-0.25-0.338-0.392
			c-0.158-0.237-0.201-0.479-0.087-0.741c0.065-0.148,0.112-0.304,0.159-0.458c0.021-0.071,0.025-0.145,0.031-0.219
			c0.007-0.086,0.01-0.174,0.01-0.261c0-0.069-0.008-0.14-0.013-0.211c0.008-0.001,0.013-0.003,0.014-0.001
			c0.173,0.175,0.376,0.324,0.583,0.47c0.276,0.194,0.448,0.437,0.5,0.741c0.032,0.181-0.01,0.351-0.105,0.516
			c-0.07,0.12-0.147,0.238-0.174,0.373c-0.006,0.032-0.009,0.064-0.015,0.098c-0.015-0.476-0.28-0.868-0.553-1.257
			C19.726,271.259,19.719,271.263,19.713,271.265z"/>
		<path fill="#006FAB" d="M5.084,273.047c0.499,0.005,0.996-0.098,1.485-0.235c-0.001-0.005-0.002-0.012-0.003-0.017
			c-0.071,0.008-0.141,0.015-0.211,0.023c-0.133,0.012-0.266,0.028-0.399,0.033c-0.15,0.005-0.302,0.004-0.453,0
			c-0.156-0.003-0.314-0.01-0.47-0.019c-0.018-0.001-0.045-0.022-0.048-0.036c-0.016-0.085-0.026-0.17-0.039-0.255
			c-0.046-0.302,0.077-0.58,0.177-0.859c0.045-0.127,0.099-0.252,0.15-0.378c0.005-0.013,0.008-0.027,0.005-0.044
			c-0.125,0.149-0.225,0.309-0.318,0.471c-0.164,0.288-0.24,0.536-0.249,0.785c-0.004-0.032-0.001-0.066-0.014-0.095
			c-0.047-0.112-0.091-0.226-0.151-0.333c-0.073-0.131-0.135-0.265-0.139-0.409c-0.003-0.133,0.032-0.264,0.083-0.39
			c0.08-0.199,0.231-0.355,0.414-0.489c0.209-0.153,0.423-0.301,0.607-0.494c0,0.055,0.004,0.1,0,0.144
			c-0.025,0.292,0.012,0.576,0.125,0.854c0.056,0.138,0.093,0.28,0.133,0.422c0.027,0.096-0.011,0.187-0.046,0.275
			c-0.099,0.251-0.282,0.457-0.495,0.646c-0.015,0.014-0.03,0.03-0.038,0.053c0.015-0.008,0.03-0.014,0.045-0.023
			c0.179-0.103,0.358-0.205,0.534-0.31c0.16-0.097,0.33-0.105,0.508-0.05c0.105,0.032,0.208,0.066,0.31,0.104
			c0.204,0.078,0.421,0.109,0.638,0.134c0.076,0.009,0.151,0.015,0.209,0.021c-0.179,0.124-0.367,0.253-0.555,0.381
			c-0.117,0.08-0.234,0.161-0.357,0.233c-0.152,0.089-0.323,0.134-0.51,0.129c-0.168-0.004-0.315-0.062-0.457-0.133
			c-0.088-0.045-0.177-0.086-0.272-0.115C5.215,273.049,5.136,273.052,5.084,273.047z"/>
		<path fill="#006FAB" d="M8.631,271.99c-0.319,0.068-0.588,0.211-0.877,0.311c-0.135,0.048-0.272,0.085-0.421,0.089
			c-0.219,0.003-0.405-0.064-0.561-0.192c-0.027-0.022-0.052-0.044-0.078-0.067C6.55,272,6.55,272,6.372,271.93
			c0.452,0.109,0.914,0.095,1.375,0.087c0.001-0.005,0.002-0.01,0.003-0.015c-0.04-0.005-0.078-0.015-0.118-0.018
			c-0.408-0.027-0.795-0.131-1.181-0.239c-0.029-0.009-0.058-0.017-0.088-0.023c-0.073-0.019-0.075-0.026-0.069-0.091
			c0.026-0.313,0.16-0.592,0.364-0.849c0.109-0.139,0.214-0.278,0.321-0.415c0.01-0.014,0.019-0.027,0.02-0.045
			c-0.367,0.292-0.72,0.592-0.872,1.02c0.006-0.045,0.015-0.09,0.016-0.135c0-0.048-0.007-0.095-0.015-0.143
			c-0.007-0.046-0.017-0.094-0.031-0.139c-0.149-0.459,0.211-0.886,0.552-1.041c0.193-0.087,0.391-0.167,0.585-0.253
			c0.083-0.037,0.161-0.082,0.253-0.13c-0.025,0.075-0.048,0.139-0.069,0.203c-0.064,0.198-0.119,0.398-0.107,0.606
			c0.007,0.117,0.01,0.234,0.023,0.35c0.024,0.233-0.093,0.417-0.27,0.58c-0.147,0.136-0.319,0.247-0.505,0.341
			c-0.022,0.012-0.043,0.023-0.064,0.035c0.003,0.004,0.005,0.009,0.008,0.013c0.074-0.024,0.148-0.05,0.223-0.072
			c0.154-0.044,0.31-0.085,0.464-0.13c0.125-0.036,0.244-0.018,0.353,0.036c0.094,0.048,0.186,0.1,0.27,0.16
			c0.225,0.161,0.489,0.257,0.757,0.346C8.584,271.975,8.601,271.979,8.631,271.99z"/>
		<path fill="#006FAB" d="M17.512,269.502c0.116,0.059,0.221,0.115,0.329,0.162c0.167,0.075,0.34,0.139,0.503,0.217
			c0.331,0.16,0.525,0.409,0.588,0.728c0.023,0.114-0.008,0.229-0.035,0.342c-0.032,0.129-0.063,0.257-0.023,0.391
			c-0.153-0.428-0.506-0.729-0.866-1.027c-0.006,0.003-0.012,0.006-0.018,0.01c0.018,0.023,0.038,0.048,0.055,0.071
			c0.167,0.23,0.338,0.459,0.498,0.692c0.102,0.148,0.125,0.316,0.151,0.482c0.004,0.033,0.012,0.067,0.01,0.098
			c-0.001,0.015-0.019,0.039-0.035,0.042c-0.396,0.102-0.782,0.233-1.199,0.261c-0.06,0.004-0.121,0.012-0.182,0.019
			c-0.014,0.003-0.027,0.008-0.04,0.013c0,0.005,0.001,0.01,0.002,0.014c0.231,0,0.463,0.01,0.693-0.003
			c0.23-0.012,0.458-0.048,0.687-0.077c-0.14,0.026-0.237,0.106-0.329,0.194c-0.133,0.127-0.291,0.223-0.496,0.248
			c-0.173,0.021-0.34-0.003-0.499-0.06c-0.197-0.073-0.391-0.153-0.588-0.226c-0.109-0.04-0.221-0.072-0.335-0.111
			c0.056-0.018,0.114-0.037,0.171-0.057c0.26-0.085,0.498-0.203,0.711-0.358c0.104-0.075,0.219-0.143,0.36-0.156
			c0.069-0.006,0.142,0.001,0.208,0.019c0.203,0.053,0.403,0.116,0.603,0.174c0.021,0.008,0.042,0.013,0.063,0.019
			c0.003-0.004,0.005-0.008,0.008-0.012c-0.023-0.012-0.045-0.024-0.068-0.036c-0.263-0.135-0.498-0.296-0.664-0.522
			c-0.072-0.099-0.11-0.206-0.106-0.323c0.005-0.143,0.014-0.286,0.021-0.428c0.013-0.23-0.057-0.449-0.128-0.666
			C17.547,269.596,17.531,269.555,17.512,269.502z"/>
		<path fill="#006FAB" d="M12.372,286.956c-0.009,0.114-0.017,0.233-0.03,0.353c-0.012,0.121-0.035,0.241-0.041,0.361
			c-0.007,0.136-0.014,0.274,0.001,0.409c0.021,0.192,0.058,0.382,0.095,0.574c0.022,0.114,0.057,0.228,0.086,0.341
			c0.002,0.008,0.007,0.014,0.024,0.022c0.014-0.044,0.031-0.088,0.04-0.133c0.048-0.23,0.101-0.461,0.138-0.693
			c0.031-0.19,0.03-0.382,0.005-0.574c-0.02-0.162-0.032-0.324-0.048-0.486c-0.006-0.058-0.01-0.117-0.016-0.187
			c0.058,0.111,0.098,0.217,0.165,0.309c0.137,0.192,0.285,0.38,0.434,0.564c0.12,0.149,0.227,0.301,0.272,0.48
			c0.06,0.239-0.012,0.453-0.164,0.651c-0.18,0.235-0.419,0.419-0.683,0.582c-0.184,0.113-0.118,0.112-0.303,0
			c-0.264-0.162-0.503-0.347-0.682-0.583c-0.119-0.156-0.198-0.324-0.185-0.513c0.014-0.205,0.105-0.386,0.241-0.552
			c0.145-0.178,0.296-0.352,0.428-0.538C12.238,287.22,12.299,287.085,12.372,286.956z"/>
		<path fill="#006FAB" d="M9.804,270.273c-0.101,0.072-0.195,0.139-0.289,0.205c-0.172,0.121-0.322,0.259-0.445,0.418
			c-0.059,0.077-0.131,0.152-0.209,0.215c-0.118,0.098-0.27,0.116-0.427,0.104c-0.234-0.018-0.468-0.036-0.693-0.054
			c0.376-0.247,0.768-0.495,1.223-0.661c-0.475,0.102-0.931,0.242-1.348,0.488c0.069-0.073,0.135-0.134,0.189-0.201
			c0.055-0.068,0.097-0.145,0.149-0.216c0.174-0.239,0.43-0.359,0.754-0.356c0.203,0.003,0.406,0.031,0.61,0.043
			c0.151,0.01,0.302,0.01,0.452,0.015C9.778,270.271,9.787,270.271,9.804,270.273z"/>
		<path fill="#006FAB" d="M17.269,271.164c-0.15,0.009-0.298,0.017-0.447,0.027c-0.097,0.008-0.193,0.026-0.29,0.028
			c-0.17,0.003-0.328-0.031-0.445-0.148c-0.048-0.048-0.098-0.094-0.135-0.147c-0.154-0.219-0.37-0.386-0.599-0.542
			c-0.05-0.035-0.101-0.069-0.148-0.113c0.031,0.003,0.062,0.01,0.093,0.009c0.164-0.01,0.327-0.023,0.492-0.035
			c0.192-0.012,0.386-0.039,0.577-0.028c0.316,0.015,0.559,0.153,0.709,0.395c0.083,0.133,0.178,0.257,0.303,0.365
			c-0.409-0.235-0.865-0.374-1.334-0.488c-0.003,0.005-0.005,0.009-0.008,0.013c0.016,0.009,0.031,0.017,0.048,0.024
			c0.193,0.088,0.394,0.165,0.578,0.265C16.871,270.906,17.067,271.039,17.269,271.164z"/>
	</g>
	<polygon fill="#006FAB" points="12.315,272.859 13.767,275.801 17.014,276.273 14.664,278.563 15.219,281.799 12.315,280.27 
		9.41,281.799 9.965,278.563 7.615,276.273 10.862,275.801 	"/>
</g>
<g opacity="0.7">
	<path fill="#1C1E1E" d="M2.371,315.315l7.531-10.889l-7.081-10.111h5.25l4.652,6.9l4.619-6.9h5.281l-7.081,10.111l7.531,10.889
		h-5.281l-5.07-7.65l-5.1,7.65H2.371z"/>
</g>
<path fill="none" stroke="#006EAA" stroke-width="0.8434" stroke-miterlimit="10" d="M12.873,328.48"/>
<path fill="none" stroke="#006EAA" stroke-width="0.8434" stroke-miterlimit="10" d="M-166.588,284.542"/>
<circle fill="#EE5D59" cx="12.873" cy="328.48" r="11"/>
<g>
	<g>
		<path fill="#FFFFFF" d="M13.377,328.116l1.451,2.163c0.402,0.598,0.701,0.976,0.895,1.134c0.195,0.158,0.441,0.245,0.741,0.262
			v0.184h-2.901v-0.184c0.193-0.003,0.335-0.023,0.428-0.06c0.07-0.03,0.127-0.076,0.172-0.137s0.068-0.124,0.068-0.187
			c0-0.076-0.016-0.153-0.046-0.229c-0.023-0.057-0.115-0.202-0.273-0.439l-1.147-1.734l-1.415,1.814
			c-0.15,0.193-0.24,0.322-0.27,0.386c-0.03,0.065-0.044,0.132-0.044,0.202c0,0.107,0.044,0.195,0.134,0.264
			c0.09,0.07,0.261,0.109,0.514,0.12v0.184h-2.4v-0.184c0.169-0.017,0.316-0.051,0.439-0.105c0.206-0.087,0.402-0.202,0.589-0.349
			c0.186-0.146,0.398-0.37,0.638-0.673l1.595-2.014l-1.331-1.949c-0.363-0.529-0.671-0.875-0.923-1.04
			c-0.253-0.164-0.544-0.251-0.872-0.262v-0.184h3.126v0.184c-0.266,0.01-0.448,0.053-0.546,0.13s-0.146,0.161-0.146,0.255
			c0,0.123,0.079,0.302,0.239,0.538l1.037,1.55l1.201-1.52c0.14-0.18,0.225-0.303,0.257-0.369c0.031-0.066,0.048-0.135,0.048-0.204
			s-0.02-0.131-0.06-0.184c-0.05-0.07-0.113-0.118-0.19-0.147c-0.076-0.028-0.234-0.044-0.473-0.048V325.1h2.397v0.184
			c-0.189,0.01-0.344,0.04-0.464,0.09c-0.18,0.077-0.344,0.18-0.493,0.309c-0.15,0.13-0.361,0.368-0.633,0.717L13.377,328.116z"/>
	</g>
</g>
<path fill="#066BA9" d="M12.573,344.583c-5.522,0-10,4.477-10,10c0,8.125,10,17.5,10,17.5s10-9.375,10-17.5
	C22.573,349.06,18.096,344.583,12.573,344.583 M12.573,370.208c0,0-8.75-8.125-8.75-15.626c0-4.833,3.918-8.75,8.75-8.75
	c4.833,0,8.75,3.917,8.75,8.75C21.324,362.083,12.573,370.208,12.573,370.208 M12.573,349.583c-2.762,0-5,2.238-5,5
	c0,2.761,2.238,5,5,5s5-2.239,5-5C17.574,351.822,15.335,349.583,12.573,349.583 M12.573,358.333c-2.071,0-3.75-1.68-3.75-3.75
	s1.679-3.75,3.75-3.75s3.75,1.68,3.75,3.75S14.645,358.333,12.573,358.333"/>
<g>
	<path fill="#006EAA" d="M17.232,380.042c-2.003,0.025-3.739,1.299-4.681,3.183c-0.99-1.859-2.756-3.09-4.759-3.064
		c-3.045,0.039-5.477,2.959-5.432,6.521c0.008,0.697,0.113,1.368,0.298,1.994c0.429,2.044,3.534,5.392,6.389,8.078
		c1.386,1.305,3.715,3.138,3.715,3.138c0.982-0.712,2.283-1.891,3.634-3.229c2.786-2.76,5.804-6.186,6.184-8.238
		c0.167-0.63,0.256-1.304,0.247-2.002C22.782,382.862,20.277,380.003,17.232,380.042z"/>
</g>
<g>
	<path fill="#FFFFFF" d="M42.232,380.042c-2.003,0.025-3.739,1.299-4.681,3.183c-0.99-1.859-2.756-3.09-4.759-3.064
		c-3.045,0.039-5.477,2.959-5.432,6.521c0.008,0.697,0.113,1.368,0.298,1.994c0.429,2.044,3.534,5.392,6.389,8.078
		c1.386,1.305,3.715,3.138,3.715,3.138c0.982-0.712,2.283-1.891,3.634-3.229c2.786-2.76,5.804-6.186,6.184-8.238
		c0.167-0.63,0.256-1.304,0.247-2.002C47.782,382.862,45.277,380.003,42.232,380.042z"/>
</g>
<g>
	<g>
		<g>
			<circle fill="none" stroke="#006EAA" stroke-width="2" stroke-miterlimit="10" cx="13.09" cy="415.658" r="10.2"/>
		</g>
	</g>
	<polyline fill="none" stroke="#006EAA" stroke-width="2" stroke-miterlimit="10" points="7.945,416.489 11.627,419.763 
		18.176,411.987 	"/>
</g>
<path fill="#FFFFFF" d="M23.312,454.919h0.008l-2-15.001h-0.01c-0.034-0.244-0.234-0.437-0.487-0.437h-3.498v-1.998
	c0-2.209-1.792-3.999-4.001-3.999s-3.999,1.79-3.999,3.999v1.998H5.822c-0.252,0-0.455,0.193-0.487,0.437h-0.01l-2,15.001h0.01
	c-0.004,0.024-0.014,0.042-0.014,0.066c0,0.276,0.224,0.497,0.499,0.497h19c0.276,0,0.499-0.221,0.499-0.497
	C23.324,454.963,23.314,454.943,23.312,454.919 M10.323,437.485c0-1.657,1.345-3.001,3.001-3.001c1.657,0,3.003,1.343,3.003,3.001v2
	h-6.001v-2H10.323z M6.261,440.486h3.063v2.139c-0.298,0.173-0.499,0.491-0.499,0.862c0,0.552,0.447,1.001,1.001,1.001
	c0.552,0,1.001-0.449,1.001-1.001c0-0.369-0.201-0.689-0.501-0.862v-2.139h5.999v2.139c-0.296,0.173-0.499,0.491-0.499,0.862
	c0,0.552,0.447,1.001,0.999,1.001c0.552,0,1.003-0.449,1.003-1.001c0-0.369-0.203-0.689-0.499-0.862v-2.139h3.063l1.599,12H4.66
	L6.261,440.486z M4.394,454.488l0.133-0.999h17.591l0.133,0.999H4.394z"/>
<g>
	<g>
		<g>
			<circle fill="none" stroke="#FFFFFF" stroke-width="2" stroke-miterlimit="10" cx="38.09" cy="415.658" r="10.2"/>
		</g>
	</g>
	<polyline fill="none" stroke="#FFFFFF" stroke-width="2" stroke-miterlimit="10" points="32.945,416.489 36.627,419.763 
		43.176,411.987 	"/>
</g>
</svg>
