<?xml version="1.0" encoding="utf-8"?>
<!-- Generator: Adobe Illustrator 17.0.0, SVG Export Plug-In . SVG Version: 6.00 Build 0)  -->
<!DOCTYPE svg PUBLIC "-//W3C//DTD SVG 1.1//EN" "http://www.w3.org/Graphics/SVG/1.1/DTD/svg11.dtd">
<svg version="1.1" id="Layer_1" xmlns="http://www.w3.org/2000/svg" xmlns:xlink="http://www.w3.org/1999/xlink" x="0px" y="0px"
	 width="320px" height="90px" viewBox="0 0 320 90" enable-background="new 0 0 320 90" xml:space="preserve">
<g>
	<g>
		<path fill="#056BA9" d="M97.898,13.15h-9.452l3.604-8.477L97.898,13.15z M90.427,3.616l-3.732,8.772l-5.857-8.772H90.427z
			 M84.918,13.15H73.529l5.305-9.083L84.918,13.15z M76.877,3.616l-4.976,8.544l-4.644-8.544H76.877z M65.596,4.539l4.679,8.61
			H59.668L65.596,4.539z M59.668,15.064h11.461l7.563,40.562L59.668,15.064z M73.084,15.064h12.621l-7.071,40.62L73.084,15.064z
			 M78.576,55.718l9.109-40.654h10.2L78.576,55.718z"/>
	</g>
	<g>
		<g>
			<path fill="#ADBBC1" d="M4.294,15.059h4.477v29.645c0,7.85,5.125,12.52,12.907,12.52c7.851,0,12.974-4.67,12.974-12.648V15.059
				h4.542v29.712c0,10.119-7.137,16.67-17.45,16.67c-10.313,0-17.45-6.551-17.45-16.67V15.059z"/>
			<path fill="#ADBBC1" d="M59.361,15.059h4.802l12.648,34.642c0.779,2.334,1.75,5.837,1.75,5.837h0.131
				c0,0,0.908-3.503,1.752-5.837l12.649-34.642h4.801L81.029,60.662h-4.802L59.361,15.059z"/>
			<path fill="#ADBBC1" d="M118.646,15.059h25.621v4.022h-21.144v16.607h17.318v4.023h-17.318V56.64h22.379v4.022h-26.856V15.059z"
				/>
			<path fill="#006FAB" d="M168.331,15.254h2.789v42.813h21.668v2.594h-24.456V15.254z"/>
			<path fill="#006FAB" d="M214.257,15.254h2.785v45.408h-2.785V15.254z"/>
			<path fill="#006FAB" d="M243.897,15.254h22.898v2.595h-20.11V36.79h17.385v2.593h-17.385v21.278h-2.788V15.254z"/>
			<path fill="#006FAB" d="M289.17,15.254h24.846v2.595h-22.058v18.616h18.099v2.594h-18.099v19.009h23.288v2.594H289.17V15.254z"/>
		</g>
	</g>
	
		<text transform="matrix(1 0 0 1 53.4399 84.5464)" fill="#006FAB" font-family="Muller" font-size="6.7077" textLength="215" letter-spacing="8" style="text-transform:uppercase;font-weight:bold;">Ювелирный магазин</text>
	
		<line fill="none" stroke="#006FAB" stroke-width="1.1179" stroke-miterlimit="10" x1="31.914" y1="82.548" x2="5.083" y2="82.548"/>
	
		<line fill="none" stroke="#006FAB" stroke-width="1.1179" stroke-miterlimit="10" x1="315.499" y1="82.548" x2="288.668" y2="82.548"/>
</g>
</svg>
