<?xml version="1.0" encoding="utf-8"?>
<!-- Generator: Adobe Illustrator 16.0.0, SVG Export Plug-In . SVG Version: 6.00 Build 0)  -->
<!DOCTYPE svg PUBLIC "-//W3C//DTD SVG 1.1//EN" "http://www.w3.org/Graphics/SVG/1.1/DTD/svg11.dtd">
<svg version="1.1" id="Layer_1" xmlns="http://www.w3.org/2000/svg" xmlns:xlink="http://www.w3.org/1999/xlink" x="0px" y="0px"
	 width="36px" height="30px" viewBox="0 0 36 30" enable-background="new 0 0 36 30" xml:space="preserve">
<g>
	<g>
		<g>
			<path fill="#4A96D1" d="M6.017,0v7.36L0.668,4.554L6.017,0z M0,5.814L5.536,8.72L0,13.28V5.814z M6.017,10.104v8.865l-5.73-4.129
				L6.017,10.104z M0,16.362l5.393,3.874L0,23.852V16.362z M0.583,25.146l5.433-3.644v8.26L0.583,25.146z M7.226,29.762v-8.924
				l25.596-5.888L7.226,29.762z M7.226,19.316V9.492l25.633,5.505L7.226,19.316z M32.88,15.04L7.226,7.948V0.009L32.88,15.04z"/>
		</g>
	</g>
	<path fill="#006EAA" d="M7.224,30v-3.738l21.86-9.848c1.473-0.606,3.685-1.362,3.685-1.362V14.95c0,0-2.212-0.711-3.685-1.365
		L7.224,3.736V0.003L36,13.132v3.736L7.224,30z"/>
</g>
</svg>
