<?xml version="1.0" encoding="utf-8"?>
<!-- Generator: Adobe Illustrator 16.0.4, SVG Export Plug-In . SVG Version: 6.00 Build 0)  -->
<!DOCTYPE svg PUBLIC "-//W3C//DTD SVG 1.1//EN" "http://www.w3.org/Graphics/SVG/1.1/DTD/svg11.dtd">
<svg version="1.1" id="Layer_1" xmlns="http://www.w3.org/2000/svg" xmlns:xlink="http://www.w3.org/1999/xlink" x="0px" y="0px"
	 width="77.15px" height="119.197px" viewBox="0 0 77.15 119.197" enable-background="new 0 0 77.15 119.197" xml:space="preserve">
<g>
	<polygon fill="#615B5B" points="53.071,17.022 74.532,17.022 74.532,1.237 66.421,1.187 	"/>
	<polygon fill="#D91F26" points="74.842,21.772 2.233,37.368 1.111,16.408 74.468,1 	"/>
	<g>
		<g enable-background="new    ">
			<path fill="#FFFFFF" d="M16.241,27.436l-0.585-1.213l-3.133,0.691l-0.411,1.432l-1.552,0.342l2.357-7.685l1.591-0.351
				l3.205,6.458L16.241,27.436z M12.91,25.56l2.205-0.486l-1.078-2.29c-0.073-0.147-0.142-0.317-0.207-0.569
				c-0.034,0.264-0.063,0.454-0.115,0.64L12.91,25.56z"/>
			<path fill="#FFFFFF" d="M23.98,18.564l-1.955,4.034l2.486,3.014l-1.552,0.342l-2.04-2.477l-1.152,0.254l0.177,2.888l-1.464,0.323
				l-0.424-7.071l1.464-0.323l0.169,2.808l1.133-0.25l1.538-3.185L23.98,18.564z"/>
			<path fill="#FFFFFF" d="M30.844,25.77l-0.093-1.535l-5.533,1.221l-0.424-7.071l1.464-0.323l0.338,5.707l3.035-0.669l-0.348-5.705
				l1.464-0.323l0.348,5.705l0.858-0.189l0.18,2.898L30.844,25.77z"/>
			<path fill="#FFFFFF" d="M39.05,22.404l-1.463,0.323l-0.211-3.648c-0.026-0.302-0.027-0.587-0.012-0.888l-2.988,5.244
				l-1.317,0.291l-0.424-7.071l1.464-0.323l0.211,3.648c0.023,0.292,0.029,0.597,0.021,0.886l2.979-5.243l1.317-0.291L39.05,22.404z
				"/>
			<path fill="#FFFFFF" d="M39.904,22.216l1.804-3.101c-0.916-0.166-1.585-0.735-1.635-1.798c-0.102-1.667,1.126-2.552,2.609-2.879
				l2.771-0.611l0.424,7.071l-1.454,0.321l-0.151-2.403l-1.015,0.224l-1.635,2.797L39.904,22.216z M42.89,17.842l1.308-0.289
				l-0.119-2.071l-1.249,0.275c-0.771,0.17-1.3,0.603-1.256,1.311C41.615,17.815,42.148,18.005,42.89,17.842z"/>
		</g>
	</g>
</g>
<g>
	<polygon fill="#615B5B" points="54.459,56.97 75.92,56.97 75.92,41.185 67.809,41.135 	"/>
	<polygon fill="#6AB245" points="76.231,61.72 3.621,77.315 2.499,56.356 75.857,40.948 	"/>
	<g>
		<g enable-background="new    ">
			<path fill="#FFFFFF" d="M18.217,60.089l0.424,7.07l-1.463,0.323L17,64.636l-3.064,0.676l0.178,2.848l-1.465,0.322l-0.423-7.07
				l1.463-0.323l0.169,2.849l3.064-0.676l-0.169-2.85L18.217,60.089z"/>
			<path fill="#FFFFFF" d="M23.419,66.249c-2.323,0.513-3.81-0.981-3.926-2.951c-0.106-1.871,0.991-3.852,3.354-4.373
				c2.254-0.498,3.798,0.983,3.915,2.953C26.879,63.745,25.81,65.722,23.419,66.249z M23.198,64.876
				c1.455-0.321,2.145-1.508,2.064-2.8c-0.072-1.161-0.827-2.08-2.214-1.774c-1.443,0.319-2.134,1.506-2.063,2.8
				C21.057,64.264,21.812,65.182,23.198,64.876z"/>
			<path fill="#FFFFFF" d="M30.513,57.376c1.348-0.297,2.496,0.083,2.58,1.345c0.048,0.778-0.319,1.34-0.955,1.705
				c0.655,0.05,1.357,0.447,1.422,1.528c0.1,1.564-1.267,2.193-2.544,2.476l-2.967,0.654l-0.424-7.071L30.513,57.376z
				 M30.592,58.619l-1.434,0.316l0.101,1.615l1.444-0.318c0.576-0.128,0.977-0.492,0.952-1.019
				C31.63,58.635,31.237,58.477,30.592,58.619z M30.892,61.366l-1.571,0.348l0.114,1.815l1.435-0.316
				c0.635-0.14,1.256-0.43,1.224-1.179C32.067,61.261,31.458,61.241,30.892,61.366z"/>
			<path fill="#FFFFFF" d="M40.748,62.283l-1.463,0.323l-0.212-3.648c-0.025-0.302-0.027-0.587-0.011-0.888l-2.988,5.244
				l-1.318,0.29l-0.423-7.07l1.464-0.323l0.211,3.648c0.023,0.292,0.029,0.597,0.021,0.886l2.979-5.242l1.317-0.291L40.748,62.283z"
				/>
			<path fill="#FFFFFF" d="M47.785,53.566l0.424,7.071l-1.464,0.322l-0.178-2.846l-3.064,0.676l0.178,2.846l-1.464,0.324
				l-0.424-7.072l1.464-0.323l0.169,2.849l3.064-0.676l-0.169-2.849L47.785,53.566z"/>
			<path fill="#FFFFFF" d="M55.178,51.936l-1.956,4.034l2.487,3.014l-1.553,0.342l-2.041-2.477l-1.15,0.254l0.176,2.888
				l-1.463,0.323l-0.424-7.071l1.463-0.323l0.17,2.808l1.132-0.25l1.538-3.184L55.178,51.936z"/>
			<path fill="#FFFFFF" d="M61.393,57.729l-0.585-1.212l-3.133,0.691l-0.411,1.432l-1.551,0.342l2.356-7.685l1.592-0.351
				l3.204,6.457L61.393,57.729z M58.062,55.854l2.206-0.487l-1.078-2.29c-0.073-0.146-0.143-0.317-0.207-0.569
				c-0.034,0.264-0.064,0.455-0.115,0.64L58.062,55.854z"/>
		</g>
	</g>
</g>
<g>
	<polygon fill="#615B5B" points="54.379,96.022 75.841,96.022 75.841,80.237 67.73,80.187 	"/>
	<polygon fill="#F9B916" points="76.151,100.772 3.542,116.368 2.419,95.408 75.777,80 	"/>
	<g enable-background="new    ">
		<path fill="#FFFFFF" d="M11.747,107.715l2.317-4.206l-2.555-2.906l1.64-0.361l1.642,1.92l1.413-2.594l1.747-0.385l-2.187,3.963
			l2.707,3.086l-1.639,0.361l-1.789-2.123l-1.549,2.859L11.747,107.715z"/>
		<path fill="#FFFFFF" d="M25.142,104.761l-1.465,0.322l-0.211-3.648c-0.025-0.301-0.026-0.586-0.011-0.887l-2.988,5.244
			l-1.317,0.29l-0.424-7.071l1.464-0.322l0.211,3.648c0.023,0.291,0.029,0.596,0.021,0.886l2.979-5.243l1.317-0.29L25.142,104.761z"
			/>
		<path fill="#FFFFFF" d="M31.222,96.255l0.086,1.363l-2.098,0.463l0.348,5.705l-1.465,0.322l-0.338-5.707l-2.098,0.463
			l-0.086-1.363L31.222,96.255z"/>
	</g>
</g>
</svg>
