<?xml version="1.0" encoding="utf-8"?>
<!-- Generator: Adobe Illustrator 17.0.0, SVG Export Plug-In . SVG Version: 6.00 Build 0)  -->
<!DOCTYPE svg PUBLIC "-//W3C//DTD SVG 1.1//EN" "http://www.w3.org/Graphics/SVG/1.1/DTD/svg11.dtd">
<svg version="1.1" id="Layer_1" xmlns="http://www.w3.org/2000/svg" xmlns:xlink="http://www.w3.org/1999/xlink" x="0px" y="0px"
	 width="280px" height="140px" viewBox="0 -4.5 280 140" enable-background="new 0 -4.5 280 140" xml:space="preserve">
<g>
	<g>
		<g>
			<g>
				<path fill="#006FAB" d="M84.659,15.455h-8.455l3.225-7.582L84.659,15.455z M77.976,6.928l-3.338,7.847l-5.239-7.847
					C69.399,6.928,77.976,6.928,77.976,6.928z M73.048,15.455H62.86l4.746-8.125L73.048,15.455z M65.855,6.928l-4.45,7.643
					l-4.154-7.643H65.855z M55.765,7.753l4.185,7.702h-9.487L55.765,7.753z M50.462,17.168h10.252l6.765,36.282L50.462,17.168z
					 M62.464,17.168h11.288l-6.325,36.335L62.464,17.168z M67.375,53.532l8.148-36.364h9.123L67.375,53.532z"/>
			</g>
		</g>
		<g>
			<g>
				<path fill="#ADBBC1" d="M0.93,17.163h4.004V43.68c0,7.021,4.585,11.199,11.546,11.199c7.023,0,11.605-4.178,11.605-11.314
					V17.163h4.063v26.578c0,9.051-6.384,14.911-15.609,14.911S0.93,52.792,0.93,43.741V17.163z"/>
				<path fill="#ADBBC1" d="M50.187,17.163h4.296L65.797,48.15c0.697,2.088,1.565,5.222,1.565,5.222h0.117
					c0,0,0.813-3.134,1.567-5.222L80.36,17.163h4.295L69.569,57.956h-4.295L50.187,17.163z"/>
				<path fill="#ADBBC1" d="M103.218,17.163h22.919v3.599h-18.913v14.854h15.49v3.598h-15.49v15.144h20.017v3.599h-24.022
					L103.218,17.163L103.218,17.163z"/>
				<path fill="#006FAB" d="M147.661,17.339h2.494v38.297h19.383v2.32h-21.877V17.339z"/>
				<path fill="#006FAB" d="M188.741,17.339h2.492v40.617h-2.492V17.339z"/>
				<path fill="#006FAB" d="M215.255,17.339h20.482v2.32h-17.988v16.943h15.552v2.319h-15.552v19.034h-2.494L215.255,17.339
					L215.255,17.339z"/>
				<path fill="#006FAB" d="M255.752,17.339h22.225v2.32h-19.73v16.652h16.189v2.32h-16.189v17.004h20.83v2.32h-23.325
					L255.752,17.339L255.752,17.339z"/>
			</g>
		</g>
	</g>
</g>
<g>
	<g>
		<g>
			<path fill="#FFFFFF" d="M84.66,83.926h-8.455l3.225-7.582L84.66,83.926z M77.976,75.398l-3.338,7.847l-5.239-7.847H77.976z
				 M73.048,83.926H62.861l4.746-8.125L73.048,83.926z M65.856,75.398l-4.45,7.643l-4.154-7.643H65.856z M55.765,76.224l4.185,7.702
				h-9.487L55.765,76.224z M50.462,85.639h10.252l6.765,36.282L50.462,85.639z M62.464,85.639h11.288l-6.325,36.335L62.464,85.639z
				 M67.375,122.003l8.148-36.364h9.123L67.375,122.003z"/>
		</g>
		<g>
			<g>
				<path fill="#ACBABF" d="M0.93,85.634h4.004v26.518c0,7.021,4.585,11.199,11.546,11.199c7.022,0,11.605-4.178,11.605-11.314
					V85.634h4.063v26.578c0,9.051-6.384,14.911-15.609,14.911c-9.225,0-15.609-5.86-15.609-14.911V85.634z"/>
				<path fill="#ACBABF" d="M50.188,85.634h4.296l11.313,30.987c0.697,2.088,1.565,5.222,1.565,5.222h0.117
					c0,0,0.812-3.134,1.567-5.222l11.313-30.987h4.295L69.57,126.427h-4.295L50.188,85.634z"/>
				<path fill="#ACBABF" d="M103.218,85.634h22.919v3.599h-18.914v14.854h15.49v3.598h-15.49v15.144h20.017v3.599h-24.023V85.634z"
					/>
				<path fill="#FFFFFF" d="M147.662,85.81h2.494v38.297h19.383v2.32h-21.877V85.81z"/>
				<path fill="#FFFFFF" d="M188.742,85.81h2.492v40.617h-2.492V85.81z"/>
				<path fill="#FFFFFF" d="M215.256,85.81h20.482v2.32H217.75v16.943h15.552v2.319H217.75v19.034h-2.494V85.81z"/>
				<path fill="#FFFFFF" d="M255.753,85.81h22.226v2.32h-19.73v16.652h16.189v2.32h-16.189v17.004h20.83v2.32h-23.325V85.81z"/>
			</g>
		</g>
	</g>
</g>
</svg>
