<?xml version="1.0" encoding="utf-8"?>
<!-- Generator: Adobe Illustrator 16.0.4, SVG Export Plug-In . SVG Version: 6.00 Build 0)  -->
<!DOCTYPE svg PUBLIC "-//W3C//DTD SVG 1.1//EN" "http://www.w3.org/Graphics/SVG/1.1/DTD/svg11.dtd">
<svg version="1.1" id="Шар_1" xmlns="http://www.w3.org/2000/svg" xmlns:xlink="http://www.w3.org/1999/xlink" x="0px" y="0px"
	 width="65px" height="64.813px" viewBox="0 0 65 64.813" enable-background="new 0 0 65 64.813" xml:space="preserve">
<g>
	<g>
		
			<circle id="XMLID_115_" fill="none" stroke="#FFFFFF" stroke-width="2" stroke-miterlimit="10" cx="32.586" cy="32.353" r="28.596"/>
	</g>
	<g>
		<g>
			<path fill="#FFFFFF" d="M39.848,49.211H25.325c-5.292,0-9.596-4.305-9.596-9.596V25.092c0-5.291,4.305-9.596,9.596-9.596h14.523
				c5.291,0,9.596,4.305,9.596,9.596v14.524C49.444,44.906,45.139,49.211,39.848,49.211z M25.325,18.386
				c-3.698,0-6.707,3.008-6.707,6.706v14.524c0,3.697,3.008,6.706,6.707,6.706h14.523c3.698,0,6.707-3.009,6.707-6.706V25.092
				c0-3.698-3.009-6.706-6.707-6.706H25.325z"/>
		</g>
		<g>
			<path fill="#FFFFFF" d="M32.586,40.987c-4.76,0-8.633-3.873-8.633-8.633c0-4.76,3.873-8.633,8.633-8.633
				c4.76,0,8.633,3.873,8.633,8.633C41.219,37.114,37.346,40.987,32.586,40.987z M32.586,26.611c-3.166,0-5.743,2.576-5.743,5.743
				c0,3.166,2.577,5.742,5.743,5.742c3.167,0,5.743-2.577,5.743-5.742C38.329,29.187,35.752,26.611,32.586,26.611z"/>
		</g>
		<g>
			<circle fill="#FFFFFF" cx="41.589" cy="23.227" r="2.075"/>
		</g>
	</g>
</g>
</svg>
