<?xml version="1.0" encoding="utf-8"?>
<!-- Generator: Adobe Illustrator 16.0.4, SVG Export Plug-In . SVG Version: 6.00 Build 0)  -->
<!DOCTYPE svg PUBLIC "-//W3C//DTD SVG 1.1//EN" "http://www.w3.org/Graphics/SVG/1.1/DTD/svg11.dtd">
<svg version="1.1" id="Шар_1" xmlns="http://www.w3.org/2000/svg" xmlns:xlink="http://www.w3.org/1999/xlink" x="0px" y="0px"
	 width="65px" height="64.812px" viewBox="0 0 65 64.812" enable-background="new 0 0 65 64.812" xml:space="preserve">
<g>
	<g>
		
			<circle id="XMLID_115_" fill="none" stroke="#FFFFFF" stroke-width="2" stroke-miterlimit="10" cx="32.045" cy="32.353" r="28.596"/>
	</g>
	<path fill-rule="evenodd" clip-rule="evenodd" fill="#FEFEFE" d="M32.325,44.989c-2.666,0-5.144-0.8-7.225-2.159l-5.037,1.599
		l1.625-4.852c-1.572-2.131-2.505-4.797-2.505-7.65c0-0.426,0.026-0.826,0.081-1.252c0.64-6.61,6.262-11.781,13.061-11.781
		c6.903,0,12.581,5.304,13.112,12.021c0.028,0.347,0.028,0.693,0.028,1.012C45.466,39.124,39.574,44.989,32.325,44.989
		L32.325,44.989z M39.495,35.073c-0.4-0.188-2.267-1.121-2.612-1.254c-0.374-0.106-0.613-0.188-0.88,0.213
		c-0.24,0.373-0.986,1.226-1.199,1.466c-0.241,0.269-0.452,0.295-0.826,0.107c-0.399-0.188-1.626-0.587-3.092-1.893
		c-1.146-1.013-1.919-2.239-2.133-2.612c-0.213-0.399-0.027-0.586,0.161-0.799c0.187-0.16,0.4-0.427,0.586-0.667
		c0.053-0.054,0.106-0.107,0.133-0.16c0.106-0.16,0.16-0.293,0.241-0.453c0.132-0.266,0.08-0.479-0.027-0.667
		c-0.081-0.186-0.853-2.078-1.173-2.825c-0.319-0.773-0.639-0.64-0.853-0.64c-0.24,0-0.479-0.027-0.746-0.027
		c-0.268,0-0.667,0.08-1.013,0.48c-0.374,0.373-1.361,1.279-1.361,3.171c0,0.426,0.081,0.879,0.215,1.279
		c0.372,1.359,1.226,2.453,1.358,2.639c0.187,0.267,2.639,4.211,6.53,5.731c3.919,1.519,3.919,1.013,4.612,0.959
		c0.694-0.054,2.266-0.906,2.586-1.812c0.318-0.881,0.318-1.653,0.213-1.813C40.136,35.365,39.867,35.258,39.495,35.073
		L39.495,35.073z M47.944,31.554c-0.213-8.396-7.116-15.113-15.619-15.113c-8.396,0-15.246,6.558-15.593,14.82
		c-0.027,0.213-0.027,0.453-0.027,0.666c0,2.933,0.826,5.678,2.239,8.023l-2.825,8.316l8.662-2.744
		c2.239,1.227,4.824,1.918,7.543,1.918c8.636,0,15.646-6.93,15.646-15.513C47.971,31.794,47.944,31.687,47.944,31.554L47.944,31.554
		z"/>
</g>
</svg>
