<?xml version="1.0" encoding="utf-8"?>
<!-- Generator: Adobe Illustrator 16.0.4, SVG Export Plug-In . SVG Version: 6.00 Build 0)  -->
<!DOCTYPE svg PUBLIC "-//W3C//DTD SVG 1.1//EN" "http://www.w3.org/Graphics/SVG/1.1/DTD/svg11.dtd">
<svg version="1.1" id="Шар_1" xmlns="http://www.w3.org/2000/svg" xmlns:xlink="http://www.w3.org/1999/xlink" x="0px" y="0px"
	 width="65px" height="64.813px" viewBox="0 0 65 64.813" enable-background="new 0 0 65 64.813" xml:space="preserve">
<g>
	<g>
		
			<circle id="XMLID_115_" fill="none" stroke="#FFFFFF" stroke-width="2" stroke-miterlimit="10" cx="32.586" cy="32.353" r="28.596"/>
	</g>
	<path fill="#FFFFFF" d="M52.06,22.556c-0.492-0.415-2.389-0.398-4.27-0.39c-1.923,0.011-3.831,0.022-4.271,0.195
		c-0.407,0.161-1.328,2.376-2.521,4.659c-1.351,2.583-3.021,5.065-4.077,5.048c-1.368-0.021-1.051-4.265-0.97-7.378
		c0.053-2.064-0.282-2.709-0.583-2.912c-0.73-0.489-2.717-0.97-2.717-0.97s-5.941-0.452-6.793,2.135
		c1.13,0.149,3.083-0.213,2.33,7.767c-0.037,0.386-0.91,3.675-3.688-0.776c-0.686-1.101-3.353-7.742-4.27-7.769
		c-3.082-0.084-6.103-0.21-7.182,0.39c-0.984,0.547,1.331,5.138,5.241,11.261c3.197,5.006,6.583,8.918,12.422,9.902
		c1.091,0.11,3.966,0.24,4.852-0.194c0.618-0.301-0.132-4.645,1.941-5.048c0.933-0.182,4.476,4.509,5.825,5.048
		c0.815,0.326,2.619,0.448,4.463,0.389c1.996-0.065,4.246,0.174,4.464-1.166c0.488-2.994-6.015-6.887-6.211-8.74
		c-0.141-1.325,2.379-3.771,3.688-5.629C51.326,26.118,53.054,23.395,52.06,22.556z"/>
</g>
</svg>
